<svg height="200" width="200" xmlns="http://www.w3.org/2000/svg" xmlns:xlink="http://www.w3.org/1999/xlink"><clipPath id="c"><path d="M-75-32.5h350v275H-75z"/></clipPath><clipPath id="d"><path d="M246.54 157.29a31.27 31.27 0 0 1-2.91 8.23c-3.41-10.76-9.92-21.51-18.38-27.91-.19-.14-.5-.35-.91-.6a33.51 33.51 0 0 0-48.74 15.72l-.73 1.75a43.94 43.94 0 0 1 10.5-5.65s-2.16 3-3.83 5.19c-5.13 6.87-8.51 16.3-5.9 24.95.81 2.72 2.88 5.35 5.48 7.74-13.22 2.15-22.59 15.69-22.59 15.69l-12.64 14.92 18.46 3.85 10.52.38a75.24 75.24 0 0 0 21.71 2.9c26.43 0 45-17.34 49-36 .31-1.46.62-2.92 1-4.38 1.17-5.37 3.69-18.86-.04-26.78z"/></clipPath><linearGradient id="b" gradientUnits="userSpaceOnUse" x1="213.39" x2="213.39" y1="172.6" y2="118.96"><stop offset="0" stop-color="#fff" stop-opacity="0"/><stop offset=".72" stop-color="#fff"/></linearGradient><clipPath id="e"><path d="M176.41 218.42c-4.69-3.2-14.43-6.72-19.6-8.23h-.09a27 27 0 0 0 .69-17L137 126.62c1.91-3.81 6.65-12.09 12.34-13.72 0 0-9.67-6.17-13.56 1.56 0 0 2.37-7.18 5.62-7 0 0-5.85-1.48-10.25.19l-5.87-19.1a26.32 26.32 0 0 0-5.15-9.73l8-12.93c-1.85-.93-13.17 3.77-16.39 6.3-1-.51-4.78-1.78-5.87-2.15a15.51 15.51 0 0 0-1.92-13.9 7.14 7.14 0 0 1-3.31 7.13c4.15-9.51-15.12-19-15.12-19a11 11 0 0 1-3.82 11c-6.4 5.41-3.78 10.14-3.78 10.14s-3.69-1-3.43-4.54c-3.31 4-1.56 7.4.11 9.78a53.3 53.3 0 0 0-6.25 3.08l-.3-.56c-4.85-4-13.58-5.36-14.79-3.67l7 12.56a26.21 26.21 0 0 0-3.59 10.22l-3.47 18.21c-4.75-1.22-10.34 2-10.34 2 3.11-1 7.28 5.33 7.28 5.33-5.78-6.44-13.49 2-13.49 2 5.92.09 10.76 7.37 12.72 10.79L36.72 197a27.16 27.16 0 0 0 1.38 12.81h-.07c-4.15 1-14.22 4.74-20.11 8.54-2.89 1.87-1.11 6.09 2.52 6l29.11-.57c.49.3 1 .59 1.5.86v.36c0 2.54-.73 4.62-3.27 4.75a3.46 3.46 0 0 0-3.34 2.3c-.51 2.34.64 4.24 3 4.4l9.19.55a7.7 7.7 0 0 0 7.12-3.72 7.61 7.61 0 0 0 1-2.6l.55-2.91h58.17l.38 2.26a7.8 7.8 0 0 0 4.7 5.92 5.78 5.78 0 0 0 2.43.43l10-.33c2.4-.24 3.29-1.71 3-4a3 3 0 0 0-2.67-2.78 3 3 0 0 1-3.06-2.39 26.67 26.67 0 0 0 7.13-3.06l28.5.56c3.63.13 5.37-4.02 2.53-5.96z"/></clipPath><linearGradient id="a" gradientUnits="userSpaceOnUse" x1="123.29" x2="123.29" y1="65.66" y2="80.2"><stop offset="0" stop-color="gray"/><stop offset=".14" stop-color="#797979"/><stop offset=".35" stop-color="#646464"/><stop offset=".6" stop-color="#434343"/><stop offset=".89" stop-color="#141414"/><stop offset="1"/></linearGradient><linearGradient id="f" x1="50.01" x2="64.62" xlink:href="#a" y1="75.93" y2="75.93"/><linearGradient id="g" x1="137.45" x2="137.45" xlink:href="#b" y1="225.04" y2="69.99"/><path d="M-75-32.5h350v275H-75z" fill="#f3eee4"/><g clip-path="url(#c)"><g clip-path="url(#d)"><path d="M246.45 223.9H144.08V127h108.01z" fill="#b9916d"/><g fill="#7f7f7f"><path d="M155.69 205.47s12.3-17 15-15.93c-11 12.79-2.85 20.25 2.51 21.84 21.76 6.43 57.88 12.1 72.6-17.95l-23.87 32.64-70.81-.33z" opacity=".2"/><path d="M180.5 185.19a20.74 20.74 0 0 0-2.73.67c.39.41 3.89 11.33 15.17 13a.76.76 0 0 0 .8-1.05 9.22 9.22 0 0 1-.63-2.62m29.99-27.42s-2.14 11-5.74 15.08a12.56 12.56 0 0 1-7.6 4.1.4.4 0 0 1-.44-.47 8 8 0 0 0-.24-3.08s-13.25 7-12.38 12.59c0 0-1.74-7.83 7.39-13s7.6-7.12 7.6-7.12l-.19 6c6.19-1.23 11.6-14.1 11.6-14.1z" opacity=".2"/></g><path d="M183.15 142.57s16.53-16 41.22.82c10.14 7.29 15.7 29.21 15.7 29.21l3.56-7.08-6.5-41.16-25.44-5.36-16.43 2.2z" fill="url(#b)" opacity=".5"/></g><path d="M243.64 165.54c-3.41-10.76-9.92-21.52-18.38-27.93-.2-.14-.5-.35-.91-.6a33.51 33.51 0 0 0-48.74 15.72l-.73 1.75a44 44 0 0 1 10.49-5.65s-2.16 3-3.83 5.19c-5.13 6.87-8.5 16.3-5.9 24.95 2.25 7.49 14 14.35 20.31 17.32a.5.5 0 0 0 .72-.62c-1.06-2.34.69-6.57 2.07-8.51 1.74-2.43 4.6-3.73 7.22-5.17s5.3-3.36 6.08-6.25l-.55 6.29a22.36 22.36 0 0 0 9.73-9.47 21.88 21.88 0 0 0 2.06-5.52" fill="none" stroke="#31323d" stroke-linecap="round" stroke-linejoin="round" stroke-width="1.363"/><path d="M158.54 202.4s9.37-13.54 22.59-15.69" fill="none" stroke="#31323d" stroke-linecap="round" stroke-miterlimit="10" stroke-width="1.363"/><path d="M174.88 221.55a75.14 75.14 0 0 0 21.71 2.9c26.43 0 45-17.34 48.95-36 .31-1.46.62-2.92 1-4.38 1.25-5.41 3.77-18.9.05-26.82 0 0-.52 3.85-4.13 10.66" fill="none" stroke="#31323d" stroke-linecap="round" stroke-linejoin="round" stroke-width="1.363"/><path d="M176.41 218.42c-4.69-3.2-14.43-6.72-19.6-8.23h-.09a27 27 0 0 0 .69-17L137 126.62c1.91-3.81 6.65-12.09 12.34-13.72 0 0-9.67-6.17-13.56 1.56 0 0 2.37-7.18 5.62-7 0 0-5.85-1.48-10.25.19l-5.87-19.1a26.32 26.32 0 0 0-5.15-9.73l8-12.93c-1.85-.93-13.17 3.77-16.39 6.3a25.89 25.89 0 0 0-3.17-1.33c1.71-7.94-4.62-14.72-4.62-14.72a7.14 7.14 0 0 1-3.31 7.13c4.15-9.51-15.12-19-15.12-19a11 11 0 0 1-3.82 11c-6.4 5.41-3.78 10.14-3.78 10.14s-3.69-1-3.43-4.54a10.09 10.09 0 0 0-1.77 10.54 26.84 26.84 0 0 0-4.37 2.32l-.3-.56c-4.85-4-13.58-5.36-14.79-3.67l7 12.56a26.21 26.21 0 0 0-3.59 10.22l-3.47 18.21c-4.75-1.22-10.34 2-10.34 2 3.11-1 7.28 5.33 7.28 5.33-5.78-6.44-13.49 2-13.49 2 5.92.09 10.76 7.37 12.72 10.79L36.72 197a27.16 27.16 0 0 0 1.38 12.81h-.07c-4.15 1-14.22 4.74-20.11 8.54-2.89 1.87-1.11 6.09 2.52 6l29.11-.57c.49.3 1 .59 1.5.86v.36c0 2.54-.73 4.62-3.27 4.75a3.46 3.46 0 0 0-3.34 2.3c-.51 2.34.64 4.24 3 4.4l9.19.55a7.7 7.7 0 0 0 7.12-3.72 7.61 7.61 0 0 0 1-2.6l.55-2.91h58.17l.38 2.26a7.8 7.8 0 0 0 4.7 5.92 5.78 5.78 0 0 0 2.43.43l10-.33c2.4-.24 3.29-1.71 3-4a3 3 0 0 0-2.67-2.78 3 3 0 0 1-3.06-2.39 26.67 26.67 0 0 0 7.13-3.06l28.5.56c3.63.13 5.37-4.02 2.53-5.96z" fill="none"/><g clip-path="url(#e)"><path d="M15.44 40.8h165.78v197.7H15.44z" fill="#b9916d"/><path d="M130.69 66.2s-4.14-2.84-11.12 4.52l-3.68 4.41L122 80.2z" fill="url(#a)" opacity=".4"/><path d="M50 70.56s3-2.07 7.81-.09A13.45 13.45 0 0 1 63 74.3l1.62 2-4.11 6z" fill="url(#f)" opacity=".4"/><path d="M65.31 229.21c-.61-1.59.35-6.19 2.26-15.39 1.14-5.51 2.05-9.1 2.61-11.45 4.23-17.66 1.76-19.58 5.45-30.09 2.53-7.19 5.14-14.3 12.1-17.66.84-.41 7.19-3.35 13.63-.77s8.86 8.79 11.49 15.48c3.17 8.08 2.17 10.87 5.78 31.1.75 4.21 1.49 8.42 2.25 12.62.44 2.47.87 4.95 1.31 7.42 1 5.8 1 5.9 1 6.13-1.04 8.56-53.04 15.32-57.88 2.61z" fill="#fffff4"/></g><g clip-path="url(#e)" fill="#7f7f7f" opacity=".2"><path d="M77.49 73.21C68.6 75.79 63 85.84 59.86 99.34c-.72 3.15-1.37 6.88-2 11a30.74 30.74 0 0 0-.33 4.82c0 3.91.2 7.7.42 10.81a16 16 0 0 1-2.4 8.46 30.44 30.44 0 0 0-3.71 10.5v.13c-2.19 14.52-5 38.52-5.73 44.06a96.22 96.22 0 0 0-.75 10.73v.37c2.57 2.83 5.2 9.67 5.74 19.27l.14 5.34s-3.41-.08-8.83-.08c-6.76 0-12.08-12.18-8.63-30.33 3.1-16.3-7.41-99.82-7.41-99.82l30.73-4.83s2-13.65 17.46-19.18zm-7.28 128.28c-2.64 16.11 5.92 19.44 7.48 19.8 9.43 1.69 24.4 1 29.27-.76 4.56-1.61 14.16-6.38 11.77-20.66l4.69 28H65.25zm68.45 12.75s3.26-10 7.23-13.61c-4.3 8.17 1.54 10.11 3.06 9.56 5.86-2.09 8.18-7.27 8.64-16.36l7.12 12.68s-6 27.91-22.24 23.33l-4.22-2z"/></g><g clip-path="url(#e)" opacity=".2"><path d="M104.85 71.61s6.83 2.3 9.23 5.71 5.68 9.4 8 19.73c1.88 8.26 4.17 20 7.49 30.31 1.27 4 3.24 6 4.6 10.07 7.17 21.39 14.08 43.15 17.08 56.43 5 22.32-8.86 31.18-8.86 31.18l6.66-3.87S156 213 157 209.44c2.27-7.84 15.16-3.6 12.78-16.1-3.45-18.15-24.85-110.6-24.85-110.6S123 84.27 120 78.89c-2.25-4-8.56-7.24-14.12-8.9z" fill="url(#g)"/></g><path d="M138.36 131.17l19 62A27.29 27.29 0 0 1 138.25 227m-87.19-2.26A27.3 27.3 0 0 1 36.72 197l11.64-61.18" fill="none" stroke="#31323d" stroke-linecap="round" stroke-miterlimit="10" stroke-width="1.363"/><path d="M70.45 201.54c-.77 6.64-2 13.19-3.24 19.75l-1.83 9.85a8.34 8.34 0 0 1-2.7 4.67 8.54 8.54 0 0 1-5 2.05 21.79 21.79 0 0 1-2.6-.07l-2.5-.14-5-.31a4.26 4.26 0 0 1-2.76-1.06 4 4 0 0 1-1.24-2.74 5.72 5.72 0 0 1 .11-1.44 3.14 3.14 0 0 1 .71-1.45 4.51 4.51 0 0 1 2.6-1.44 4.43 4.43 0 0 1 .72-.09c.21 0 .36 0 .53-.06a2.2 2.2 0 0 0 .88-.35 2.67 2.67 0 0 0 1-1.62 7.71 7.71 0 0 0 .19-2.28l-.1-2.49-.4-10v.06a29.54 29.54 0 0 0-1.34-6.38 20.17 20.17 0 0 0-3.12-5.67.25.25 0 0 1 0-.34.23.23 0 0 1 .32 0 17.14 17.14 0 0 1 3.76 5.61 26 26 0 0 1 1.66 6.56v.06l.5 10 .12 2.5a8.9 8.9 0 0 1-.22 2.69 4.15 4.15 0 0 1-1.62 2.48 3.74 3.74 0 0 1-1.43.57c-.24.05-.5.06-.71.09a3.09 3.09 0 0 0-.52.07 3 3 0 0 0-1.71 1 1.49 1.49 0 0 0-.37.78 3.68 3.68 0 0 0-.08 1 2.48 2.48 0 0 0 .76 1.71 2.76 2.76 0 0 0 1.83.64l5 .29 2.49.15a20.14 20.14 0 0 0 2.4.09 7 7 0 0 0 4.11-1.66 6.85 6.85 0 0 0 2.25-3.82l1.92-9.8c1.26-6.55 2.46-13.11 4.16-19.58a.24.24 0 0 1 .47.09zm48.55-1.71c1.75 7.61 3 15.3 4.32 23l1 5.76.24 1.44a7.21 7.21 0 0 0 1.71 3.52 6.23 6.23 0 0 0 4.54 2.19l5.81-.21 2.91-.09h1.44a3.54 3.54 0 0 0 1.14-.29 2 2 0 0 0 1.16-1.7 5.23 5.23 0 0 0 0-1.25 3.1 3.1 0 0 0-.39-1.09 2 2 0 0 0-.75-.74 2.5 2.5 0 0 0-.48-.18c-.17 0-.34 0-.66-.07a4.73 4.73 0 0 1-1.66-.5 3.45 3.45 0 0 1-1.31-1.29 5.86 5.86 0 0 1-.52-3.22l.06-2.93.06-2.93a29.48 29.48 0 0 1 .3-3 27.68 27.68 0 0 1 1.55-5.76 27.18 27.18 0 0 1 2.66-5.31 28.84 28.84 0 0 1 3.63-4.66.24.24 0 0 1 .34 0 .26.26 0 0 1 0 .33 37.85 37.85 0 0 0-5.48 10.08 31.26 31.26 0 0 0-1.37 5.53 27.3 27.3 0 0 0-.26 2.83v2.92l-.05 2.91v1.37a2.84 2.84 0 0 0 .33 1.1 2.29 2.29 0 0 0 1.88 1.05 6.25 6.25 0 0 1 .79.1 3 3 0 0 1 .89.32 3.34 3.34 0 0 1 1.31 1.27 4.34 4.34 0 0 1 .61 1.64 6.59 6.59 0 0 1 0 1.66 4 4 0 0 1-.59 1.69 3.48 3.48 0 0 1-1.41 1.21 5.23 5.23 0 0 1-1.67.44l-1.48.06-2.92.11-5.88.17a6.62 6.62 0 0 1-3.16-.77 8.53 8.53 0 0 1-2.51-1.95 8.38 8.38 0 0 1-1.63-2.74 10.28 10.28 0 0 1-.41-1.54l-.23-1.44-1-5.77c-1.25-7.69-2.57-15.37-3.4-23.13a.24.24 0 0 1 .22-.26.23.23 0 0 1 .32.12z" fill="#31323d"/><path d="M137.08 127l6.5 21.16M131 107.19l-5.76-18.69a26.27 26.27 0 0 0-16.3-17.5l-2.89-1M53.3 109.89l3.36-17.67a26.26 26.26 0 0 1 15.73-20.74l2-.78m-27.58 73.28l2.45-12.85" fill="none" stroke="#31323d" stroke-linecap="round" stroke-miterlimit="10" stroke-width="1.363"/><path d="M49.94 132.51a36.89 36.89 0 0 0-2.47-4.08 30.6 30.6 0 0 0-3-3.7 16.9 16.9 0 0 0-3.61-3 8.44 8.44 0 0 0-4.24-1.29.68.68 0 0 1-.68-.68.72.72 0 0 1 .18-.45 18.67 18.67 0 0 1 3.1-2.6 12.69 12.69 0 0 1 3.7-1.71 7.3 7.3 0 0 1 4.22 0 7.92 7.92 0 0 1 3.5 2.33l-1.08.83a21.44 21.44 0 0 0-3-3.48 8.14 8.14 0 0 0-1.77-1.27 2.38 2.38 0 0 0-1.77-.3.67.67 0 0 1-.86-.43.69.69 0 0 1 .31-.81 20.58 20.58 0 0 1 3.18-1.29 17.89 17.89 0 0 1 3.32-.73 11.61 11.61 0 0 1 3.43.08 7.79 7.79 0 0 1 3.16 1.31.27.27 0 0 1 .06.38.27.27 0 0 1-.37.07 7.16 7.16 0 0 0-3-1 11.25 11.25 0 0 0-3.17.12 17.45 17.45 0 0 0-3.08.88 21.22 21.22 0 0 0-2.81 1.31l-.54-1.24a3.74 3.74 0 0 1 2.8.38 9.5 9.5 0 0 1 2.07 1.49 18.86 18.86 0 0 1 1.69 1.78 23.89 23.89 0 0 1 1.49 1.95.68.68 0 0 1-1.07.84 6.62 6.62 0 0 0-2.88-1.94 6.09 6.09 0 0 0-3.46 0 11.33 11.33 0 0 0-3.29 1.62 17.36 17.36 0 0 0-2.85 2.39l-.49-1.14a9.8 9.8 0 0 1 4.86 1.61 18.1 18.1 0 0 1 3.74 3.26 31.2 31.2 0 0 1 3 3.91 37 37 0 0 1 2.4 4.26.38.38 0 0 1-.18.51.38.38 0 0 1-.5-.17zm85.75-4.12a42.25 42.25 0 0 1 5.08-9.33 26.68 26.68 0 0 1 3.59-4 12.65 12.65 0 0 1 4.74-2.83l-.18 1.27a17.2 17.2 0 0 0-3.37-1.55 11.53 11.53 0 0 0-3.59-.65 6 6 0 0 0-3.31.88 6.54 6.54 0 0 0-2.25 2.62.73.73 0 0 1-1.35-.57A24.16 24.16 0 0 1 136 112a19.88 19.88 0 0 1 1.19-2.16 9.09 9.09 0 0 1 1.62-2 3.7 3.7 0 0 1 2.61-1.09l-.19 1.34a23.15 23.15 0 0 0-3.36-.61 19.56 19.56 0 0 0-3.42-.1 11.58 11.58 0 0 0-3.32.65 7.06 7.06 0 0 0-2.81 1.81.27.27 0 0 1-.38 0 .28.28 0 0 1 0-.38 7.6 7.6 0 0 1 2.94-2.14 12.62 12.62 0 0 1 3.51-.91 20.64 20.64 0 0 1 3.6-.11 24.77 24.77 0 0 1 3.6.45.68.68 0 0 1 .5.82.69.69 0 0 1-.69.52 2.39 2.39 0 0 0-1.63.76 8.15 8.15 0 0 0-1.35 1.7 21.34 21.34 0 0 0-1.92 4.14l-1.36-.56a8 8 0 0 1 2.79-3.19 7.44 7.44 0 0 1 4.1-1.09 13 13 0 0 1 4 .74 19.18 19.18 0 0 1 3.68 1.71.7.7 0 0 1 .23 1 .72.72 0 0 1-.4.31 11.41 11.41 0 0 0-4.21 2.51 26.4 26.4 0 0 0-3.42 3.8 50.3 50.3 0 0 0-2.91 4.28c-.89 1.48-1.77 3-2.56 4.54a.38.38 0 0 1-.51.16.39.39 0 0 1-.24-.51z" fill="#31323d"/><path d="M68 73.11c-4.85-4-13.58-5.36-14.79-3.67l7 12.56m51.49-9.86c3.22-2.53 14.54-7.23 16.39-6.3l-8 12.93" fill="none" stroke="#31323d" stroke-linecap="round" stroke-miterlimit="10" stroke-width="1.363"/><path d="M77.28 73.53a15.23 15.23 0 0 1-2.8-2.53 10.42 10.42 0 0 1-2-3.25 6.89 6.89 0 0 1-.26-3.87A8.68 8.68 0 0 1 74 60.46a.55.55 0 0 1 .77-.09.57.57 0 0 1 .2.43v.05a3.86 3.86 0 0 0 .16 1.32 3 3 0 0 0 .63 1.14 4.35 4.35 0 0 0 1 .88 5.91 5.91 0 0 0 1.23.57l-.7.88a7.44 7.44 0 0 1 .2-6.33 14.42 14.42 0 0 1 3.89-4.8 10.66 10.66 0 0 0 3.1-4.6 10.21 10.21 0 0 0 .29-5.47.69.69 0 0 1 .51-.82.72.72 0 0 1 .46.06A53.15 53.15 0 0 1 91.52 47a40.82 40.82 0 0 1 5.25 4.14 19.21 19.21 0 0 1 4.15 5.39 9.15 9.15 0 0 1 .93 3.4 7.76 7.76 0 0 1-.62 3.53l-1-.87a6.29 6.29 0 0 0 1.41-1.2 6.4 6.4 0 0 0 1-1.56 6.21 6.21 0 0 0 .52-1.8 8 8 0 0 0 0-1.89v-.07a.67.67 0 0 1 1.2-.46 13.47 13.47 0 0 1 2.1 4.09 13.94 13.94 0 0 1 .7 4.48 14.58 14.58 0 0 1-.7 4.45 18.66 18.66 0 0 1-1.86 4.06.38.38 0 0 1-.65-.38 17.81 17.81 0 0 0 1.63-3.94 13.78 13.78 0 0 0 .52-4.18 13.31 13.31 0 0 0-.79-4.1 12.26 12.26 0 0 0-2-3.59l1.19-.53a8.92 8.92 0 0 1 0 2.25 7.29 7.29 0 0 1-.64 2.18 7.11 7.11 0 0 1-1.25 1.9 7.51 7.51 0 0 1-1.76 1.48.67.67 0 0 1-1-.85 6.83 6.83 0 0 0-.29-5.8 18.05 18.05 0 0 0-3.86-5 40.18 40.18 0 0 0-5.07-4 52.47 52.47 0 0 0-5.58-3.31l1-.8a11.58 11.58 0 0 1-3.82 11.45 13.42 13.42 0 0 0-3.61 4.34 7.08 7.08 0 0 0-.62 2.67 5.55 5.55 0 0 0 .42 2.57v.06a.6.6 0 0 1-.29.8.61.61 0 0 1-.44 0 6.52 6.52 0 0 1-1.55-.74 5.56 5.56 0 0 1-1.28-1.15 4.35 4.35 0 0 1-.81-1.55 5.1 5.1 0 0 1-.17-1.73l1 .4a7.55 7.55 0 0 0-1.63 3 5.88 5.88 0 0 0 .15 3.32 9.47 9.47 0 0 0 1.73 3 14.41 14.41 0 0 0 2.57 2.44.38.38 0 0 1-.44.62z" fill="#31323d"/><circle cx="122.38" cy="100.26" fill="#fff" r="14.15" stroke="#31323d" stroke-linecap="round" stroke-miterlimit="10" stroke-width="1.09"/><circle cx="63.18" cy="102.07" fill="#fff" r="14.15"/><circle cx="63.18" cy="102.07" fill="none" r="14.15" stroke="#31323d" stroke-linecap="round" stroke-miterlimit="10" stroke-width="1.09"/><circle cx="63.01" cy="102.22" fill="#a66421" r="8.74"/><circle cx="62.77" cy="102.34" fill="#31323d" r="6.34"/><circle cx="66.33" cy="97.36" fill="#fff" r="3.37"/><circle cx="122.42" cy="100.6" fill="#a66421" r="8.74"/><circle cx="122.18" cy="100.72" fill="#31323d" r="6.34"/><circle cx="125.74" cy="95.75" fill="#fff" r="3.37"/><path d="M87.44 130.68s2.17 9.39 8.75 8.44c6.36-.92 7.19-9.19 7.19-9.19s-2.84 4.35-7 4.83-8.94-4.08-8.94-4.08z" fill="#595959" opacity=".2"/><g fill="#31323d"><path d="M86.26 106.5a1.62 1.62 0 0 1 .34-1.75c.94-1 3-2.45 6.87-2.59s5.76 1.16 6.67 2.09a1.6 1.6 0 0 1 .32 1.74 2.25 2.25 0 0 1-1.95 1.4 4.55 4.55 0 0 0-3.29 1.53 13.19 13.19 0 0 1-1.12 1.24l-.75.72-1.35-1.45s-.83-1.34-3.77-1.48a2.25 2.25 0 0 1-2-1.42z"/><path d="M94.41 108.81a27.71 27.71 0 0 0 1.07 4.24 21.1 21.1 0 0 0 1.78 4 10.52 10.52 0 0 0 2.8 3.27 6.27 6.27 0 0 0 4.07 1.25.15.15 0 0 1 .17.15.16.16 0 0 1-.14.17 6.71 6.71 0 0 1-4.46-1 11.39 11.39 0 0 1-3.27-3.29 21.78 21.78 0 0 1-2.17-4.07 30.13 30.13 0 0 1-1.46-4.39.82.82 0 1 1 1.59-.39.13.13 0 0 1 0 .06z"/><path d="M85.13 122.12a6.1 6.1 0 0 0 4.08-1.61 8.63 8.63 0 0 0 2.13-3.86 30.35 30.35 0 0 0 .88-4.5l.58-4.62a.82.82 0 1 1 1.62.2.13.13 0 0 1 0 .06l-.9 4.59a31.38 31.38 0 0 1-1.25 4.62 9.47 9.47 0 0 1-2.62 4 6.67 6.67 0 0 1-4.52 1.45.17.17 0 0 1-.16-.17.18.18 0 0 1 .16-.16zM86.6 116a21.76 21.76 0 0 0-8.24-.4 21.39 21.39 0 0 0-7.84 2.77 21 21 0 0 0-6.23 5.57 21.31 21.31 0 0 0-3.67 7.57 21.88 21.88 0 0 1 9.62-13.6 22 22 0 0 1 8-3.12 22.58 22.58 0 0 1 8.63.15.54.54 0 0 1 .42.64.54.54 0 0 1-.65.42zm-21.82-1.7a37 37 0 0 1 17.41-2.69.55.55 0 0 1-.11 1.09 35 35 0 0 0-8.68-.24 35.53 35.53 0 0 0-4.34.66 36.92 36.92 0 0 0-4.28 1.18z"/><path d="M85.09 118.82a12.36 12.36 0 0 0-6 .44 9.88 9.88 0 0 0-4.81 3.55 11.42 11.42 0 0 0-2.11 5.73 13.16 13.16 0 0 0 .91 6.13 13.39 13.39 0 0 1-1.18-6.15 11.85 11.85 0 0 1 1.93-6 10.68 10.68 0 0 1 5-4 13.35 13.35 0 0 1 6.42-.75.55.55 0 0 1-.13 1.09zm15.61-5.6a22.57 22.57 0 0 1 8.63.08 22 22 0 0 1 7.9 3.33 21.18 21.18 0 0 1 6 6 21.52 21.52 0 0 1 3.25 7.82 21.34 21.34 0 0 0-3.47-7.67 20.92 20.92 0 0 0-6.09-5.73 21.39 21.39 0 0 0-7.75-3 22.06 22.06 0 0 0-8.26.18.54.54 0 1 1-.23-1.06zm22.08-.05a36.4 36.4 0 0 0-4.2-1.3 36.18 36.18 0 0 0-13-.76.54.54 0 0 1-.14-1.08 35.28 35.28 0 0 1 8.9.52 37 37 0 0 1 4.3 1.06 35.39 35.39 0 0 1 4.14 1.56z"/><path d="M102.21 116.07a13.29 13.29 0 0 1 6.4.92 10.62 10.62 0 0 1 4.88 4.14 11.81 11.81 0 0 1 1.77 6.07 13.4 13.4 0 0 1-1.34 6.11 13.23 13.23 0 0 0 1.07-6.1 11.39 11.39 0 0 0-2-5.78 10 10 0 0 0-4.72-3.68 12.19 12.19 0 0 0-6-.59.55.55 0 0 1-.61-.47.53.53 0 0 1 .46-.61zm1.79 13.2a8 8 0 0 1-1.1 2.45 8.58 8.58 0 0 1-1.94 1.91 9.94 9.94 0 0 1-2.47 1.21 10.79 10.79 0 0 1-2.7.43 10.57 10.57 0 0 1-5.27-1.27 9.29 9.29 0 0 1-3.75-3.73.28.28 0 0 1 .45-.31 11.38 11.38 0 0 0 3.92 2.79 11 11 0 0 0 4.58.91A8.85 8.85 0 0 0 102 131a9 9 0 0 0 1.41-1.95.28.28 0 0 1 .38-.1.3.3 0 0 1 .21.32z"/></g></g></svg>