<svg height="200" width="200" xmlns="http://www.w3.org/2000/svg" xmlns:xlink="http://www.w3.org/1999/xlink"><clipPath id="c"><path d="M-75-32.5h350v275H-75z"/></clipPath><clipPath id="d"><path d="M148.1 187.33c9 4 21.14 5.28 21.14 5.28s45.22 5.94 51.92-32.47c2.55-21.37-23.07-25.8-23.07-25.8s12-4.84 16.25-.92c0 0-2.41-4-6-4.33 0 0 15.41-10.54 27.79 13.55 0 0-1.61-12.27-6.57-14.73 0 0 18.56 4.3 21.82 31.88 0 0 3.43-5.49 3.06-10.09 0 0 8.84 13.17-1 28.34 0 0 7.68-7.43 8.3-11.42 0 0 9.63 28-19.73 32.22 0 0 8 3 13.26.44 0 0-5.09 11.26-21.62 9.81 0 0 8 5.55 12.94 4.41 0 0-12.14 6.29-32.74 1.74 0 0 7 6.54 12.14 6.67l-1.36.34a81.73 81.73 0 0 1-45-2.13l-19.68-6.65-11.83-4.89z"/></clipPath><linearGradient id="a" gradientUnits="userSpaceOnUse" x1="203.01" x2="203.01" y1="231.19" y2="194.5"><stop offset="0" stop-color="gray"/><stop offset=".27" stop-color="#7d7d7d"/><stop offset=".46" stop-color="#747474"/><stop offset=".64" stop-color="#646464"/><stop offset=".8" stop-color="#4d4d4d"/><stop offset=".95" stop-color="#303030"/><stop offset="1" stop-color="#242424"/></linearGradient><linearGradient id="e" gradientUnits="userSpaceOnUse" x1="235.96" x2="235.96" y1="158.51" y2="118.79"><stop offset="0" stop-color="#fff" stop-opacity="0"/><stop offset=".72" stop-color="#fff"/></linearGradient><linearGradient id="f" gradientTransform="rotate(26.38 -3717.382 3283.139)" x1="-1583.75" x2="-1583.75" xlink:href="#a" y1="-1220.18" y2="-1272.55"/><linearGradient id="b" gradientUnits="userSpaceOnUse" x1="144.59" x2="190.93" y1="207.22" y2="207.22"><stop offset="0" stop-color="#ea795a"/><stop offset=".99" stop-color="#ea4e5a"/></linearGradient><linearGradient id="g" gradientTransform="rotate(36.53 210.576 178.635)" x1="190.27" x2="230.87" xlink:href="#b" y1="178.61" y2="178.61"/><clipPath id="h"><path d="M182.57 219.53c-4.79-3.27-14.74-6.87-20-8.41h-.09a27.69 27.69 0 0 0 .71-17.36l-15-48.75a13.57 13.57 0 0 0 4.6-2.49c-1.81.85-4.36-.91-6.12-2.44l-.24-.81c6.09 3 11.64-5.08 11.64-5.08-5.05.61-11.35-3.47-15.19-6.47l-.42-1.35c4.05.76 8.22-2.73 8.22-2.73-2.4.07-5-2-7.31-4.56a33.14 33.14 0 0 1-7-12.42l-6.1-19.84a26.68 26.68 0 0 0-5.27-9.97l7.17-11.6a1.67 1.67 0 0 0-1.34-2.55c-4.45-.22-11.69 5.24-14.41 7.38a26.88 26.88 0 0 0-6.42-2.25 42.93 42.93 0 0 1 2.44-4.27 1.14 1.14 0 0 0-1.25-1.72 24.08 24.08 0 0 0-7.2 3.89.14.14 0 0 1-.21-.14c.46-1.86 2.35-9.91.84-10.64s-4 5.86-5 8.32a.14.14 0 0 1-.27-.06c.19-2.71.54-10.17-1.45-9.8-2.19.42-6.25 9.77-7 11.6a.13.13 0 0 1-.25 0c-.52-1.3-2.56-6.21-3.26-4.49s.07 4.83.37 6.05a.13.13 0 0 1-.22.13c-2.12-1.89-5.73-1.94-8.24-1.69a1.14 1.14 0 0 0-.69 2 12.1 12.1 0 0 1 1.08 1.26 26.85 26.85 0 0 0-7.31 3.25l-.58-.39c-4.63-3.8-11.8-8.64-14.58-4.75a1.68 1.68 0 0 0-.09 1.79l6.74 12a26.78 26.78 0 0 0-3.64 10.43l-3.4 17.85a30.24 30.24 0 0 1-5.5 12.55c-2 2.64-4.32 4.85-6.7 5.1 0 0 4.62 2.91 8.54 1.6l-.27 1.42c-3.41 3.48-9.09 8.35-14.17 8.43 0 0 6.31 6.93 11.86 3.69l-.2 1.08c-1.51 1.64-3.57 3.31-5.31 2.77a13.58 13.58 0 0 0 4.44 1.77l-9.66 50.81a27.58 27.58 0 0 0 1.41 13.1h-.07c-4.25 1-14.53 4.83-20.55 8.72-2.95 1.91-1.13 6.23 2.58 6.16l29.77-.54c.5.31 1 .6 1.54.88v.37c.05 2.59-.74 4.72-3.33 4.85a3.52 3.52 0 0 0-3.41 2.34c-.53 2.4.65 4.33 3 4.51l9.39.56a7.83 7.83 0 0 0 8.26-6.47l.55-3h59.44l.38 2.3a8 8 0 0 0 4.81 6 5.84 5.84 0 0 0 2.48.44l10.23-.34c2.45-.24 3.35-1.75 3.1-4.11a3.06 3.06 0 0 0-2.73-2.84 3 3 0 0 1-3.12-2.44 27.87 27.87 0 0 0 7.27-3.12l29.13.56c3.71.16 5.49-4.09 2.58-6.07z"/></clipPath><linearGradient id="i" x1="99.76" x2="153.08" xlink:href="#b" y1="72.62" y2="72.62"/><linearGradient id="j" x1="30.95" x2="69.91" xlink:href="#b" y1="164.85" y2="164.85"/><linearGradient id="k" x1="124.85" x2="166.72" xlink:href="#b" y1="157.69" y2="157.69"/><clipPath id="l"><path d="M182.57 219.53c-4.79-3.27-14.74-6.87-20-8.41h-.09a27.69 27.69 0 0 0 .71-17.36l-15-48.75a13.57 13.57 0 0 0 4.6-2.49c-1.81.85-4.36-.91-6.12-2.44l-.24-.81c6.09 3 11.64-5.08 11.64-5.08-5.05.61-11.35-3.47-15.19-6.47l-.42-1.35c4.05.76 8.22-2.73 8.22-2.73-4.8.15-10.44-8.25-12.8-12.18l-7.58-24.64a26.68 26.68 0 0 0-5.3-9.97l8.16-13.21c-3.6-3.55-13.45 3.86-16.74 6.44a26.88 26.88 0 0 0-6.42-2.25 42.93 42.93 0 0 1 2.44-4.27 1.14 1.14 0 0 0-1.24-1.72 23.75 23.75 0 0 0-7.2 3.88.14.14 0 0 1-.22-.14c.46-1.86 2.35-9.9.84-10.63s-4 5.86-5 8.32a.14.14 0 0 1-.27-.06c.2-2.72.54-10.17-1.45-9.8-2.18.42-6.25 9.77-7 11.6a.14.14 0 0 1-.26 0c-.52-1.31-2.55-6.21-3.25-4.49s.06 4.83.37 6.05a.13.13 0 0 1-.22.13c-2.12-1.89-5.73-1.94-8.24-1.69a1.14 1.14 0 0 0-.69 2 12.1 12.1 0 0 1 1.08 1.26 26.85 26.85 0 0 0-7.31 3.25l-.58-.39C66.87 67 59 61.72 56.72 67.32l7.18 12.83a26.78 26.78 0 0 0-3.67 10.45l-4.33 22.73c-1.92 4-6.52 12.28-11.27 12.78 0 0 4.62 2.91 8.54 1.6l-.27 1.42c-3.41 3.48-9.09 8.35-14.17 8.43 0 0 6.31 6.93 11.86 3.69l-.2 1.08c-1.51 1.64-3.57 3.31-5.31 2.77a13.58 13.58 0 0 0 4.44 1.77l-9.66 50.81a27.58 27.58 0 0 0 1.41 13.1h-.07c-4.25 1-14.53 4.83-20.55 8.72-2.95 1.91-1.13 6.23 2.58 6.16l29.77-.55c.5.31 1 .6 1.54.88v.37c.05 2.59-.74 4.72-3.33 4.85a3.52 3.52 0 0 0-3.41 2.34c-.53 2.4.65 4.33 3 4.51l9.39.56a7.83 7.83 0 0 0 8.26-6.47l.55-3h59.44l.38 2.3a8 8 0 0 0 4.81 6 5.84 5.84 0 0 0 2.48.44l10.23-.34c2.45-.24 3.35-1.75 3.1-4.11a3.06 3.06 0 0 0-2.73-2.84 3 3 0 0 1-3.12-2.44 27.87 27.87 0 0 0 7.27-3.12l29.13.56c3.71.16 5.49-4.09 2.58-6.07z"/></clipPath><clipPath id="m"><circle cx="127.34" cy="99.54" r="14.41"/></clipPath><clipPath id="n"><circle cx="67.21" cy="100.83" r="14.41"/></clipPath><path d="M-75-32.5h350v275H-75z" fill="#ffe9de"/><g clip-path="url(#c)"><g clip-path="url(#d)"><path d="M143.06 124.13h122.31v101.06H143.06z" fill="#fff"/><path d="M173.28 203.81c13.94 6.87 9.33 13.74 25.95 15 27.13 4.3 42.92-5.54 50.9-16l13.06-5.81-12.51 34.18L142.83 230l7-35.49s15.98 5.63 23.45 9.3z" fill="url(#a)" opacity=".2"/><path d="M214.34 133.42s-8.57-7.47 17.48 2.34 21.63 22.75 21.63 22.75l22.25-9.16-30.49-28L200.4 119l-4.17-.22z" fill="url(#e)" opacity=".5"/><path d="M210.2 147c1.12.22 15.24 1.27 13.87 20.56-1.43 20-16.06 25-40.74 23.49l29.58-31.9s-1.69-2.5-5.29-7.32-5.06-5.31-5.06-5.31a71.07 71.07 0 0 1 7.64.48z" fill="url(#f)" opacity=".2"/></g><g clip-path="url(#d)"><path d="M143.06 124.13h122.31v101.06H143.06z" fill="none"/><path d="M173 199.69a24.62 24.62 0 0 1 12.48 17.62v.16a15.76 15.76 0 0 0 5.47 9.36l-46.34 1 4.33-41.18z" fill="url(#b)"/><path d="M173.28 203.81c13.94 6.87 9.33 13.74 25.95 15 27.13 4.3 42.92-5.54 50.9-16l13.06-5.81-12.51 34.18L142.83 230l7-35.49s15.98 5.63 23.45 9.3z" fill="url(#a)" opacity=".2"/><path d="M214.34 133.42s-8.57-7.47 17.48 2.34 21.63 22.75 21.63 22.75l22.25-9.16-30.49-28L200.4 119l-4.17-.22z" fill="url(#e)" opacity=".5"/><path d="M210.2 147c1.12.22 15.24 1.27 13.87 20.56-1.43 20-16.06 25-40.74 23.49l29.58-31.9s-1.69-2.5-5.29-7.32-5.06-5.31-5.06-5.31a71.07 71.07 0 0 1 7.64.48z" fill="url(#f)" opacity=".2"/><ellipse cx="210.57" cy="178.61" fill="url(#g)" rx="22.28" ry="16.06" transform="rotate(-36.53 210.586 178.617)"/></g><path d="M146.1 187.7c9.17 4 21.57 5.31 21.57 5.31s46.09 6 52.92-32.67c2.6-21.5-23.51-26-23.51-26s12.19-4.87 16.56-.93c0 0-2.46-4-6.16-4.35 0 0 15.71-10.61 28.33 13.63 0 0-1.63-12.35-6.7-14.83 0 0 18.92 4.33 22.26 32.08 0 0 3.49-5.53 3.11-10.15 0 0 9 13.25-1 28.51 0 0 7.83-7.48 8.46-11.49 0 0 9.82 28.16-20.12 32.42 0 0 8.13 3 13.53.44 0 0-5.2 11.33-22 9.87 0 0 8.19 5.58 13.19 4.44 0 0-12.38 6.33-33.38 1.75 0 0 7.12 6.57 12.38 6.71l-1.39.34a84.41 84.41 0 0 1-45.9-2.15L158.17 214l-12.07-4.93z" fill="none" stroke="#31323d" stroke-linecap="round" stroke-linejoin="round" stroke-width="1.66"/><g clip-path="url(#h)"><path d="M17.24 52.57h169.37V239.5H17.24z" fill="#fff"/><path d="M90.93 65s-6.19 44.23-39.09 30.2S50 58.11 50 58.11l33-9.37z" fill="#facfae"/><path d="M99.92 66.8c.86 5 10.83 38.91 38.05 27.29 32.9-14 1.82-37.09 1.82-37.09l-36.9-8.26c-1.07 1.38-3.82 13.05-2.97 18.06z" fill="url(#i)"/><path d="M31 129.32s26.72-7.69 36.26 7.35-9.36 26.6-8.26 38c1.06 10.89.5 12.9-2.3 16.35-4.73 5.83-20.46 11.36-20.46 11.36z" fill="url(#j)"/><path d="M160 134.18s-25.8-15.91-33.49.8 12.88 24.73 19 35.42 11.29 16.89 18.72 17.6-4.23-53.82-4.23-53.82z" fill="url(#k)"/><path d="M66.33 242.9l11.56-58.3a17.64 17.64 0 0 1 17.29-14.2h8.17a17.63 17.63 0 0 1 17.34 14.48l10.06 55.59z" fill="#facfae"/></g><g clip-path="url(#l)" fill="#7f7f7f" opacity=".2"><path d="M81.51 71.18c-9.08 2.63-14.86 12.89-18 26.68-.73 3.23-1.4 7-2 11.24-1.66 10.89-3.13 24.38-5 36.91-2.36 3.69-3.25 4.4-4 8.45-2.28 13-2.32 28.63-3.12 35.12a100.57 100.57 0 0 0-.77 11v.37c2.62 2.89 5.3 9.89 5.86 19.7l.14 5.45s-3.49-.08-9-.08c-6.91 0-12.34-12.45-8.82-31C40 178.34 29.25 93 29.25 93l31.43-4.93a26.88 26.88 0 0 1 19-19.88zM144 215.26s3.33-10.18 7.39-13.91c-4.4 8.35 1.56 10.33 3.12 9.77 6-2.13 8.35-7.42 8.83-16.71l7.27 13s-6.13 28.52-22.73 23.84l-4.3-2z"/></g><g clip-path="url(#l)" opacity=".2"><path d="M109.87 68.15s6.58 3.73 9 7.22 4.91 9.61 7.31 20.16c6.56 28.81 25.55 76.1 30.69 98.9s-9.05 31.86-9.05 31.86l6.8-3.95s7-8.33 8.08-12c2.31-8 15.48-3.67 13.05-16.45-3.52-18.54-34.05-108.1-34.05-108.1S128 82.48 124.89 77c-2.3-4.1-8.15-7.21-13.82-8.91z" fill="#fff"/></g><path d="M148.37 145.33l14.85 48.32a27.81 27.81 0 0 1-19.52 34.42m-88.85-2.25a27.81 27.81 0 0 1-14.6-28.23l9.58-50.4" fill="none" stroke="#31323d" stroke-linecap="round" stroke-miterlimit="10" stroke-width="1.389"/><path d="M72.13 71.31c-4.61-3.79-11.76-8.61-14.54-4.73a1.66 1.66 0 0 0-.09 1.78l6.72 12m52.42-10.03c2.72-2.14 9.93-7.58 14.37-7.36a1.67 1.67 0 0 1 1.34 2.54l-7.16 11.57" fill="none" stroke="#31323d" stroke-linecap="round" stroke-miterlimit="10" stroke-width="1.333"/><path d="M56.72 146a9 9 0 0 1-2.72 1.27 9.32 9.32 0 0 1-3.06.3 12.89 12.89 0 0 1-3-.57 14.28 14.28 0 0 1-2.94-1.25.73.73 0 0 1 .63-1.31 2.41 2.41 0 0 0 1.78-.3 8.71 8.71 0 0 0 1.79-1.29 20.8 20.8 0 0 0 3-3.54l1.16.9a8.47 8.47 0 0 1-3.59 2.37 8 8 0 0 1-4.31 0 13 13 0 0 1-3.77-1.8 19.38 19.38 0 0 1-3.16-2.66.72.72 0 0 1 0-1 .7.7 0 0 1 .47-.19 11.79 11.79 0 0 0 4.8-1.35 24.47 24.47 0 0 0 4.37-2.82 43.42 43.42 0 0 0 3.94-3.5 52.1 52.1 0 0 0 3.56-3.88.73.73 0 0 1 1-.1.71.71 0 0 1 .1 1 7.32 7.32 0 0 1-2.73 2.09 8.09 8.09 0 0 1-3.35.52 11.61 11.61 0 0 1-3.23-.67 15.48 15.48 0 0 1-3-1.36.72.72 0 0 1-.25-1 .76.76 0 0 1 .53-.34 6.2 6.2 0 0 0 3.42-1.91 21 21 0 0 0 2.72-3.33 39.68 39.68 0 0 0 4-7.78 44.91 44.91 0 0 0 2.45-8.5L59 95.25l.83-4.38.39-2.23c.19-.74.34-1.48.56-2.21a27.61 27.61 0 0 1 18.69-18.54.68.68 0 0 1 .86.47.69.69 0 0 1-.47.86 26.14 26.14 0 0 0-17.74 17.6c-.21.7-.36 1.41-.54 2.11l-.37 2.16-.83 4.39-1.67 8.77a45.39 45.39 0 0 1-2.33 8.75 41.16 41.16 0 0 1-4.13 8 21.85 21.85 0 0 1-2.91 3.57 7.59 7.59 0 0 1-4.26 2.3l.31-1.31a15 15 0 0 0 2.66 1.22 10.5 10.5 0 0 0 2.84.59 6.72 6.72 0 0 0 2.73-.42 5.86 5.86 0 0 0 2.15-1.65l1.13.89a53.87 53.87 0 0 1-3.66 4 45 45 0 0 1-4.07 3.61 25.82 25.82 0 0 1-4.62 3 13.26 13.26 0 0 1-5.42 1.52l.53-1.22a17.39 17.39 0 0 0 2.89 2.43 11.59 11.59 0 0 0 3.35 1.6 6.37 6.37 0 0 0 3.49 0 7 7 0 0 0 2.93-2 .73.73 0 0 1 1 0 .74.74 0 0 1 .08.92 22.67 22.67 0 0 1-3.25 3.81 9.79 9.79 0 0 1-2.12 1.52 3.79 3.79 0 0 1-2.88.39l.63-1.31a13 13 0 0 0 2.45 1.3 11.48 11.48 0 0 0 2.7.73 8.37 8.37 0 0 0 2.78-.05 8.23 8.23 0 0 0 2.62-1 .27.27 0 0 1 .38.11.28.28 0 0 1 .01.45zM111 67.53a28.35 28.35 0 0 1 8.5 3.6 27.91 27.91 0 0 1 6.84 6.21 27.32 27.32 0 0 1 4.39 8.12c.93 2.93 1.74 5.79 2.62 8.68l2.6 8.67c.44 1.45.83 2.88 1.35 4.26a34.22 34.22 0 0 0 1.76 4.07 35.77 35.77 0 0 0 4.91 7.36 20.73 20.73 0 0 0 3.14 3 6.3 6.3 0 0 0 3.68 1.46.74.74 0 0 1 .48 1.31 15.88 15.88 0 0 1-2.76 1.76 11.91 11.91 0 0 1-3.12 1.09 8.13 8.13 0 0 1-3.4-.07 7.43 7.43 0 0 1-3-1.71.74.74 0 1 1 1-1.11 48.83 48.83 0 0 0 4 3.38 42.13 42.13 0 0 0 4.36 2.94 24.64 24.64 0 0 0 4.71 2.22 11.92 11.92 0 0 0 4.94.71.71.71 0 0 1 .65 1.12 19.23 19.23 0 0 1-2.78 3.05 12.68 12.68 0 0 1-3.49 2.28 7.83 7.83 0 0 1-4.26.59 8.47 8.47 0 0 1-3.85-1.87l1-1a23.72 23.72 0 0 0 3.45 3.12 8.68 8.68 0 0 0 2 1.07 2.55 2.55 0 0 0 1.89.09.61.61 0 0 1 .65 1 13.61 13.61 0 0 1-5.49 2.67 9 9 0 0 1-3.07.13 8.37 8.37 0 0 1-2.9-.94.28.28 0 0 1-.13-.37.29.29 0 0 1 .35-.14 8.37 8.37 0 0 0 2.73.64 8.87 8.87 0 0 0 2.76-.3 11.71 11.71 0 0 0 2.6-1 14 14 0 0 0 2.3-1.58l.68 1a3.72 3.72 0 0 1-2.84 0 9.91 9.91 0 0 1-2.29-1.18 21.12 21.12 0 0 1-3.74-3.32.69.69 0 0 1 .93-1h.05a7 7 0 0 0 3.18 1.55 6.34 6.34 0 0 0 3.47-.5 11.37 11.37 0 0 0 3.11-2 18.63 18.63 0 0 0 2.54-2.8l.67 1.11a13.18 13.18 0 0 1-5.57-.76 26.3 26.3 0 0 1-5-2.32 46.25 46.25 0 0 1-4.52-3c-1.44-1.1-2.83-2.23-4.17-3.48l1-1.07a5.83 5.83 0 0 0 2.35 1.34 6.32 6.32 0 0 0 2.74 0 10.22 10.22 0 0 0 2.73-1 14 14 0 0 0 2.48-1.56l.5 1.31a7.63 7.63 0 0 1-4.61-1.76 21.51 21.51 0 0 1-3.37-3.23 38.14 38.14 0 0 1-5.09-7.67 46 46 0 0 1-3.19-8.58L132 94.54c-.87-2.87-1.7-5.82-2.6-8.63a25.52 25.52 0 0 0-4.17-7.71 26.07 26.07 0 0 0-6.49-5.9 26.62 26.62 0 0 0-8.07-3.41.69.69 0 0 1 .33-1.35z" fill="#31323d"/><path d="M81.54 71.54c-.55-.8-1.1-1.59-1.69-2.33-.29-.37-.61-.72-.92-1.06l-.49-.49a1.73 1.73 0 0 1-.52-1A1.81 1.81 0 0 1 79 64.72a1.86 1.86 0 0 1 .56-.15h.38l.75-.06a17.32 17.32 0 0 1 3 .1 10 10 0 0 1 3 .83 6.63 6.63 0 0 1 1.39.88l.12.09a.61.61 0 0 0-.73 0 .63.63 0 0 0-.21.35v.22-.18l-.13-.8a18.65 18.65 0 0 1-.43-3 7.42 7.42 0 0 1 .06-1.62 4 4 0 0 1 .22-.86 1.39 1.39 0 0 1 .39-.6 1 1 0 0 1 .54-.25 1 1 0 0 1 .55.06 2.13 2.13 0 0 1 .87.71 6.82 6.82 0 0 1 .47.67c.27.45.51.9.73 1.35s.43.91.63 1.37l.29.69.14.34v.09a.65.65 0 0 0-.26-.3.61.61 0 0 0-.77.1 1.36 1.36 0 0 0-.12.17v-.09l.07-.17.15-.34.29-.67.61-1.35c.41-.9.83-1.79 1.28-2.67A31.06 31.06 0 0 1 96 54.46a6 6 0 0 1 1.21-1.19 2 2 0 0 1 1.16-.38 1.58 1.58 0 0 1 1.21.69 4.37 4.37 0 0 1 .66 1.68 13.92 13.92 0 0 1 .22 1.54 41.13 41.13 0 0 1 0 6v.74a.61.61 0 0 0-.09-.37.74.74 0 0 0-.34-.28.67.67 0 0 0-.77.28c-.09.18 0 .05 0 .05v-.09l.07-.17.55-1.38c.38-.91.77-1.82 1.2-2.72a24.88 24.88 0 0 1 1.45-2.67 6.28 6.28 0 0 1 1.09-1.29 1.59 1.59 0 0 1 1.26-.43 1.48 1.48 0 0 1 1.07 1 4.9 4.9 0 0 1 .26 1.72 15.4 15.4 0 0 1-.08 1.54c-.09 1-.25 2-.42 3s-.38 1.94-.6 2.9l-.39 1.37v-.22a.52.52 0 0 0-.2-.33.59.59 0 0 0-.73 0l.3-.23.61-.43a25.37 25.37 0 0 1 5.3-2.95l.73-.26a5.2 5.2 0 0 1 .87-.2 1.81 1.81 0 0 1 1.83 2.39 2 2 0 0 1-.24.48l-.2.3-.79 1.21a36.6 36.6 0 0 0-2.78 5.06.28.28 0 0 1-.36.15.3.3 0 0 1-.17-.32 21.31 21.31 0 0 1 2.23-5.53l.74-1.29.2-.31a.57.57 0 0 0 .09-.18.54.54 0 0 0 0-.28.47.47 0 0 0-.45-.29 4 4 0 0 0-.54.15l-.66.23a23.94 23.94 0 0 0-5 2.77l-.58.42-.28.22a.87.87 0 0 1-1.07 0 .78.78 0 0 1-.29-.49 1 1 0 0 1 0-.4l.33-1.42c.21-.94.4-1.89.57-2.84s.31-1.9.39-2.84a13.15 13.15 0 0 0 .06-1.39 3.46 3.46 0 0 0-.15-1.17c0-.14-.1-.08.08 0s.06 0-.06.1a4.76 4.76 0 0 0-.77 1 20.31 20.31 0 0 0-1.34 2.49c-.41.87-.79 1.75-1.15 2.65l-.54 1.35-.06.17v.08a1.09 1.09 0 0 1-.1.22A.93.93 0 0 1 99 64a1 1 0 0 1-.13-.56v-.72a42.27 42.27 0 0 0 0-5.74 11.4 11.4 0 0 0-.2-1.36 3 3 0 0 0-.37-1.05c-.08-.1-.06 0 0 0s-.08 0-.2.11a4.68 4.68 0 0 0-.87.86 31.43 31.43 0 0 0-2.94 4.88c-.44.86-.86 1.73-1.27 2.61l-.6 1.33-.3.66-.14.33-.07.17v.15a1 1 0 0 1-.17.24.9.9 0 0 1-1.11.15.89.89 0 0 1-.37-.44v-.08l-.13-.34-.28-.66c-.19-.44-.38-.88-.59-1.31s-.42-.84-.66-1.22a4.6 4.6 0 0 0-.36-.54 2.28 2.28 0 0 0-.22-.24c0 .05.35 0 .4-.08a2.76 2.76 0 0 0-.14.55 6.33 6.33 0 0 0-.12 1.3 18 18 0 0 0 .39 2.78l.15.7v.17a.73.73 0 0 1 0 .4.83.83 0 0 1-.3.5.86.86 0 0 1-1.06 0l-.17-.13a4.66 4.66 0 0 0-1.08-.7 8.85 8.85 0 0 0-2.6-.72 16.29 16.29 0 0 0-2.8-.1l-.71.05h-.5a.47.47 0 0 0-.27.47.44.44 0 0 0 .12.27c.16.18.34.38.5.58a11 11 0 0 1 .89 1.26A13.78 13.78 0 0 1 82 71.3a.28.28 0 0 1-.5.24z" fill="#31323d"/><path d="M84 134.61a5.49 5.49 0 0 0-1.2 5.29 6.42 6.42 0 0 1 4.67-3.06s-4.87 7.41.1 12.44c-.46-2.85 3.11-5 3.11-5s-1.49 7.29 4.72 10.11c4.56 2.07 1.76 8.24 1.76 8.24s16.48-11.3 12.44-18.76c0 0 5.08 1.3 4.92 5.39 0 0 6.64-8.86 1.45-16.22" fill="none"/><circle cx="127.34" cy="99.54" fill="#fff" r="14.41"/><g clip-path="url(#m)"><circle cx="124.13" cy="100.38" fill="#ffa127" r="11.67"/><circle cx="123.79" cy="100.59" fill="#31323d" r="9.23"/><circle cx="128.15" cy="92.82" fill="#fff" r="4.91"/></g><circle cx="127.34" cy="99.54" fill="none" r="14.41" stroke="#31323d" stroke-linecap="round" stroke-miterlimit="10" stroke-width="1.111"/><circle cx="67.21" cy="100.83" fill="#fff" r="14.41"/><g clip-path="url(#n)"><circle cx="70.68" cy="101.06" fill="#ffa127" r="11.67"/><circle cx="70.34" cy="101.27" fill="#31323d" r="9.23"/><circle cx="74.7" cy="93.5" fill="#fff" r="4.91"/></g><circle cx="67.21" cy="100.83" fill="none" r="14.41" stroke="#31323d" stroke-linecap="round" stroke-miterlimit="10" stroke-width="1.111"/><path d="M99 113.92a36.68 36.68 0 0 0 4.85 6 21.59 21.59 0 0 0 6.19 4.44 11.62 11.62 0 0 0 3.63 1 9.28 9.28 0 0 0 3.73-.41 10.59 10.59 0 0 0 3.36-1.79 18.09 18.09 0 0 0 2.8-2.67.19.19 0 0 1 .29.26 18.59 18.59 0 0 1-2.76 2.85 11.31 11.31 0 0 1-3.47 2 10.2 10.2 0 0 1-4 .61 12.84 12.84 0 0 1-4-.92 22.91 22.91 0 0 1-6.71-4.41 38.27 38.27 0 0 1-5.33-6 .84.84 0 1 1 1.36-1z" fill="#31323d"/><path d="M75.46 123.23a14.5 14.5 0 0 0 6.76 3 9.73 9.73 0 0 0 6.94-1.51 17 17 0 0 0 5-5.3 29.28 29.28 0 0 0 1.78-3.26c.26-.56.54-1.12.77-1.7s.33-1.21 1-1.62a.65.65 0 0 1 .91.2.67.67 0 0 1 .1.23c.15.75-.29 1.27-.52 1.88s-.57 1.16-.85 1.74a35.41 35.41 0 0 1-2 3.34c-.37.55-.78 1.06-1.17 1.58s-.83 1-1.31 1.47a14.45 14.45 0 0 1-3.11 2.44 10.78 10.78 0 0 1-7.68 1.28 14.94 14.94 0 0 1-6.79-3.56.13.13 0 0 1 0-.19.12.12 0 0 1 .17 0z" fill="#31323d"/><path d="M90.59 111.18a1.66 1.66 0 0 1 .39-1.77c1-1 3.13-2.41 7.08-2.44s5.84 1.34 6.73 2.32a1.64 1.64 0 0 1 .28 1.78 2.3 2.3 0 0 1-2 1.37 4.49 4.49 0 0 0-3.63 1.77 1.59 1.59 0 0 1-.2.24 2 2 0 0 1-2.81-.15s-.81-1.39-3.79-1.62a2.3 2.3 0 0 1-2-1.5zm16.04 20.68a6.81 6.81 0 0 1-1.06 2.12 7.34 7.34 0 0 1-1.8 1.62 8.35 8.35 0 0 1-2.24 1 9 9 0 0 1-2.42.24 9.28 9.28 0 0 1-4.56-1.43 8 8 0 0 1-3.07-3.5.28.28 0 0 1 .14-.37.3.3 0 0 1 .33.08 9.94 9.94 0 0 0 7.22 3.57 8.55 8.55 0 0 0 3.89-.8 7.75 7.75 0 0 0 3.06-2.7.27.27 0 0 1 .38-.09.29.29 0 0 1 .13.26z" fill="#31323d"/><path d="M91.86 132s.27 8.06 7 7.92c6.55-.14 7.41-7.67 7.41-7.67a8.71 8.71 0 0 1-6.64 3.29c-4.2-.07-7.77-3.54-7.77-3.54z" fill="#595959" opacity=".2"/><path d="M108.39 116.22a61.07 61.07 0 0 1 10.06-1.17 50.87 50.87 0 0 1 10.09.61 33.91 33.91 0 0 1 9.6 3A23.63 23.63 0 0 1 146 125a23.54 23.54 0 0 0-7.93-6 33.57 33.57 0 0 0-9.56-2.74 50.36 50.36 0 0 0-10-.33 60.26 60.26 0 0 0-9.85 1.42.55.55 0 0 1-.67-.41.56.56 0 0 1 .42-.67zm19.22-5.48a56.37 56.37 0 0 0-16.78 3.07.56.56 0 0 1-.71-.35.55.55 0 0 1 .34-.7 57 57 0 0 1 17.15-2.02zm-17.69 8.05a14 14 0 0 1 5.21.1 17.58 17.58 0 0 1 4.76 1.91 24.79 24.79 0 0 1 4.07 3 26.77 26.77 0 0 1 3.4 3.74 26.54 26.54 0 0 0-3.58-3.53 24.79 24.79 0 0 0-4.15-2.77 17.08 17.08 0 0 0-4.66-1.57 13 13 0 0 0-4.82.17.56.56 0 0 1-.23-1.09zm-21.16.21c-3.34-.66-6.64-1.31-10-1.69a54 54 0 0 0-10.08-.31 30.13 30.13 0 0 0-9.82 2.15 19.42 19.42 0 0 0-8 6.08 19.5 19.5 0 0 1 7.85-6.33 30.46 30.46 0 0 1 9.89-2.46 56.17 56.17 0 0 1 10.21.07c3.4.3 6.77.86 10.1 1.43a.55.55 0 1 1-.19 1.09zm-19.42-6.52a30.14 30.14 0 0 1 17.45 2.1.56.56 0 0 1 .28.73.55.55 0 0 1-.73.29 29.52 29.52 0 0 0-17-3.12zm17.97 9.16a11 11 0 0 0-4.79-.14 15.63 15.63 0 0 0-4.52 1.87 24 24 0 0 0-4 3 28.83 28.83 0 0 0-3.42 3.73 29 29 0 0 1 3.23-3.93 23.78 23.78 0 0 1 3.89-3.32 16.36 16.36 0 0 1 4.68-2.21 11.81 11.81 0 0 1 5.26-.12.55.55 0 0 1 .44.65.56.56 0 0 1-.66.44h-.06z" fill="#31323d"/></g></svg>