<svg height="200" width="200" xmlns="http://www.w3.org/2000/svg"><clipPath id="a"><path d="M-75-32.5h350v275H-75z"/></clipPath><clipPath id="b"><path d="M209.86 163.22c9-3.86 17.64 5.32 19.52 9.82 6.39 15.31-6.58 25.93-6.58 25.93a52.38 52.38 0 0 1-20.93 11.82c-23.33 7.16-45.14-5.11-56.19-13.17l-4.62-3.32-4.81 18.7 29.35 10.18a113.41 113.41 0 0 0 30.48 1.56c13.06-1.12 24.87-3.87 35.4-13.92 12.45-11.88 19.82-31.88 11-49.72-5.92-12-20.23-25.49-36.41-22.88-11.85 1.92-25.41 12.56-24.31 24.82.76 8.52 8.59 17.59 17.72 17.82 6.43.16 14.92-4 14.91-9.77 0-4.6-5.43-9.73-13.43-10.58"/></clipPath><linearGradient id="c" gradientUnits="userSpaceOnUse" x1="189.37" x2="189.37" y1="231.84" y2="194.85"><stop offset="0" stop-color="gray"/><stop offset=".27" stop-color="#7d7d7d"/><stop offset=".46" stop-color="#747474"/><stop offset=".64" stop-color="#646464"/><stop offset=".8" stop-color="#4d4d4d"/><stop offset=".95" stop-color="#303030"/><stop offset="1" stop-color="#242424"/></linearGradient><linearGradient id="d" gradientUnits="userSpaceOnUse" x1="217.99" x2="217.99" y1="184.43" y2="118.74"><stop offset="0" stop-color="#fff" stop-opacity="0"/><stop offset=".72" stop-color="#fff"/></linearGradient><clipPath id="e"><path d="M183.06 219.81c-4.83-3.3-14.86-6.92-20.19-8.48h-.09a27.84 27.84 0 0 0 .71-17.5l-15.1-49.14a13.62 13.62 0 0 0 4.63-2.52c-1.82.86-4.39-.9-6.16-2.45l-.25-.82c6.14 3 11.74-5.12 11.74-5.12-5.1.62-11.44-3.5-15.32-6.52l-.42-1.36c4.08.77 8.29-2.76 8.29-2.76-2.42.08-5.05-2-7.38-4.59a33.48 33.48 0 0 1-7-12.52l-6.15-20a27.2 27.2 0 0 0-5.3-10l7.23-11.69a1.69 1.69 0 0 0-1.35-2.57c-4.49-.22-11.78 5.28-14.53 7.44a27 27 0 0 0-6.49-2.27 41.83 41.83 0 0 1 2.46-4.31 1.15 1.15 0 0 0-1.26-1.73 24.33 24.33 0 0 0-7.26 3.92.14.14 0 0 1-.22-.14c.46-1.87 2.37-10 .85-10.72s-4.07 5.91-5 8.39a.14.14 0 0 1-.27-.06c.19-2.74.54-10.26-1.46-9.88-2.21.42-6.31 9.85-7.09 11.69a.13.13 0 0 1-.25 0c-.52-1.31-2.57-6.26-3.28-4.53s.07 4.87.38 6.1a.14.14 0 0 1-.23.14c-2.13-1.91-5.78-2-8.3-1.71a1.15 1.15 0 0 0-.7 2 12.14 12.14 0 0 1 1.09 1.27A27.16 27.16 0 0 0 72 70.55l-.59-.39c-4.66-3.84-11.89-8.71-14.69-4.79a1.68 1.68 0 0 0-.09 1.8l6.79 12.14a27 27 0 0 0-3.7 10.53l-3.42 18a30.73 30.73 0 0 1-5.55 12.66c-2 2.66-4.35 4.89-6.75 5.13 0 0 4.66 2.94 8.6 1.62l-.27 1.43c-3.44 3.51-9.16 8.42-14.28 8.5 0 0 6.36 7 12 3.72l-.24 1.1c-1.52 1.65-3.6 3.34-5.35 2.79a13.83 13.83 0 0 0 4.48 1.79l-9.74 51.21A27.89 27.89 0 0 0 40.62 211h-.07c-4.28 1-14.65 4.87-20.72 8.79-3 1.92-1.13 6.27 2.61 6.2l30-.58c.51.31 1 .61 1.56.89v.37c.05 2.62-.75 4.76-3.36 4.89a3.55 3.55 0 0 0-3.44 2.36c-.53 2.42.66 4.37 3.06 4.54l9.46.57a8 8 0 0 0 7.28-3.81 8.51 8.51 0 0 0 1-2.69l.56-3h59.91l.38 2.32a8.05 8.05 0 0 0 4.85 6.1 5.93 5.93 0 0 0 2.5.45l10.31-.34c2.48-.25 3.38-1.77 3.13-4.15a3.09 3.09 0 0 0-2.75-2.87 3 3 0 0 1-3.15-2.46 27.69 27.69 0 0 0 7.33-3.14l29.37.56c3.76.08 5.56-4.19 2.62-6.19z"/></clipPath><clipPath id="f"><path d="M183.06 219.81c-4.83-3.3-14.86-6.92-20.19-8.48h-.09a27.84 27.84 0 0 0 .71-17.5l-15.1-49.14a13.62 13.62 0 0 0 4.63-2.52c-1.82.86-4.39-.9-6.16-2.45l-.25-.82c6.14 3 11.74-5.12 11.74-5.12-5.1.62-11.44-3.5-15.32-6.52l-.42-1.36c4.08.77 8.29-2.76 8.29-2.76-4.84.16-10.52-8.31-12.91-12.27L130.36 86a27.2 27.2 0 0 0-5.3-10l8.23-13.31c-3.64-3.59-13.56 3.89-16.88 6.49a27 27 0 0 0-6.49-2.27 41.66 41.66 0 0 1 2.45-4.3 1.15 1.15 0 0 0-1.25-1.74 24.14 24.14 0 0 0-7.26 3.92.14.14 0 0 1-.22-.14c.47-1.88 2.37-10 .85-10.72s-4.07 5.91-5 8.38a.14.14 0 0 1-.27 0c.19-2.74.54-10.26-1.46-9.88-2.21.42-6.3 9.84-7.08 11.68a.14.14 0 0 1-.26 0c-.52-1.32-2.57-6.26-3.28-4.53s.07 4.87.38 6.1a.14.14 0 0 1-.23.14c-2.13-1.91-5.78-2-8.3-1.71a1.15 1.15 0 0 0-.7 2 12.14 12.14 0 0 1 1.09 1.27A27.16 27.16 0 0 0 72 70.55l-.59-.39c-5-4.12-13-9.43-15.23-3.78l7.24 12.93a27 27 0 0 0-3.7 10.53l-4.36 22.91c-1.94 4-6.57 12.39-11.36 12.88 0 0 4.66 2.94 8.6 1.62l-.27 1.43c-3.44 3.51-9.16 8.42-14.28 8.5 0 0 6.36 7 12 3.72l-.24 1.1c-1.52 1.65-3.6 3.34-5.35 2.79a13.83 13.83 0 0 0 4.48 1.79l-9.74 51.21A27.89 27.89 0 0 0 40.62 211h-.07c-4.28 1-14.65 4.87-20.72 8.79-3 1.92-1.13 6.27 2.61 6.2l30-.58c.51.31 1 .61 1.56.89v.37c.05 2.62-.75 4.76-3.36 4.89a3.55 3.55 0 0 0-3.44 2.36c-.53 2.42.66 4.37 3.06 4.54l9.46.57a8 8 0 0 0 7.28-3.82 8.37 8.37 0 0 0 1-2.68l.56-3h59.91l.38 2.32a8.05 8.05 0 0 0 4.85 6.1 5.93 5.93 0 0 0 2.5.45l10.31-.34c2.48-.25 3.38-1.77 3.13-4.15a3.09 3.09 0 0 0-2.75-2.87 3 3 0 0 1-3.15-2.46 27.69 27.69 0 0 0 7.33-3.14l29.37.56c3.76.08 5.56-4.19 2.62-6.19z"/></clipPath><path d="M-75-32.5h350v275H-75z" fill="#ffdef9"/><g clip-path="url(#a)"><g clip-path="url(#b)"><path d="M128.13 136.81h124.96v88.97H128.13z" fill="#85828b"/><path d="M159 204.24c14.24 6.92 9.54 13.85 26.52 15.15 27.71 4.33 43.84-5.58 52-16.1l13.34-5.91-12.78 34.46-110.19-1.21 7.19-35.78s16.29 5.68 23.92 9.39z" fill="url(#c)" opacity=".2"/><path d="M181.78 163s10.26-25.15 36.87-15.26c26.46 9.84 27.12 36.7 27.12 36.7l17.87-35.1-31.15-28.28-45.78-2.31-14.37 16.48z" fill="url(#d)" opacity=".5"/></g><g clip-path="url(#b)"><path d="M128.13 136.81h124.96v88.97H128.13z" fill="#fff"/><g fill="#ed88bb"><path d="M181.6 193.34c-.93 0-1.87 0-2.81-.13a28.73 28.73 0 0 1-18.07-8.35 21.8 21.8 0 0 1 3.07-33.86 29.62 29.62 0 0 1 37.35 3.39 21.8 21.8 0 0 1-3.07 33.84 28.45 28.45 0 0 1-16.47 5.11zm-1.34-38.1a19.06 19.06 0 0 0-11.08 3.38 12.48 12.48 0 0 0-1.79 19.73 20.31 20.31 0 0 0 25.29 2.3 12.51 12.51 0 0 0 1.79-19.74 19.48 19.48 0 0 0-12.24-5.58c-.66-.06-1.32-.09-1.97-.09zm45.36 25.39l-6.48-6.7c5-4.87 6-9.29 6-11.48.18-4.42-2.14-9.31-6.38-13.42-4.86-4.7-11.82-8.07-19.61-9.49l1.67-9.16c9.58 1.74 18.26 6 24.42 12s9.51 13.32 9.21 20.5c-.11 3.54-1.45 10.62-8.83 17.75zm-4.12 42.72a33.9 33.9 0 0 1-20.88-6.73 31.71 31.71 0 0 1-9.2-11.58 39.57 39.57 0 0 1-3.13-9.58l11.71-2.29c.83 4.22 2.87 10.08 7.9 14 4.12 3.18 9.79 4.65 16 4.13a37.27 37.27 0 0 0 19.52-8.08l7.41 9.4a48.51 48.51 0 0 1-25.93 10.61c-1.14.07-2.28.12-3.4.12z"/><path d="M202.55 253.83a66.47 66.47 0 0 1-12.77-1.26 64.52 64.52 0 0 1-14.37-4.63 61.28 61.28 0 0 1-27.85-25.72 64.32 64.32 0 0 1-6.12-15.38 65.61 65.61 0 0 1-2.09-19l26.58 1.31a39.47 39.47 0 0 0 1.28 11.07 35 35 0 0 0 27.73 26.25 38 38 0 0 0 10.32.65l2.3 26.52c-1.4.1-3.08.19-5.01.19z"/></g><path d="M159 204.24c14.24 6.92 9.54 13.85 26.52 15.15 27.71 4.33 43.84-5.58 52-16.1l13.34-5.91-12.78 34.46-110.19-1.21 7.19-35.78s16.29 5.68 23.92 9.39z" fill="url(#c)" opacity=".2"/><path d="M181.78 163s10.26-25.15 36.87-15.26c26.46 9.84 27.12 36.7 27.12 36.7l17.87-35.1-31.15-28.28-45.78-2.31-14.37 16.48z" fill="url(#d)" opacity=".5"/></g><path d="M210 162.41a12.27 12.27 0 0 1 6.95-.8 16.16 16.16 0 0 1 6.37 2.68 23.3 23.3 0 0 1 5 4.64 19.15 19.15 0 0 1 1.94 2.86 25.25 25.25 0 0 1 1.24 3.21 21.74 21.74 0 0 1-.12 13.51 27.44 27.44 0 0 1-7.54 11.25 53.39 53.39 0 0 1-19.64 11.52c-1.8.64-3.67 1.05-5.52 1.54a9.53 9.53 0 0 1-1.41.29l-1.41.23c-.95.13-1.89.36-2.84.41a49.94 49.94 0 0 1-5.73.26c-1 0-1.91 0-2.86-.07l-2.86-.25a61.72 61.72 0 0 1-11.18-2.34 71.71 71.71 0 0 1-10.62-4.15 92.13 92.13 0 0 1-9.95-5.55c-3.2-2.06-6.2-4.35-9.27-6.52l1.3-.47-4.84 18.76-.54-1L166 222.66h-.12a113 113 0 0 0 33.89 1.21 64.86 64.86 0 0 0 16.46-3.76 44.7 44.7 0 0 0 14.23-8.8 47.58 47.58 0 0 0 15.38-29.17 37.39 37.39 0 0 0-1.79-16.53c-.11-.33-.2-.67-.33-1l-.42-1-.83-1.93a39.81 39.81 0 0 0-2-3.68 44.58 44.58 0 0 0-5-6.74c-.9-1.08-1.93-2-2.92-3s-2.08-1.88-3.21-2.71-2.28-1.62-3.44-2.4a36.32 36.32 0 0 0-3.7-2c-.64-.27-1.26-.61-1.92-.82l-2-.68c-.66-.22-1.35-.34-2-.51l-1-.24-1-.14a25.11 25.11 0 0 0-8.25.16 32.8 32.8 0 0 0-14.87 7.22 26.55 26.55 0 0 0-5.49 6.2 18 18 0 0 0-2.71 7.64 16 16 0 0 0 1.27 8 21.22 21.22 0 0 0 4.57 6.79 18.38 18.38 0 0 0 6.8 4.4 14.66 14.66 0 0 0 8 .5 18 18 0 0 0 7.4-3.3 9 9 0 0 0 2.54-2.94 5.35 5.35 0 0 0 .47-3.66 10.58 10.58 0 0 0-4.85-6.18 19.26 19.26 0 0 0-3.72-1.85 22.31 22.31 0 0 0-4.08-1 .33.33 0 0 1 .08-.66 19.24 19.24 0 0 1 8.33 2.53 14.56 14.56 0 0 1 3.46 2.81 9.49 9.49 0 0 1 2.2 4 6.91 6.91 0 0 1-.49 4.67 10.57 10.57 0 0 1-2.91 3.57 19.47 19.47 0 0 1-8.09 3.68 18.58 18.58 0 0 1-4.48.36 16.35 16.35 0 0 1-4.43-.89 19.55 19.55 0 0 1-7.45-4.83 22.72 22.72 0 0 1-4.91-7.36 17.92 17.92 0 0 1-1.37-8.78 19.83 19.83 0 0 1 3-8.37 28.24 28.24 0 0 1 5.83-6.59 34.58 34.58 0 0 1 15.64-7.59 26.8 26.8 0 0 1 8.8-.16l1.09.14 1.08.26c.71.18 1.44.31 2.13.54l2.08.71c.71.23 1.35.58 2 .87a37.71 37.71 0 0 1 3.88 2c1.21.82 2.46 1.58 3.59 2.51s2.24 1.85 3.33 2.81 2.1 2 3 3.13a46.67 46.67 0 0 1 5.21 7A38.26 38.26 0 0 1 244 161l.88 2 .43 1c.14.34.23.69.35 1a39 39 0 0 1 1.87 17.27 49.23 49.23 0 0 1-15.91 30.22 46.76 46.76 0 0 1-14.76 9.12 66.51 66.51 0 0 1-16.86 3.87 115 115 0 0 1-34.39-1.22h-.12L136 214l-.73-.26.19-.74 4.84-18.77.3-1.17 1 .7c3.08 2.18 6.07 4.46 9.2 6.47a89.62 89.62 0 0 0 9.76 5.45 72 72 0 0 0 10.38 4.06 60.59 60.59 0 0 0 10.87 2.26l2.76.24c.93.09 1.86 0 2.78.07a51.23 51.23 0 0 0 5.54-.25c.93-.06 1.83-.27 2.75-.4l1.37-.22a8.76 8.76 0 0 0 1.35-.29c1.79-.47 3.6-.86 5.35-1.48a51.73 51.73 0 0 0 19-11.15h.05a25.6 25.6 0 0 0 7-10.49 20 20 0 0 0 .11-12.49 23.14 23.14 0 0 0-1.13-2.93A17.22 17.22 0 0 0 227 170a21.92 21.92 0 0 0-4.66-4.31 14.82 14.82 0 0 0-5.72-2.42 10.64 10.64 0 0 0-6 .7.84.84 0 0 1-1.1-.44.83.83 0 0 1 .48-1.12z" fill="#31323d"/><g clip-path="url(#e)"><path d="M17.28 51.65h170.73V239.5H17.28z" fill="#fff"/><path d="M65.89 243.36l13.76-69.43a19.88 19.88 0 0 1 19.17-16 19.89 19.89 0 0 1 19.93 16.35l12.07 66.66z" fill="#ffebe9"/><g fill="#ed88bb"><path d="M136 63s-4.26-2.92-11.45 4.65l-3.79 4.55 6.3 5.22zm-83.11 4.53s3.09-2.13 8-.09a13.76 13.76 0 0 1 5.33 4l1.67 2-4.19 6.12zM68 74.1l8 4.88c9.55 5.81 8.4-.25 7.62-3.11s-4.94-9.11-4.94-9.11zm18.7-10.45s1.06 20.64 7.57 20.85 5-21.46 5-21.46l2.66-13.92-18.23.59z"/><path d="M109.84 66.64S103.44 82 107.66 84s13.63-12.61 13.63-12.61zM39 144.5s7 1.51 10.84 2.28a24.51 24.51 0 0 0 5.73 4.16c5.13 2.57 5.67 7.22 3.36 9.66-2.92 3.08-11.54-.15-14.32-2s-12.88-9.71-12.88-9.71z"/><path d="M26.3 142.38s16.79 25 28.36 30.41c7.16 3.6 7.91 10.08 4.69 13.49-4.07 4.3-16.1-.21-20-2.76s-18-13.54-18-13.54zm132.32-13.3s-7.38 20.26-14.49 26c-4.36 3.73-3.76 8.37-.93 10.19 3.57 2.28 11.16-2.93 13.42-5.37s10.17-12.51 10.17-12.51zm13.76 20.4s-14.74 21.09-25.6 27.82c-6.71 4.39-6.71 10.92-3.12 13.94 4.53 3.8 16-2.06 19.54-5s16.31-15.51 16.31-15.51zm11.77 18.44s-18.23 25.88-30.4 31.88c-3.23 1.69-4.31 4.89-5.23 7.17a7.52 7.52 0 0 0 1.41 8.2c2.13 2.17 6.22 2.11 10.33 1.15 0 0 1.88-4 2.77-6.31 1.8-4.59 26.87-12.89 26.87-12.89zm-152.26 20.2c4.28-2.9 11.48 2.17 13.55 5.91 1.53 2.78 1.27 4.72 4.86 9.73 2.57 3.58 3.16 8.78 2.47 10-1.45 2.66-13.32-.69-18.19-7.11-3.51-4.59-7.53-15.25-2.69-18.53z"/></g></g><g clip-path="url(#f)" fill="#7f7f7f" opacity=".2"><path d="M81.19 70.27c-9.16 2.65-15 13-18.16 26.9-.74 3.25-1.42 7.09-2.06 11.32-1.68 11-3.16 24.58-5 37.21-2.37 3.72-3.27 4.43-4 8.51-2.29 13.14-2.33 28.86-3.15 35.41a104.82 104.82 0 0 0-.77 11v.38c2.64 2.92 5.35 10 5.9 19.85l.15 5.5s-3.52-.08-9.09-.08c-7 0-12.45-12.55-8.89-31.24 3.19-16.79-7.63-102.8-7.63-102.8l31.67-5a27.11 27.11 0 0 1 19.2-20zm62.99 145.23s3.36-10.26 7.45-14c-4.43 8.42 1.58 10.41 3.15 9.85 6-2.15 8.42-7.48 8.9-16.84l7.33 13s-6.18 28.75-22.91 24l-4.34-2z"/></g><g clip-path="url(#f)" opacity=".2"><path d="M109.77 67.21s6.63 3.77 9.1 7.28 4.95 9.69 7.37 20.32c6.61 29.05 25.76 76.71 30.93 99.7s-9.12 32.11-9.12 32.11l6.86-4s7.08-8.4 8.14-12.09c2.33-8.07 15.61-3.7 13.16-16.58-3.55-18.69-34.32-109-34.32-109s-13.86-3.36-17-8.9c-2.32-4.13-8.21-7.26-13.93-9z" fill="#fff"/></g><path d="M148.58 145l15 48.7a28 28 0 0 1-19.68 34.69m-89.59-2.25a28 28 0 0 1-14.72-28.45l9.66-50.81" fill="none" stroke="#31323d" stroke-linecap="round" stroke-miterlimit="10" stroke-width="1.4"/><path d="M71.73 70.4c-4.65-3.82-11.86-8.68-14.65-4.77a1.68 1.68 0 0 0-.1 1.8l6.78 12.1" fill="none" stroke="#31323d" stroke-linecap="round" stroke-miterlimit="10" stroke-width="1.344"/><path d="M56.19 145.65a8.84 8.84 0 0 1-2.77 1.35 9.42 9.42 0 0 1-3.08.3 13.15 13.15 0 0 1-3.05-.58 14.44 14.44 0 0 1-2.87-1.25.74.74 0 0 1 .63-1.33 2.4 2.4 0 0 0 1.79-.31 9.17 9.17 0 0 0 1.81-1.3 21.45 21.45 0 0 0 3-3.56l1.17.9a8.52 8.52 0 0 1-3.62 2.39 7.9 7.9 0 0 1-4.34 0 13 13 0 0 1-3.8-1.82 18.82 18.82 0 0 1-3.19-2.68.73.73 0 0 1 .51-1.22 11.8 11.8 0 0 0 4.84-1.37 24.34 24.34 0 0 0 4.41-2.84 44 44 0 0 0 4-3.52 52.75 52.75 0 0 0 3.58-3.92.72.72 0 1 1 1.12.91 7.31 7.31 0 0 1-2.75 2.1 8.1 8.1 0 0 1-3.39.53 12.2 12.2 0 0 1-3.25-.67 16.11 16.11 0 0 1-3-1.38.72.72 0 0 1-.24-1 .7.7 0 0 1 .53-.34 6.37 6.37 0 0 0 3.45-1.93 20.82 20.82 0 0 0 2.74-3.36 39.47 39.47 0 0 0 4-7.84 45.2 45.2 0 0 0 2.29-8.54l1.68-8.82.84-4.41.39-2.25c.19-.74.35-1.5.57-2.23A27.8 27.8 0 0 1 79.13 67a.7.7 0 1 1 .39 1.34A26.34 26.34 0 0 0 61.64 86c-.21.7-.36 1.41-.54 2.12l-.38 2.18-.84 4.42-1.68 8.85a47 47 0 0 1-2.34 8.79 41.61 41.61 0 0 1-4.17 8.13 21.77 21.77 0 0 1-2.94 3.59 7.64 7.64 0 0 1-4.29 2.33l.31-1.33a14 14 0 0 0 2.69 1.23 10.29 10.29 0 0 0 2.86.6 6.82 6.82 0 0 0 2.75-.42 6 6 0 0 0 2.17-1.67l1.14.9a52.72 52.72 0 0 1-3.7 4 44.4 44.4 0 0 1-4.1 3.64 25.85 25.85 0 0 1-4.65 3 13.18 13.18 0 0 1-5.47 1.64l.54-1.22a18 18 0 0 0 2.91 2.44 11.31 11.31 0 0 0 3.38 1.62 6.48 6.48 0 0 0 3.52 0 7 7 0 0 0 2.95-2h.05a.73.73 0 0 1 1 0 .74.74 0 0 1 .08.93 23.47 23.47 0 0 1-3.27 3.84 10.11 10.11 0 0 1-2.14 1.53 3.81 3.81 0 0 1-2.91.4l.64-1.32a12.85 12.85 0 0 0 2.47 1.3 11.55 11.55 0 0 0 2.72.75 8.77 8.77 0 0 0 2.8-.06 8 8 0 0 0 2.64-1 .29.29 0 0 1 .38.11.28.28 0 0 1-.03.33zm54.67-79.06a28.56 28.56 0 0 1 8.57 3.63 28 28 0 0 1 6.89 6.26 27.49 27.49 0 0 1 4.42 8.18c.94 3 1.77 5.84 2.65 8.76l2.62 8.73c.44 1.46.84 2.91 1.36 4.3a37.71 37.71 0 0 0 6.72 11.55 20.58 20.58 0 0 0 3.17 3 6.31 6.31 0 0 0 3.71 1.47.74.74 0 0 1 .76.72.78.78 0 0 1-.28.6 15.52 15.52 0 0 1-2.78 1.77 11.71 11.71 0 0 1-3.14 1.1 8 8 0 0 1-3.43-.07 7.33 7.33 0 0 1-3-1.72.74.74 0 1 1 1-1.12 53.47 53.47 0 0 0 4.07 3.4 42.93 42.93 0 0 0 4.4 3 24.74 24.74 0 0 0 4.75 2.23 11.94 11.94 0 0 0 5 .71.72.72 0 0 1 .65 1.13 19.5 19.5 0 0 1-2.8 3.07 12.9 12.9 0 0 1-3.52 2.3 7.93 7.93 0 0 1-4.29.59 8.53 8.53 0 0 1-3.89-1.88l1-1a23.57 23.57 0 0 0 3.47 3.15 9.09 9.09 0 0 0 2 1.08 2.53 2.53 0 0 0 1.9.08.63.63 0 0 1 .83.3.64.64 0 0 1-.17.75 13.57 13.57 0 0 1-5.54 2.68 8.9 8.9 0 0 1-3.09.13 8.27 8.27 0 0 1-2.92-.94.28.28 0 0 1 .22-.51 8.6 8.6 0 0 0 2.76.64 9.09 9.09 0 0 0 2.79-.3 12 12 0 0 0 2.61-1.06 13.76 13.76 0 0 0 2.32-1.59l.68 1a3.7 3.7 0 0 1-2.85 0 10.6 10.6 0 0 1-2.32-1.2 21.72 21.72 0 0 1-3.76-3.34.7.7 0 0 1 .05-1 .71.71 0 0 1 .88 0 7 7 0 0 0 3.21 1.56 6.45 6.45 0 0 0 3.5-.5 11.39 11.39 0 0 0 3.13-2.06 17.93 17.93 0 0 0 2.56-2.82l.68 1.12a13.1 13.1 0 0 1-5.62-.77 26 26 0 0 1-5-2.34 44.15 44.15 0 0 1-4.56-3.05 53.61 53.61 0 0 1-4.21-3.51l1-1.07a6.12 6.12 0 0 0 2.37 1.35 6.79 6.79 0 0 0 2.77 0 10.87 10.87 0 0 0 2.75-1 14.76 14.76 0 0 0 2.49-1.57l.6 1.49a7.76 7.76 0 0 1-4.63-1.77 22 22 0 0 1-3.4-3.27 37.15 37.15 0 0 1-5.13-7.72 46.06 46.06 0 0 1-3.22-8.65L132 93.82c-.87-2.9-1.71-5.87-2.61-8.71a26.13 26.13 0 0 0-4.2-7.77 26.62 26.62 0 0 0-6.54-5.94 26.93 26.93 0 0 0-8.11-3.4.7.7 0 1 1 .33-1.36z" fill="#31323d"/><path d="M83.69 134.21a5.53 5.53 0 0 0-1.2 5.33 6.46 6.46 0 0 1 4.7-3.08s-4.91 7.47.1 12.53c-.47-2.87 3.14-5 3.14-5s-1.5 7.34 4.75 10.19c4.6 2.09 1.78 8.3 1.78 8.3s16.61-11.39 12.54-18.91c0 0 5.12 1.31 5 5.43 0 0 6.69-8.93 1.46-16.35" fill="none"/><circle cx="67.69" cy="99.61" fill="#fff" r="14.53"/><circle cx="67.69" cy="99.61" fill="none" r="14.53" stroke="#31323d" stroke-linecap="round" stroke-miterlimit="10" stroke-width="1.12"/><circle cx="66.78" cy="95.12" fill="#f14bd3" r="8.47"/><circle cx="66.78" cy="95.12" fill="#31323d" r="6.09"/><circle cx="71.49" cy="93.85" fill="#fff" r="2.06"/><path d="M53.8 95.33A14.54 14.54 0 0 1 80.1 92a58.89 58.89 0 0 0-26.3 3.3z" fill="#fff"/><path d="M53.8 95.33A14.54 14.54 0 0 1 80.1 92a58.89 58.89 0 0 0-26.3 3.3z" fill="none" stroke="#31323d" stroke-linecap="round" stroke-miterlimit="10" stroke-width="1.12"/><circle cx="126.45" cy="97.05" fill="#fff" r="14.53"/><circle cx="126.45" cy="97.05" fill="none" r="14.53" stroke="#31323d" stroke-linecap="round" stroke-miterlimit="10" stroke-width="1.12"/><circle cx="127.25" cy="93.58" fill="#f14bd3" r="8.47"/><circle cx="127.25" cy="93.58" fill="#31323d" r="6.09"/><circle cx="132.09" cy="93.07" fill="#fff" r="2.07"/><path d="M140.34 92.78a14.54 14.54 0 0 0-26.3-3.3 58.51 58.51 0 0 1 26.3 3.3z" fill="#fff"/><path d="M140.34 92.78a14.54 14.54 0 0 0-26.3-3.3 58.51 58.51 0 0 1 26.3 3.3z" fill="none" stroke="#31323d" stroke-linecap="round" stroke-miterlimit="10" stroke-width="1.12"/><path d="M98.76 113.35a37.3 37.3 0 0 0 4.89 6 21.72 21.72 0 0 0 6.24 4.47 12.11 12.11 0 0 0 3.66 1 9.61 9.61 0 0 0 3.76-.42 11 11 0 0 0 3.39-1.8 18 18 0 0 0 2.82-2.7.19.19 0 0 1 .28 0 .2.2 0 0 1 0 .27 18.54 18.54 0 0 1-2.79 2.88 11.48 11.48 0 0 1-3.5 2 10.12 10.12 0 0 1-4.05.62 12.75 12.75 0 0 1-4-.93 22.72 22.72 0 0 1-6.77-4.45 37.88 37.88 0 0 1-5.36-6.07.84.84 0 1 1 1.37-1z" fill="#31323d"/><path d="M75.09 122.73a14.47 14.47 0 0 0 6.81 3 9.84 9.84 0 0 0 7-1.51 17 17 0 0 0 5-5.34 30.78 30.78 0 0 0 1.8-3.29c.26-.57.54-1.13.78-1.71s.33-1.22 1-1.64a.66.66 0 0 1 .92.2.67.67 0 0 1 .1.23c.15.76-.3 1.29-.52 1.9s-.58 1.17-.86 1.75a35 35 0 0 1-2 3.38c-.37.54-.78 1.06-1.17 1.58s-.84 1-1.33 1.48a14.45 14.45 0 0 1-3.13 2.47 10.89 10.89 0 0 1-7.74 1.29 15.2 15.2 0 0 1-6.85-3.59.14.14 0 0 1 0-.19.14.14 0 0 1 .18 0z" fill="#31323d"/><path d="M90.33 110.59a1.7 1.7 0 0 1 .4-1.79c1-1 3.15-2.43 7.14-2.45s5.88 1.35 6.78 2.33a1.66 1.66 0 0 1 .28 1.8 2.32 2.32 0 0 1-2 1.38 4.51 4.51 0 0 0-3.66 1.78 1.64 1.64 0 0 1-.21.25 2 2 0 0 1-2.84-.16s-.81-1.39-3.82-1.63a2.28 2.28 0 0 1-2-1.51zm16.17 20.84a6.54 6.54 0 0 1-1.06 2.15 7.68 7.68 0 0 1-1.82 1.63 8.84 8.84 0 0 1-2.26 1 9.11 9.11 0 0 1-7-1.2 8.25 8.25 0 0 1-3.1-3.53.29.29 0 0 1 .14-.38.31.31 0 0 1 .34.08 10 10 0 0 0 7.27 3.6 8.56 8.56 0 0 0 3.93-.81 8.47 8.47 0 0 0 1.7-1.12 8.93 8.93 0 0 0 1.38-1.6.28.28 0 0 1 .5.23z" fill="#31323d"/><path d="M91.62 131.52s.27 8.13 7.09 8c6.6-.14 7.47-7.74 7.47-7.74a8.77 8.77 0 0 1-6.69 3.33c-4.27-.03-7.87-3.59-7.87-3.59z" fill="#595959" opacity=".2"/><path d="M108.28 115.67a61 61 0 0 1 10.14-1.18 50.88 50.88 0 0 1 10.17.62 33.83 33.83 0 0 1 9.68 3.06 23.77 23.77 0 0 1 7.87 6.3 23.49 23.49 0 0 0-8-6 33.4 33.4 0 0 0-9.64-2.77 50.41 50.41 0 0 0-10-.33 60.16 60.16 0 0 0-9.93 1.43.56.56 0 0 1-.25-1.09zm19.37-5.52a57 57 0 0 0-16.91 3.09.57.57 0 0 1-.72-.35.56.56 0 0 1 .35-.71 57.6 57.6 0 0 1 17.28-2.03zm-17.83 8.11a14.25 14.25 0 0 1 5.25.1 18.26 18.26 0 0 1 4.81 1.92 25.63 25.63 0 0 1 4.1 3.07 27.15 27.15 0 0 1 3.42 3.77 27 27 0 0 0-3.61-3.56 25.36 25.36 0 0 0-4.18-2.79 17.39 17.39 0 0 0-4.7-1.59 13.17 13.17 0 0 0-4.85.18.57.57 0 0 1-.66-.44.55.55 0 0 1 .43-.66zm-21.33.22c-3.36-.67-6.69-1.32-10.07-1.71a56.7 56.7 0 0 0-10.17-.34 30.57 30.57 0 0 0-9.9 2.17 19.65 19.65 0 0 0-8 6.13 19.65 19.65 0 0 1 7.91-6.38 30.88 30.88 0 0 1 10-2.48 56.15 56.15 0 0 1 10.29.07c3.42.3 6.82.87 10.18 1.44a.56.56 0 0 1 .46.65.55.55 0 0 1-.65.45zm-19.57-6.58A30.34 30.34 0 0 1 86.5 114a.57.57 0 0 1 .29.74.55.55 0 0 1-.74.28 29.79 29.79 0 0 0-17.13-3.12zM87 121.14a11.12 11.12 0 0 0-4.8-.14 15.74 15.74 0 0 0-4.6 1.89 23.52 23.52 0 0 0-4 3.07 29.23 29.23 0 0 0-3.44 3.76 28.64 28.64 0 0 1 3.25-4 24 24 0 0 1 3.92-3.34 16.52 16.52 0 0 1 4.67-2.21 12 12 0 0 1 5.31-.12.56.56 0 0 1-.23 1.1z" fill="#31323d"/><path d="M116.6 69.41c2.74-2.15 10-7.64 14.48-7.42a1.68 1.68 0 0 1 1.35 2.56l-7.21 11.66" fill="none" stroke="#31323d" stroke-linecap="round" stroke-miterlimit="10" stroke-width="1.344"/><path d="M81.21 70.64c-.55-.82-1.11-1.61-1.7-2.36-.3-.37-.61-.72-.93-1.06-.16-.18-.32-.33-.49-.5a1.73 1.73 0 0 1-.52-1 1.85 1.85 0 0 1 1.07-1.94 1.9 1.9 0 0 1 .57-.14h1.14a17.68 17.68 0 0 1 3.08.09 10.13 10.13 0 0 1 3 .84 6.63 6.63 0 0 1 1.4.89l.12.09a.62.62 0 0 0-.73 0 .63.63 0 0 0-.21.35v.23-.19l-.17-.74a19 19 0 0 1-.44-3 8.19 8.19 0 0 1 .06-1.63 4.27 4.27 0 0 1 .22-.87 1.54 1.54 0 0 1 .4-.6 1.09 1.09 0 0 1 .54-.26 1.22 1.22 0 0 1 .56.06 2.22 2.22 0 0 1 .87.72 7.07 7.07 0 0 1 .48.68c.27.45.51.91.74 1.36s.43.92.63 1.38l.3.69.14.35v.09a.58.58 0 0 0-.25-.3.64.64 0 0 0-.79.1.45.45 0 0 0-.11.17v-.09l.08-.17.14-.34.3-.69.61-1.36c.42-.9.84-1.8 1.29-2.69a31.5 31.5 0 0 1 3.12-5.21A5.8 5.8 0 0 1 97 52.22a2 2 0 0 1 1.16-.39 1.61 1.61 0 0 1 1.23.7 4.61 4.61 0 0 1 .67 1.69 14.44 14.44 0 0 1 .22 1.55 44.91 44.91 0 0 1 0 6l-.05.75a.66.66 0 0 0-.1-.38.59.59 0 0 0-.34-.27.65.65 0 0 0-.77.27c-.09.18 0 .06 0 0v-.09l.08-.05.56-1.39c.38-.92.78-1.83 1.21-2.74a22.85 22.85 0 0 1 1.47-2.69 6 6 0 0 1 1.09-1.31 1.66 1.66 0 0 1 1.28-.42 1.48 1.48 0 0 1 1.07 1 5 5 0 0 1 .26 1.74c0 .53 0 1-.08 1.55-.09 1-.25 2-.43 3s-.38 2-.6 2.93l-.35 1.33v-.22a.54.54 0 0 0-.2-.34.59.59 0 0 0-.73 0l.3-.22.61-.45a25.75 25.75 0 0 1 5.33-2.93l.74-.25a4.38 4.38 0 0 1 .88-.21 1.83 1.83 0 0 1 1.84 1.23 1.8 1.8 0 0 1 0 1.17 2.24 2.24 0 0 1-.24.49l-.2.3-.8 1.23a37.06 37.06 0 0 0-2.8 5.09.27.27 0 0 1-.37.14.27.27 0 0 1-.16-.31 21.31 21.31 0 0 1 2.22-5.56l.75-1.3.2-.32c.06-.11.07-.11.08-.17a.39.39 0 0 0 0-.28.45.45 0 0 0-.44-.3 4 4 0 0 0-.55.15l-.66.23a24.1 24.1 0 0 0-5 2.8l-.59.42-.29.22a.86.86 0 0 1-1.07 0 .84.84 0 0 1-.3-.49 1.14 1.14 0 0 1 0-.41l.33-1.42c.21-1 .41-1.91.57-2.87s.32-1.92.4-2.87a13.22 13.22 0 0 0 .06-1.4 3.46 3.46 0 0 0-.15-1.17c0-.15-.1-.08.08 0s.06 0-.06.1a5.14 5.14 0 0 0-.78 1 22.23 22.23 0 0 0-1.35 2.51c-.41.88-.79 1.77-1.16 2.68l-.54 1.36-.06.17v.08l-.1.22a.93.93 0 0 1-1.09.39 1 1 0 0 1-.48-.49.94.94 0 0 1-.14-.56v-.73a41.41 41.41 0 0 0 0-5.79 10 10 0 0 0-.2-1.37 3 3 0 0 0-.37-1.06c-.08-.09-.06-.05 0 0a.48.48 0 0 0-.2.11 4.41 4.41 0 0 0-.88.86 31.16 31.16 0 0 0-3 4.92c-.44.87-.87 1.75-1.28 2.63l-.61 1.34-.3.67-.14.34-.08.16v.15a.92.92 0 0 1-.17.25.9.9 0 0 1-1.12.14.91.91 0 0 1-.37-.44v-.08l-.14-.34-.28-.67c-.19-.44-.39-.88-.59-1.31s-.43-.85-.67-1.24c-.12-.19-.24-.38-.36-.54s-.29-.28-.23-.25a.48.48 0 0 0 .41-.07c.07-.07 0 0 0 0a2.76 2.76 0 0 0-.14.55 7.23 7.23 0 0 0 0 1.33 17.25 17.25 0 0 0 .39 2.81l.15.7v.17a1 1 0 0 1 0 .41.81.81 0 0 1-.3.5.87.87 0 0 1-1.07 0l-.11-.14a5.3 5.3 0 0 0-1.09-.69 8.41 8.41 0 0 0-2.67-.76 15.56 15.56 0 0 0-2.82-.1H79.2a.49.49 0 0 0-.28.47.5.5 0 0 0 .12.27c.17.19.35.39.51.59a12 12 0 0 1 .89 1.26 13.23 13.23 0 0 1 1.27 2.76.29.29 0 0 1-.17.36.29.29 0 0 1-.33.03z" fill="#31323d"/></g></svg>