<svg height="200" width="200" xmlns="http://www.w3.org/2000/svg" xmlns:xlink="http://www.w3.org/1999/xlink"><clipPath id="c"><path d="M-79.96-37.5h350v275h-350z"/></clipPath><clipPath id="d"><path d="M250.55 151.76a31.94 31.94 0 0 1-3 8.38c-3.48-10.95-10.09-21.88-18.7-28.39-.19-.15-.51-.36-.92-.62a34.1 34.1 0 0 0-49.58 16c-.31.77-.74 1.78-.74 1.78a45 45 0 0 1 10.68-5.74s-2.21 3-3.9 5.28c-5.22 7-8.65 16.57-6 25.38.83 2.76 2.93 5.44 5.58 7.87-13.45 2.19-23 16-23 16l-12.86 15.17 18.89 3.87 10.7.38a76.12 76.12 0 0 0 22.08 2.95c26.89 0 45.82-17.63 49.8-36.57.31-1.49.63-3 1-4.45 1.19-5.51 3.76-19.23-.03-27.29z"/></clipPath><linearGradient id="b" gradientUnits="userSpaceOnUse" x1="216.83" x2="216.83" y1="167.33" y2="112.78"><stop offset="0" stop-color="#fff" stop-opacity="0"/><stop offset=".72" stop-color="#fff"/></linearGradient><clipPath id="e"><path d="M179.21 213.94c-4.77-3.25-14.67-6.83-19.94-8.37h-.08a27.51 27.51 0 0 0 .7-17.28l-19.38-63.09c1.61-1.68 2.58-2.84 2.58-2.84 4.7 3 12.17-.39 15.2-2a.35.35 0 0 0-.17-.65c-6 0-14.4-4.61-14.4-4.61 6.73 1.78 9.31-.13 10.17-1.17a.35.35 0 0 0-.25-.57c-2.17-.09-9.54-1.36-14.91-13.57-.73-1.67-1.51-3.33-2.35-5-1.63-3.13-4.3-8.08-7.39-13l.15-.79 5.55-22.78a3.33 3.33 0 0 0-5.22-3.45l-14.55 10.8-.23.29-.54-.35a26.49 26.49 0 0 0-6.09-2.38l-.36-.09c1.11-3.17 4.53-4.92 4.53-4.92-4-3.73-11.08 2.16-11.08 2.16-4.11-4 1.92-11.39 1.92-11.39-7.18-3.26-12.51 9.48-12.51 9.48C90 52.15 81 51.21 81 51.21c3 3.29 1.5 9.2 1.5 9.2-4.22-4.15-12.27-.27-12.27-.27a10.53 10.53 0 0 1 6.77 3.1l-.33.09a26.59 26.59 0 0 0-8.76 4.33l-14.53-9a3.32 3.32 0 0 0-4.95 3.73l6.37 22.47.47 1.65c-1.52 3.6-2.67 6.86-3.3 8.71-.4 1.15-.85 2.29-1.35 3.41a28.35 28.35 0 0 1-17.75 17 .35.35 0 0 0 0 .67c2.28.63 8.08 1.93 12.3-2.33 0 0-4.13 5.73-9.23 7.78a.35.35 0 0 0 .1.68 18.54 18.54 0 0 0 9.73-2.07 28.49 28.49 0 0 1-4.52 4.93.35.35 0 0 0 .25.63 13.44 13.44 0 0 0 5-1.33l.06 1.35c0 1.3.94 2.68 2.36 4.06l-11.79 62.19a27.54 27.54 0 0 0 1.4 13h-.07c-4.23 1-14.47 4.82-20.46 8.68-2.94 1.9-1.12 6.2 2.57 6.13l29.6-.57q.75.45 1.53.87v.37c0 2.58-.74 4.7-3.32 4.83a3.51 3.51 0 0 0-3.4 2.34c-.52 2.38.65 4.31 3 4.48l9.35.55a7.83 7.83 0 0 0 7.24-3.78 8 8 0 0 0 1-2.65l.55-2.95h59.17l.39 2.29a7.9 7.9 0 0 0 4.78 6 5.82 5.82 0 0 0 2.47.44l10.19-.33c2.44-.25 3.34-1.74 3.09-4.1a3.07 3.07 0 0 0-2.72-2.83 3 3 0 0 1-3.11-2.43 27.24 27.24 0 0 0 7.25-3.11l29 .56c3.71.16 5.47-4.06 2.58-6.04z"/></clipPath><linearGradient id="a" gradientUnits="userSpaceOnUse" x1="126.09" x2="126.09" y1="57.79" y2="81.04"><stop offset="0" stop-color="gray"/><stop offset=".14" stop-color="#797979"/><stop offset=".35" stop-color="#646464"/><stop offset=".6" stop-color="#434343"/><stop offset=".89" stop-color="#141414"/><stop offset="1"/></linearGradient><linearGradient id="f" x1="49.09" x2="62.51" xlink:href="#a" y1="73.54" y2="73.54"/><linearGradient id="g" x1="140.05" x2="140.05" xlink:href="#b" y1="220.67" y2="63.08"/><clipPath id="h"><path d="M123.36 78.68c-5.49 1.34-12.79 6.48-14.83 23.86 0 0 12.81 10.43 23.45-2.85 5.65-7 4.7-12.57 2.57-16.19a10.17 10.17 0 0 0-11.19-4.82z"/></clipPath><clipPath id="i"><path d="M65 80.57c5.44 1.33 12.74 6.43 14.78 23.86 0 0-12.81 10.43-23.45-2.85-5.66-7-4.7-12.57-2.57-16.19A10.16 10.16 0 0 1 65 80.57z"/></clipPath><path d="M-79.96-37.5h350v275h-350z" fill="#e9f4ff"/><g clip-path="url(#c)"><g clip-path="url(#d)"><path d="M250.46 219.52H146.33v-98.56h109.86z" fill="#b0d0f7"/><g fill="#7f7f7f"><path d="M158.13 200.77s12.52-17.3 15.25-16.21c-11.18 13-2.9 20.61 2.56 22.22 22.13 6.54 58.87 12.31 73.85-18.25l-24.29 33.2-72-.34z" opacity=".2"/><path d="M183.37 180.14a26.07 26.07 0 0 0-2.77.68c.39.42 4 11.53 15.42 13.19a.77.77 0 0 0 .82-1.06 9.08 9.08 0 0 1-.64-2.67m30.51-27.86s-2.18 11.24-5.84 15.35a12.76 12.76 0 0 1-7.74 4.16.4.4 0 0 1-.44-.47 8.15 8.15 0 0 0-.25-3.14s-13.47 7.15-12.58 12.81c0 0-1.78-8 7.51-13.22s7.72-7.24 7.72-7.24l-.18 6.07c6.29-1.23 11.8-14.32 11.8-14.32z" opacity=".2"/></g><path d="M186.07 136.79s16.81-16.23 41.93.84c10.31 7.42 16 29.7 16 29.7l3.63-7.19-6.63-41.88-25.88-5.48-16.73 2.22z" fill="url(#b)" opacity=".5"/></g><path d="M247.6 160.15c-3.47-10.94-10.09-21.89-18.7-28.4-.2-.15-.51-.36-.93-.62a34.1 34.1 0 0 0-49.58 16c-.31.77-.74 1.78-.74 1.78a45 45 0 0 1 10.68-5.74s-2.2 3-3.89 5.28c-5.23 7-8.66 16.57-6 25.38 2.29 7.62 14.27 14.59 20.66 17.62.46.21.94-.18.73-.64-1.08-2.37.7-6.68 2.11-8.65 1.77-2.48 4.68-3.8 7.34-5.26s5.39-3.42 6.18-6.36l-.56 6.4a22.68 22.68 0 0 0 9.9-9.63 22.15 22.15 0 0 0 2.1-5.62" fill="none" stroke="#31323d" stroke-linecap="round" stroke-linejoin="round" stroke-width="1.386"/><path d="M161 197.65s9.53-13.77 23-16" fill="none" stroke="#31323d" stroke-linecap="round" stroke-miterlimit="10" stroke-width="1.386"/><path d="M177.65 217.12a76.12 76.12 0 0 0 22.08 2.95c26.89 0 45.82-17.63 49.8-36.57.31-1.49.63-3 1-4.45 1.28-5.51 3.84-19.23.05-27.29 0 0-.52 3.92-4.2 10.85" fill="none" stroke="#31323d" stroke-linecap="round" stroke-linejoin="round" stroke-width="1.386"/><g clip-path="url(#e)"><path d="M15.48 33.27H184.1V236.5H15.48z" fill="#b0d0f7"/><path d="M66.21 224.92c-.62-1.62.35-6.3 2.29-15.66 1.16-5.6 2.09-9.25 2.66-11.64 4.3-18 1.79-19.92 5.55-30.61 2.56-7.31 5.22-14.55 12.31-18 .84-.4 7.3-3.4 13.86-.77 6.39 2.57 9 8.94 11.68 15.74 3.23 8.22 2.21 11.06 5.88 31.63q1.14 6.42 2.29 12.85.67 3.76 1.33 7.54c1 5.9 1.07 6 1 6.23-1.06 8.77-53.93 15.62-58.85 2.69zM37 198.35s-.64 11 14.67 22l-27.28 3.21-15.79-5.33 1.17-4.53z" fill="#fff"/></g><g clip-path="url(#e)"><path d="M78.87 66.06c-9 2.62-16.09 12-20.2 26.32-1.21 3.79-7.17 23-7 30 .23 7.6 4.23 12.09 3.51 12.09s-2.19-1.76-2.43-1.1a71.23 71.23 0 0 0-1.72 8.77c-2.23 14.77-3.72 36.37-4.42 42a102 102 0 0 0-.72 10.86v.38c2.6 2.88 5.28 9.84 5.83 19.61l.15 5.43s-3.48-.09-9-.09c-6.87 0-12.29-12.39-8.77-30.85C37.26 172.94 26.57 88 26.57 88l31.28-4.91A27.24 27.24 0 0 1 77 63.24z" fill="#7f7f7f" opacity=".2"/><path d="M134.44 59.3s-1.95-4.79-9 2.69a21 21 0 0 1-7.64 6L129.14 81z" fill="url(#a)" opacity=".4"/><path d="M49.18 65.07s-1-4.31 3.85-2.3c2 .84 5.62 4.5 7 6.21l2.44 3.88-7.72 12z" fill="url(#f)" opacity=".4"/><path d="M71.2 196.72c-2.7 16.39 6 19.78 7.6 20.14 9.59 1.72 24.82 1 29.77-.77 4.63-1.64 14.41-6.49 12-21l4.76 28.48H66.14zm69.62 12.97s3.31-10.13 7.35-13.84c-4.37 8.31 1.56 10.28 3.11 9.72 6-2.12 8.32-7.39 8.79-16.64l7.24 12.9s-6.1 28.39-22.62 23.73l-4.29-2z" fill="#7f7f7f" opacity=".2"/></g><g clip-path="url(#e)"><path d="M107.36 65.31s6 1.64 8.46 5.11 4.87 9.5 9.79 19.07c3.54 6.88 10.66 17.74 12.2 28.65.7 6.31-3.88 12.32-4.59 13.7.13.37 3.91-3.54 4-3.16 7.26 21.37 13.4 47 16.39 60.28 5.11 22.7-9 31.71-9 31.71l6.77-3.93s7-8.29 8-11.94c2.3-8 15.42-3.65 13-16.37-3.51-18.46-25.28-112.5-25.28-112.5s-22.24 1.56-25.31-3.93c-2.3-4.08-8.44-7.25-14.09-8.94z" fill="url(#g)" opacity=".2"/></g><path d="M114.92 65.61l14.55-10.8a3.33 3.33 0 0 1 5.22 3.45L129.14 81l-.15.79M67.9 67.65l-14.53-9a3.32 3.32 0 0 0-4.95 3.73l6.37 22.47.47 1.65m85.25 38.7l19.38 63.06a27.77 27.77 0 0 1-19.49 34.36m-88.69-2.25a27.75 27.75 0 0 1-14.58-28.18L49 130" fill="none" stroke="#31323d" stroke-linecap="round" stroke-miterlimit="10" stroke-width="1.386"/><path d="M71.44 196.77c-.79 6.75-2.08 13.42-3.3 20.09l-1.86 10a8.47 8.47 0 0 1-2.75 4.75 8.72 8.72 0 0 1-5.08 2.09 25 25 0 0 1-2.64-.07l-2.54-.15-5.08-.31a4.36 4.36 0 0 1-2.82-1.08 4.07 4.07 0 0 1-1.25-2.79 5.44 5.44 0 0 1 .11-1.46 3.24 3.24 0 0 1 .71-1.48 4.64 4.64 0 0 1 2.62-1.46 6.09 6.09 0 0 1 .73-.1 4 4 0 0 0 .54-.06 2.23 2.23 0 0 0 .9-.35 2.73 2.73 0 0 0 1.05-1.65 7.91 7.91 0 0 0 .19-2.31l-.1-2.54-.41-10.17v.06a31.22 31.22 0 0 0-1.38-6.46 20.34 20.34 0 0 0-3.18-5.76.25.25 0 0 1 .05-.35.23.23 0 0 1 .32 0A17.36 17.36 0 0 1 50.1 201a25.94 25.94 0 0 1 1.69 6.67v.05l.51 10.18.12 2.54a9.14 9.14 0 0 1-.22 2.73 4.21 4.21 0 0 1-1.65 2.53 3.85 3.85 0 0 1-1.45.58c-.24 0-.51.06-.72.09a3.07 3.07 0 0 0-.53.07 3.16 3.16 0 0 0-1.75 1 1.6 1.6 0 0 0-.37.79 3.85 3.85 0 0 0-.08 1.06 2.52 2.52 0 0 0 .77 1.74 2.82 2.82 0 0 0 1.86.65l5.08.29 2.54.16a23.26 23.26 0 0 0 2.44.1 7.18 7.18 0 0 0 4.18-1.7 6.93 6.93 0 0 0 2.28-3.88l1.91-10c1.29-6.67 2.51-13.34 4.23-19.92a.26.26 0 0 1 .3-.18.25.25 0 0 1 .2.22zm49.35-1.77c1.78 7.73 3 15.56 4.39 23.37l1 5.85.25 1.47a7.34 7.34 0 0 0 .35 1.3 7.11 7.11 0 0 0 1.38 2.28 6.27 6.27 0 0 0 4.62 2.22l5.9-.21 3-.08 1.47-.05a3.74 3.74 0 0 0 1.16-.3 2 2 0 0 0 1.17-1.73 4.91 4.91 0 0 0 0-1.27 3.2 3.2 0 0 0-.39-1.11 2 2 0 0 0-.77-.75 1.51 1.51 0 0 0-.49-.18 5.13 5.13 0 0 0-.66-.08 4.45 4.45 0 0 1-1.69-.51 3.42 3.42 0 0 1-1.33-1.31 5.9 5.9 0 0 1-.54-3.28l.06-3 .07-3c0-1 .15-2 .3-3a29.82 29.82 0 0 1 4.28-11.26 29.8 29.8 0 0 1 3.7-4.73.24.24 0 0 1 .35 0 .25.25 0 0 1 0 .33 38.55 38.55 0 0 0-5.57 10.25 31.5 31.5 0 0 0-1.39 5.63 28 28 0 0 0-.27 2.88v7.39a2.78 2.78 0 0 0 .34 1.12 2.31 2.31 0 0 0 1.9 1.07 6.49 6.49 0 0 1 .81.1 2.94 2.94 0 0 1 .9.32 3.47 3.47 0 0 1 1.34 1.29 4.5 4.5 0 0 1 .62 1.67 6.9 6.9 0 0 1 0 1.7 4 4 0 0 1-.6 1.71 3.42 3.42 0 0 1-1.45 1.2 5.1 5.1 0 0 1-1.7.45l-1.5.06-3 .11-6 .18a6.84 6.84 0 0 1-3.21-.79 8.67 8.67 0 0 1-2.56-2 9 9 0 0 1-1.66-2.78A10.66 10.66 0 0 1 125 226l-.24-1.47-1-5.87c-1.28-7.82-2.62-15.63-3.46-23.52a.25.25 0 0 1 .22-.27.24.24 0 0 1 .27.13zM78.33 66.32A8.48 8.48 0 0 0 77 64.09a8.61 8.61 0 0 0-1.94-1.73 9.14 9.14 0 0 0-2.33-1.08 10.92 10.92 0 0 0-2.54-.45.7.7 0 0 1-.63-.75.73.73 0 0 1 .37-.56 20.78 20.78 0 0 1 3.18-1.13 17.66 17.66 0 0 1 3.34-.56 10.68 10.68 0 0 1 3.45.33 7.25 7.25 0 0 1 3.1 1.75l-1.16.32a13.67 13.67 0 0 0 .34-2.23 13.46 13.46 0 0 0-.05-2.29 7 7 0 0 0-1.62-4 .67.67 0 0 1 0-1 .69.69 0 0 1 .56-.18 17.54 17.54 0 0 1 3.27.79 14.12 14.12 0 0 1 3 1.43 8.77 8.77 0 0 1 2.51 2.35 6.57 6.57 0 0 1 1.14 3.27l-1-.15a29.9 29.9 0 0 1 2.05-3.93 20.92 20.92 0 0 1 2.7-3.55 10.13 10.13 0 0 1 3.78-2.61 6.25 6.25 0 0 1 4.73.18.69.69 0 0 1 .35.91.64.64 0 0 1-.08.14 20.69 20.69 0 0 0-1.52 2.53 14.75 14.75 0 0 0-1.19 2.75 6.89 6.89 0 0 0-.31 2.82 4 4 0 0 0 1.18 2.36h-.93a21.43 21.43 0 0 1 2.59-1.82 16.35 16.35 0 0 1 2.92-1.31 8.39 8.39 0 0 1 3.29-.43 5.28 5.28 0 0 1 3.16 1.4.68.68 0 0 1 0 1 .66.66 0 0 1-.24.17 15.43 15.43 0 0 0-2.18 1.11 12.55 12.55 0 0 0-2 1.47 7.47 7.47 0 0 0-1.53 1.88 4.72 4.72 0 0 0-.63 2.29.28.28 0 0 1-.28.28.3.3 0 0 1-.28-.26 5.55 5.55 0 0 1 .51-2.66 8.7 8.7 0 0 1 1.53-2.22 14.57 14.57 0 0 1 2-1.76 17.49 17.49 0 0 1 2.29-1.4l-.2 1.14a3.91 3.91 0 0 0-2.34-1 6.88 6.88 0 0 0-2.74.37 14.69 14.69 0 0 0-2.66 1.2 19.5 19.5 0 0 0-2.43 1.64.7.7 0 0 1-.92 0 5.26 5.26 0 0 1-1.58-3.17 8.16 8.16 0 0 1 .35-3.39 16 16 0 0 1 1.31-3 21.42 21.42 0 0 1 1.8-2.73l.25 1.07a4.9 4.9 0 0 0-3.74-.22 8.84 8.84 0 0 0-3.35 2.23 20.17 20.17 0 0 0-2.63 3.3 28.81 28.81 0 0 0-2 3.73.5.5 0 0 1-.66.25.53.53 0 0 1-.3-.4 5.56 5.56 0 0 0-1-2.73 7.55 7.55 0 0 0-2.24-2A12.47 12.47 0 0 0 84 52.54a17 17 0 0 0-3-.64l.58-1.16a8.37 8.37 0 0 1 2 4.79 15.3 15.3 0 0 1 0 2.53 15.77 15.77 0 0 1-.36 2.52.7.7 0 0 1-.83.51.76.76 0 0 1-.32-.17 5.75 5.75 0 0 0-2.5-1.41 8.78 8.78 0 0 0-3-.28 16 16 0 0 0-3.06.51 19.32 19.32 0 0 0-2.94 1l-.23-1.31a12.31 12.31 0 0 1 2.79.72 9.83 9.83 0 0 1 2.51 1.4 9.62 9.62 0 0 1 2 2.06 8.65 8.65 0 0 1 1.27 2.54.28.28 0 0 1-.52.18z" fill="#31323d"/><path d="M108.23 62.49a27.34 27.34 0 0 1 6.25 2.45 46.72 46.72 0 0 1 3.94 2.7A27.46 27.46 0 0 1 122 71a73.27 73.27 0 0 1 5.73 7.59 168.81 168.81 0 0 1 9.49 16.36l2 4.29 1 2.1c.33.69.73 1.35 1.1 2s.81 1.3 1.24 1.93.89 1.25 1.41 1.81a18.26 18.26 0 0 0 3.31 3.09 13.87 13.87 0 0 0 4 2 10.18 10.18 0 0 0 2.16.42h.34a1.05 1.05 0 0 1 .85 1.32 1.09 1.09 0 0 1-.21.38l-.11.13a4.82 4.82 0 0 1-1.05.87 8.84 8.84 0 0 1-4.91 1.13 20.71 20.71 0 0 1-4.81-.74l.51-1.28a51.69 51.69 0 0 0 7.25 3.14 30.45 30.45 0 0 0 3.79 1 18 18 0 0 0 1.91.29h.95a2.88 2.88 0 0 1 .38 0 1 1 0 0 1 .63.4 1 1 0 0 1-.11 1.37 1.37 1.37 0 0 1-.26.18l-.11.06-.23.12-.45.23-.93.45c-.61.29-1.24.56-1.88.81a26.82 26.82 0 0 1-3.94 1.22 15.4 15.4 0 0 1-4.19.36 8.56 8.56 0 0 1-4.12-1.27l.91-.14a72.74 72.74 0 0 1-4.9 4.88 65.47 65.47 0 0 1-5.33 4.37.28.28 0 0 1-.42.13.29.29 0 0 1 .05-.38 66.34 66.34 0 0 0 5-4.64c1.58-1.62 3.11-3.32 4.52-5.07a.68.68 0 0 1 .84-.17h.06c2.06 1.32 4.78 1.26 7.27.72a23.62 23.62 0 0 0 3.73-1.15c.61-.24 1.21-.5 1.81-.78l.88-.43.44-.22.22-.12.11-.06h-.05a.36.36 0 0 0 0 .46.4.4 0 0 0 .22.14h-.13l-1.05-.05c-.7-.08-1.39-.17-2.06-.31a31.27 31.27 0 0 1-4-1.08 53.19 53.19 0 0 1-7.48-3.25.69.69 0 0 1 .5-1.28 19.23 19.23 0 0 0 4.48.69 7.55 7.55 0 0 0 4.15-.91 3.86 3.86 0 0 0 .76-.63l.08-.09a.4.4 0 0 0-.07.13.34.34 0 0 0 0 .28.38.38 0 0 0 .24.15h-.24a12.74 12.74 0 0 1-2.46-.48 15.48 15.48 0 0 1-4.38-2.23 19.64 19.64 0 0 1-3.55-3.32c-.55-.6-1-1.27-1.49-1.91s-.89-1.34-1.31-2-.79-1.4-1.14-2.12l-1-2.15-2-4.22a169.92 169.92 0 0 0-9.41-16.23A73.51 73.51 0 0 0 121 71.9a26.09 26.09 0 0 0-3.34-3.14c-1.19-1-2.51-1.76-3.83-2.63a25.82 25.82 0 0 0-5.93-2.32.71.71 0 0 1-.5-.85.7.7 0 0 1 .83-.47zm-53.15 72.2a36.06 36.06 0 0 1-5.87-3.83 12.29 12.29 0 0 1-2.45-2.67 5.27 5.27 0 0 1-.75-1.8c0-.17-.06-.35-.07-.51v-.43l-.06-.87 1 .56a10.11 10.11 0 0 1-3.26 1.12c-.55.11-1.09.19-1.64.26h-.41a1.1 1.1 0 0 1-.54-.07 1 1 0 0 1-.48-1.52 1.61 1.61 0 0 1 .46-.43 18.75 18.75 0 0 0 2.2-2.17c.69-.78 1.36-1.62 2-2.45l.86 1a22.85 22.85 0 0 1-5.66 1.89 16.78 16.78 0 0 1-3 .29H36a.9.9 0 0 1-.25-.06 1 1 0 0 1-.35-1.77 2 2 0 0 1 .51-.27l.31-.14a18.9 18.9 0 0 0 4.6-3.15 30.65 30.65 0 0 0 3.81-4.17l1 .89a10.8 10.8 0 0 1-4.87 2.82 13.75 13.75 0 0 1-5.56.24c-.46-.07-.91-.15-1.36-.25l-.67-.16-.33-.08h-.17a1.06 1.06 0 0 1-.4-.2 1 1 0 0 1 .13-1.7.88.88 0 0 1 .22-.1h.07l.16-.05.3-.1c.41-.15.82-.29 1.21-.46A27.59 27.59 0 0 0 39 111.9a27.31 27.31 0 0 0 7.51-7.1 28.57 28.57 0 0 0 2.62-4.47c.34-.82.68-1.56 1-2.44l1-2.44a110.15 110.15 0 0 1 8.63-19.6 31.62 31.62 0 0 1 3.16-4.43c.61-.71 1.23-1.34 1.85-2s1.35-1.24 2.06-1.81a27.23 27.23 0 0 1 9.66-5 .68.68 0 0 1 .85.47.69.69 0 0 1-.48.86 26.14 26.14 0 0 0-9.17 4.71c-.67.54-1.32 1.11-1.94 1.71s-1.24 1.27-1.79 1.91a30 30 0 0 0-3 4.24 107.91 107.91 0 0 0-8.51 19.35l-1 2.52c-.3.77-.7 1.65-1 2.47a29.84 29.84 0 0 1-2.76 4.7 28.57 28.57 0 0 1-7.88 7.46 30 30 0 0 1-4.84 2.51c-.42.18-.85.33-1.28.48l-.32.11h-.25.07a.35.35 0 0 0 0-.57.34.34 0 0 0-.11-.05h.16l.31.08.63.15c.41.09.83.17 1.26.23a12.41 12.41 0 0 0 5-.21 9.41 9.41 0 0 0 4.24-2.45.69.69 0 0 1 1 .91 31 31 0 0 1-4 4.39 20 20 0 0 1-4.94 3.38l-.35.15c-.09 0-.32.17-.14 0a.34.34 0 0 0-.12-.59h-.06 1.28a17.21 17.21 0 0 0 2.77-.27 21.56 21.56 0 0 0 5.31-1.78.69.69 0 0 1 .85 1c-.66.89-1.33 1.73-2.06 2.56a19.44 19.44 0 0 1-2.38 2.33c-.09.06-.32.28-.15.09a.31.31 0 0 0 0-.37c0-.11-.28-.18-.3-.16h.39c.52-.06 1-.14 1.54-.24a8.8 8.8 0 0 0 2.8-.94.67.67 0 0 1 .93.23.63.63 0 0 1 .1.34v1.65a4.1 4.1 0 0 0 .49 1.41 10.88 10.88 0 0 0 2.09 2.54 34.23 34.23 0 0 0 5.5 4.08.28.28 0 0 1 .09.38.29.29 0 0 1-.24.31z" fill="#31323d"/><path d="M123.36 78.68c-5.49 1.34-12.79 6.48-14.83 23.86 0 0 12.81 10.43 23.45-2.85 5.65-7 4.7-12.57 2.57-16.19a10.17 10.17 0 0 0-11.19-4.82z" fill="#fff"/><g clip-path="url(#h)"><circle cx="119.19" cy="96.81" fill="#83d6ff" r="9.79"/><circle cx="118.87" cy="96.96" fill="#31323d" r="7.44"/><circle cx="123.44" cy="90.58" fill="#fff" r="4.32"/></g><path d="M123.36 78.68c-5.49 1.34-12.79 6.48-14.83 23.86 0 0 12.81 10.43 23.45-2.85 5.65-7 4.7-12.57 2.57-16.19a10.17 10.17 0 0 0-11.19-4.82z" fill="none" stroke="#31323d" stroke-linecap="round" stroke-miterlimit="10" stroke-width="1.109"/><path d="M135.88 92.92s5-8.19 5-12.43c0 0-2.49 1.72-4.29 1.32l1.1-2.49-5.94.47a11.36 11.36 0 0 1 4.13 13.13z" fill="#31323d"/><path d="M65 80.57c5.44 1.33 12.74 6.43 14.78 23.86 0 0-12.81 10.43-23.45-2.85-5.66-7-4.7-12.57-2.57-16.19A10.16 10.16 0 0 1 65 80.57z" fill="#fff"/><g clip-path="url(#i)"><circle cx="69.12" cy="98.69" fill="#83d6ff" r="9.79"/><circle cx="68.8" cy="98.85" fill="#31323d" r="7.44"/><circle cx="73.37" cy="92.47" fill="#fff" r="4.32"/></g><path d="M65 80.57c5.44 1.33 12.74 6.43 14.78 23.86 0 0-12.81 10.43-23.45-2.85-5.66-7-4.7-12.57-2.57-16.19A10.16 10.16 0 0 1 65 80.57z" fill="none" stroke="#31323d" stroke-linecap="round" stroke-miterlimit="10" stroke-width="1.109"/><path d="M52.42 94.81s-5-8.19-4.94-12.44c0 0 2.49 1.73 4.28 1.32l-1.1-2.49 6 .47a11.38 11.38 0 0 0-4.24 13.14z" fill="#31323d"/><path d="M89.07 131.15s.87 8 7.6 7.36c6.5-.63 6.8-8.19 6.8-8.19a8.7 8.7 0 0 1-6.37 3.78c-4.21.29-8.03-2.95-8.03-2.95z" fill="#595959" opacity=".2"/><g fill="#31323d"><path d="M87.3 106.6a1.65 1.65 0 0 1 .26-1.79c.91-1 2.92-2.64 6.86-3s5.91.89 6.87 1.79a1.63 1.63 0 0 1 .42 1.75 2.32 2.32 0 0 1-1.91 1.52 4.47 4.47 0 0 0-3.48 2 2.48 2.48 0 0 1-.19.26 2 2 0 0 1-2.81.06s-.91-1.31-3.9-1.32a2.29 2.29 0 0 1-2.07-1.34z"/><path d="M95.71 109.64a21 21 0 0 0 2.53 5.57 15.73 15.73 0 0 0 4.21 4.43 15 15 0 0 0 2.72 1.44 13.46 13.46 0 0 0 3 .66 14.78 14.78 0 0 0 3.12 0c1-.09 2.07-.38 3.11-.55a.19.19 0 0 1 .22.16.19.19 0 0 1-.14.22c-1 .23-2.08.58-3.15.72a14.73 14.73 0 0 1-3.25.13 14.35 14.35 0 0 1-3.24-.54 15.08 15.08 0 0 1-3-1.4 16.88 16.88 0 0 1-4.71-4.48 22.35 22.35 0 0 1-3-5.89.84.84 0 0 1 .53-1 .82.82 0 0 1 1.05.52z"/><path d="M81.45 124.1a13.93 13.93 0 0 0 5.64-1.2 10.76 10.76 0 0 0 4.39-3.49 13.87 13.87 0 0 0 2.16-5.16c.19-.92.23-1.88.36-2.82a6.62 6.62 0 0 1 .29-2.88l.06-.13a.57.57 0 0 1 .75-.26.58.58 0 0 1 .3.35c.6 2 0 4.07-.34 6.07a14.71 14.71 0 0 1-2.66 5.55 11.78 11.78 0 0 1-5 3.5c-.48.17-1 .29-1.46.43s-1 .21-1.49.26a12.62 12.62 0 0 1-3 0 .13.13 0 0 1 0-.26zm22.31 5.9a6.49 6.49 0 0 1-.89 2.19 7.3 7.3 0 0 1-1.67 1.75A8.5 8.5 0 0 1 99 135a8.89 8.89 0 0 1-2.4.42 9.33 9.33 0 0 1-4.6-1.07 8.09 8.09 0 0 1-3.32-3.26.28.28 0 0 1 .45-.32 10 10 0 0 0 7.45 3 8.43 8.43 0 0 0 3.82-1.09 7.57 7.57 0 0 0 2.84-2.91.27.27 0 0 1 .37-.12.27.27 0 0 1 .15.35zm2.51-17.82a60.69 60.69 0 0 1 10-1.16 50.67 50.67 0 0 1 10.07.61 33.57 33.57 0 0 1 9.58 3 23.51 23.51 0 0 1 7.8 6.23 23.32 23.32 0 0 0-7.92-6 33.09 33.09 0 0 0-9.55-2.74 49.31 49.31 0 0 0-9.94-.33 59.08 59.08 0 0 0-9.84 1.42.55.55 0 1 1-.25-1.08zm19.18-5.46a56.48 56.48 0 0 0-16.75 3.06.57.57 0 0 1-.71-.34.56.56 0 0 1 .34-.71 57.08 57.08 0 0 1 17.12-2.01zm-17.66 8.04a14 14 0 0 1 5.2.09 18.23 18.23 0 0 1 4.76 1.9 25.2 25.2 0 0 1 4.06 3 26.54 26.54 0 0 1 3.39 3.72 26.9 26.9 0 0 0-3.57-3.51 24.79 24.79 0 0 0-4.15-2.77 17 17 0 0 0-4.65-1.57 13 13 0 0 0-4.81.17.56.56 0 0 1-.23-1.09zm-23.35.24c-3.32-.66-6.62-1.3-10-1.69a55.56 55.56 0 0 0-10.07-.34 30 30 0 0 0-9.8 2.15 19.36 19.36 0 0 0-7.94 6.07 19.42 19.42 0 0 1 7.83-6.32 30.58 30.58 0 0 1 9.87-2.45 56.05 56.05 0 0 1 10.2.06c3.38.3 6.75.86 10.08 1.43a.55.55 0 1 1-.19 1.09zm-19.38-6.54a30 30 0 0 1 17.42 2.09.55.55 0 0 1 .28.73.56.56 0 0 1-.73.29 29.49 29.49 0 0 0-16.97-3.11zM83 117.6a10.89 10.89 0 0 0-4.79-.14 15.2 15.2 0 0 0-4.56 1.87 23.92 23.92 0 0 0-4 3 29.42 29.42 0 0 0-3.41 3.73 29.43 29.43 0 0 1 3.22-3.92 23.65 23.65 0 0 1 3.89-3.31 16 16 0 0 1 4.65-2.18 11.77 11.77 0 0 1 5.25-.12.55.55 0 0 1 .44.65.57.57 0 0 1-.66.44z"/></g></g></svg>