<svg height="200" width="200" xmlns="http://www.w3.org/2000/svg" xmlns:xlink="http://www.w3.org/1999/xlink"><clipPath id="c"><path d="M-76.5-32.5h350v275h-350z"/></clipPath><clipPath id="d"><path d="M254.75 156.09a32.56 32.56 0 0 1-3 8.44c-3.5-11-10.17-22-18.83-28.6-.2-.15-.52-.36-.94-.62a34.34 34.34 0 0 0-49.93 16.11l-.75 1.79a45.31 45.31 0 0 1 10.75-5.79l-3.92 5.32c-5.26 7-8.71 16.7-6.05 25.57.84 2.78 3 5.47 5.63 7.93-13.55 2.2-23.15 16.07-23.15 16.07l-13 15.28 18.91 3.95 10.78.39a77.08 77.08 0 0 0 22.24 3c27.08 0 46.15-17.76 50.16-36.85.31-1.49.63-3 1-4.48 1.35-5.6 3.91-19.39.1-27.51z"/></clipPath><linearGradient id="a" gradientUnits="userSpaceOnUse" x1="220.79" x2="220.79" y1="171.78" y2="116.82"><stop offset="0" stop-color="#fff" stop-opacity="0"/><stop offset=".72" stop-color="#fff"/></linearGradient><clipPath id="e"><path d="M254.75 155.73a32.11 32.11 0 0 1-3 8.42c-3.49-11-10.14-22-18.78-28.52-.2-.15-.52-.36-.93-.62a34.26 34.26 0 0 0-49.81 16.06l-.74 1.79a45 45 0 0 1 10.72-5.77l-3.91 5.31c-5.25 7-8.69 16.65-6 25.5.83 2.77 2.94 5.46 5.6 7.9-13.51 2.2-23.08 16-23.08 16l-12.92 15.28 18.87 3.92 10.75.38a76.67 76.67 0 0 0 22.18 3c27 0 46-17.71 50-36.74.31-1.5.63-3 1-4.47 1.3-5.56 3.86-19.34.05-27.44z"/></clipPath><linearGradient id="f" x1="220.88" x2="220.88" xlink:href="#a" y1="171.38" y2="116.57"/><clipPath id="g"><path d="M182.89 218.88c-4.81-3.29-14.82-6.91-20.14-8.46h-.08a27.83 27.83 0 0 0 .71-17.45l-15.07-49a13.71 13.71 0 0 0 4.62-2.51c-1.82.86-4.38-.91-6.15-2.45l-.25-.81c6.13 3 11.71-5.11 11.71-5.11-5.08.61-11.41-3.5-15.27-6.5l-.42-1.36c4.07.76 8.26-2.75 8.26-2.75-2.41.07-5-2-7.35-4.59a33.24 33.24 0 0 1-7-12.48l-6.14-20a27 27 0 0 0-5.28-10l7.21-11.66a1.69 1.69 0 0 0-1.35-2.57c-4.47-.21-11.75 5.27-14.49 7.43a26.92 26.92 0 0 0-6.48-2.26 39.59 39.59 0 0 1 2.46-4.3 1.15 1.15 0 0 0-1.26-1.73 24.1 24.1 0 0 0-7.24 3.91.14.14 0 0 1-.22-.14c.47-1.87 2.36-10 .85-10.69s-4.06 5.89-5 8.36a.14.14 0 0 1-.27-.06c.2-2.73.55-10.23-1.45-9.85-2.2.41-6.29 9.82-7.07 11.66a.13.13 0 0 1-.25 0c-.48-1.32-2.56-6.25-3.27-4.51s.07 4.85.38 6.08a.14.14 0 0 1-.23.13c-2.12-1.9-5.76-2-8.28-1.7a1.16 1.16 0 0 0-.7 2 11.08 11.08 0 0 1 1.09 1.26A27.45 27.45 0 0 0 72.12 70l-.59-.39c-4.64-3.82-11.85-8.68-14.65-4.77a1.68 1.68 0 0 0-.09 1.79l6.77 12.11a26.92 26.92 0 0 0-3.69 10.51l-3.41 18a30.46 30.46 0 0 1-5.54 12.63c-2 2.65-4.34 4.87-6.73 5.12 0 0 4.65 2.93 8.58 1.61L52.5 128c-3.43 3.5-9.14 8.4-14.24 8.47 0 0 6.34 7 11.92 3.72l-.2 1.09c-1.52 1.64-3.59 3.33-5.34 2.77a13.58 13.58 0 0 0 4.47 1.79l-9.72 51.09a27.86 27.86 0 0 0 1.42 13.17h-.07c-4.27 1-14.61 4.86-20.66 8.77-3 1.92-1.14 6.26 2.59 6.19l29.9-.59c.51.32 1 .61 1.56.89v.37c0 2.61-.75 4.75-3.35 4.88a3.55 3.55 0 0 0-3.44 2.39c-.53 2.41.66 4.35 3 4.53l9.44.56a7.86 7.86 0 0 0 8.31-6.5l.56-3h59.76l.38 2.31a8 8 0 0 0 4.84 6.09 6 6 0 0 0 2.49.44l10.29-.34c2.46-.25 3.37-1.76 3.12-4.14a3.1 3.1 0 0 0-2.75-2.86 3 3 0 0 1-3.14-2.45 27.87 27.87 0 0 0 7.31-3.13l29.3.56c3.75.07 5.56-4.2 2.64-6.19z"/></clipPath><linearGradient id="b" gradientUnits="userSpaceOnUse" x1="128.32" x2="128.32" y1="61.95" y2="76.89"><stop offset="0" stop-color="gray"/><stop offset=".14" stop-color="#797979"/><stop offset=".35" stop-color="#646464"/><stop offset=".6" stop-color="#434343"/><stop offset=".89" stop-color="#141414"/><stop offset="1"/></linearGradient><linearGradient id="h" x1="53.05" x2="68.05" xlink:href="#b" y1="72.5" y2="72.5"/><clipPath id="i"><path d="M182.89 218.88c-4.81-3.29-14.82-6.91-20.14-8.46h-.08a27.83 27.83 0 0 0 .71-17.45l-15.07-49a13.71 13.71 0 0 0 4.62-2.51c-1.82.86-4.38-.91-6.15-2.45l-.25-.81c6.13 3 11.71-5.11 11.71-5.11-5.08.61-11.41-3.5-15.27-6.5l-.42-1.36c4.07.76 8.26-2.75 8.26-2.75-4.83.15-10.49-8.3-12.87-12.25l-7.62-24.77a27 27 0 0 0-5.28-10l8.21-13.28c-3.63-3.57-13.53 3.88-16.84 6.48a26.92 26.92 0 0 0-6.48-2.26 43.59 43.59 0 0 1 2.45-4.3 1.14 1.14 0 0 0-1.25-1.73 24 24 0 0 0-7.24 3.91.13.13 0 0 1-.21-.14c.46-1.87 2.35-10 .84-10.69s-4.06 5.89-5 8.36a.14.14 0 0 1-.27-.06c.2-2.73.54-10.23-1.45-9.85-2.2.41-6.29 9.81-7.07 11.65a.13.13 0 0 1-.25 0c-.48-1.36-2.56-6.29-3.27-4.55s.07 4.85.38 6.08a.14.14 0 0 1-.23.13c-2.12-1.9-5.76-2-8.28-1.7a1.16 1.16 0 0 0-.7 2 11.08 11.08 0 0 1 1.09 1.26A27.45 27.45 0 0 0 72.12 70l-.59-.39c-5-4.1-12.92-9.4-15.19-3.77l7.22 12.9a26.92 26.92 0 0 0-3.69 10.51l-4.35 22.85c-1.93 4-6.55 12.36-11.33 12.85 0 0 4.65 2.93 8.58 1.61L52.5 128c-3.43 3.5-9.14 8.4-14.24 8.47 0 0 6.34 7 11.92 3.72l-.2 1.09c-1.52 1.64-3.59 3.33-5.34 2.77a13.58 13.58 0 0 0 4.47 1.79l-9.72 51.09a27.86 27.86 0 0 0 1.42 13.17h-.07c-4.27 1-14.61 4.86-20.66 8.77-3 1.92-1.14 6.26 2.59 6.19l29.9-.59c.51.32 1 .61 1.56.89v.37c0 2.61-.75 4.75-3.35 4.88a3.55 3.55 0 0 0-3.44 2.39c-.53 2.41.66 4.35 3 4.53l9.44.56a7.86 7.86 0 0 0 8.31-6.5l.56-3h59.76l.38 2.31a8 8 0 0 0 4.84 6.09 6 6 0 0 0 2.49.44l10.29-.34c2.46-.25 3.37-1.76 3.12-4.14a3.1 3.1 0 0 0-2.75-2.86 3 3 0 0 1-3.14-2.45 27.87 27.87 0 0 0 7.31-3.13l29.3.56c3.75.07 5.56-4.2 2.64-6.19z"/></clipPath><path d="M-76.5-32.5h350v275h-350z" fill="#ffd7d7"/><g clip-path="url(#c)"><g clip-path="url(#d)"><path d="M254.65 224.34H149.77v-99.28h110.66z" fill="#ff837d"/><path d="M161.66 205.45S174.27 188 177 189.13c-11.26 13.11-2.92 20.75 2.58 22.38 22.29 6.59 59.29 12.4 74.38-18.39l-24.46 33.44-72.5-.33z" fill="#7f7f7f" opacity=".2"/><path d="M187.08 184.68a21.7 21.7 0 0 0-2.79.68c.4.42 4 11.61 15.54 13.29a.78.78 0 0 0 .82-1.07 9.33 9.33 0 0 1-.64-2.69" fill="#7f7f7f" opacity=".2"/><path d="M189.8 141s16.93-16.35 42.23.84c10.39 7.47 16.08 29.93 16.08 29.93l3.66-7.25-6.67-42.18-26.1-5.52-16.82 2.26z" fill="url(#a)" opacity=".5"/></g><g clip-path="url(#e)"><path d="M254.46 226.18l-104.42-2.38 29.6-102.05 82.7 6.68z" fill="none"/><path d="M172.68 200c5.67 3 12.21 9.35 13.27 15.69l.36 1.59a13.25 13.25 0 0 0 4.67 7.89l-39.63.83 3.71-34.76zm46.55-18.36a.7.7 0 0 1-1-.68l.27-3.11a17.08 17.08 0 0 1-4.88 3.74l-1.1.59c-2.27 1.21-4.61 2.47-6.05 4.49s-2.93 6.05-2.05 8a1.17 1.17 0 0 1-.23 1.33 1.25 1.25 0 0 1-.87.35 1.28 1.28 0 0 1-.57-.13 73.15 73.15 0 0 1-12-7.19l-.85-.65a8.17 8.17 0 0 0 1.09 8.41c6 8.47 12.48-1.93 19.17-.85s14.7-1.55 16.26-5.89c.85-2.36.15-7.79-2.32-11.6a22.58 22.58 0 0 1-4.87 3.19z" fill="#ea605a"/><path d="M161.91 205s12.57-17.38 15.32-16.28c-11.23 13.07-2.91 20.7 2.56 22.32 22.24 6.57 59.15 12.37 74.19-18.34L229.59 226l-72.36-.33z" fill="#7f7f7f" opacity=".2"/><path d="M187.26 184.25a20.42 20.42 0 0 0-2.78.68c.39.42 4 11.58 15.49 13.25a.76.76 0 0 0 .82-1.06 9.68 9.68 0 0 1-.64-2.69" fill="#7f7f7f" opacity=".2"/><path d="M178 156.51c5.11-6.33 15.6-7.77 20.56-3 4.6 4.41-2.7 8.9 2.17 14.37s-2.25 9.24-8.52 11.7a12.93 12.93 0 0 1-11.87-1.34c-6.34-4.42-7.68-15.17-2.34-21.73z" fill="#ea605a"/><path d="M190 140.7s16.88-16.31 42.11.83c10.36 7.46 16 29.85 16 29.85l3.64-7.23-6.65-42.07-26-5.51-16.78 2.25z" fill="url(#f)" opacity=".5"/></g><path d="M251.78 164.54c-3.5-11-10.17-22-18.84-28.61-.2-.15-.51-.36-.93-.62a34.35 34.35 0 0 0-49.94 16.11l-.74 1.79a45.11 45.11 0 0 1 10.75-5.79s-2.22 3-3.92 5.32c-5.26 7-8.72 16.7-6 25.57 2.3 7.67 14.37 14.7 20.81 17.74a.51.51 0 0 0 .73-.64c-1.08-2.39.71-6.73 2.13-8.71 1.78-2.5 4.71-3.83 7.39-5.3s5.43-3.45 6.23-6.4l-.57 6.44a22.92 22.92 0 0 0 10-9.7 22.45 22.45 0 0 0 2.11-5.66" fill="none" stroke="#31323d" stroke-linecap="round" stroke-linejoin="round" stroke-width="1.396"/><path d="M164.59 202.31s9.59-13.87 23.14-16.07" fill="none" stroke="#31323d" stroke-linecap="round" stroke-miterlimit="10" stroke-width="1.396"/><path d="M181.33 221.93a77 77 0 0 0 22.23 3c27.09 0 46.15-17.76 50.16-36.85.32-1.49.64-3 1-4.48 1.28-5.55 3.87-19.36.05-27.48 0 0-.53 3.95-4.23 10.93" fill="none" stroke="#31323d" stroke-linecap="round" stroke-linejoin="round" stroke-width="1.396"/><g clip-path="url(#g)"><path d="M17.53 51.14h170.3v195.25H17.53z" fill="#ff837d"/><path d="M66 242.37l13.73-69.25a19.86 19.86 0 0 1 19.12-16 19.86 19.86 0 0 1 19.89 16.31l12 66.49z" fill="#fff4eb"/><path d="M135.93 62.5s-4.26-2.91-11.43 4.65l-3.78 4.53 6.28 5.21z" fill="url(#b)" opacity=".4"/><path d="M53.05 67s3.08-2.12 8-.09a13.8 13.8 0 0 1 5.32 3.94l1.66 2-4.2 6.15z" fill="url(#h)" opacity=".4"/><g fill="#ea605a"><path d="M68.17 73.53l8 4.87c9.52 5.79 8.38-.25 7.6-3.1s-4.93-9.09-4.93-9.09zm18.6-10.42s1.07 20.59 7.56 20.79 5-21.4 5-21.4L102 48.61l-18.18.6zm23.08 2.99s-6.38 15.35-2.16 17.28 13.59-12.58 13.59-12.58zm-70.7 77.66s7 1.51 10.8 2.27a24.61 24.61 0 0 0 5.72 4.15c5.12 2.57 5.66 7.2 3.35 9.64-2.91 3.07-11.51-.15-14.28-2s-12.85-9.68-12.85-9.68z"/><path d="M26.52 141.65S43.28 166.56 54.81 172c7.15 3.59 7.9 10.05 4.68 13.45-4.06 4.29-16.06-.21-19.94-2.75s-17.92-13.51-17.92-13.51zm131.99-13.27s-7.36 20.21-14.44 26c-4.36 3.73-3.76 8.35-.94 10.16 3.56 2.28 11.13-2.91 13.39-5.35s10.14-12.48 10.14-12.48zm13.73 20.35s-14.7 21-25.54 27.74c-6.69 4.39-6.69 10.9-3.1 13.91 4.51 3.79 15.93-2 19.48-5s16.27-15.47 16.27-15.47zM184 167.12s-18.18 25.82-30.32 31.8c-3.22 1.69-4.3 4.88-5.22 7.15a7.48 7.48 0 0 0 1.41 8.18c2.12 2.17 6.2 2.1 10.3 1.15 0 0 1.87-4 2.77-6.29 1.79-4.58 26.8-12.86 26.8-12.86zM32.1 187.27c4.27-2.9 11.45 2.16 13.52 5.9 1.52 2.76 1.27 4.7 4.85 9.7 2.56 3.57 3.15 8.76 2.46 10-1.45 2.65-13.28-.7-18.14-7.09-3.5-4.61-7.52-15.24-2.69-18.51z"/></g></g><g clip-path="url(#i)" fill="#7f7f7f" opacity=".2"><path d="M81.27 69.71c-9.13 2.65-14.94 13-18.11 26.83-.73 3.24-1.41 7.08-2 11.3-1.68 11-3.15 24.52-5 37.12-2.36 3.71-3.26 4.42-4 8.48-2.29 13.12-2.33 28.8-3.14 35.33a101.3 101.3 0 0 0-.76 11v.38c2.63 2.9 5.34 9.94 5.89 19.8l.15 5.48s-3.51-.08-9.07-.08c-7 0-12.42-12.51-8.87-31.16 3.19-16.75-7.61-102.54-7.61-102.54l31.59-5a27.06 27.06 0 0 1 19.15-20zM73.8 201.49c-2.72 16.54 6.08 20 7.68 20.33 9.68 1.74 25.06 1 30.07-.78 4.68-1.65 14.55-6.55 12.09-21.22l4.82 28.77H68.7zm70.31 13.09s3.35-10.23 7.43-14c-4.41 8.4 1.58 10.38 3.15 9.82 6-2.14 8.39-7.47 8.87-16.8l7.31 13s-6.16 28.68-22.85 24l-4.33-2z"/></g><g clip-path="url(#i)" opacity=".2"><path d="M109.79 66.66s6.61 3.76 9.07 7.27 4.94 9.66 7.36 20.26c6.59 29 25.69 76.52 30.85 99.45s-9.1 32-9.1 32l6.85-4s7.05-8.37 8.11-12c2.33-8.05 15.57-3.7 13.13-16.54-3.54-18.65-34.23-108.69-34.23-108.69s-13.83-3.34-16.94-8.87c-2.31-4.12-8.19-7.24-13.9-9z" fill="#fff"/></g><path d="M148.5 144.27l14.93 48.58a28 28 0 0 1-19.63 34.61m-89.33-2.26a28 28 0 0 1-14.69-28.38l9.64-50.68" fill="none" stroke="#31323d" stroke-linecap="round" stroke-miterlimit="10" stroke-width="1.396"/><path d="M74.34 201.42c-.79 6.81-2.09 13.52-3.33 20.24l-1.86 10.09a8.55 8.55 0 0 1-2.77 4.78 8.76 8.76 0 0 1-5.12 2.11 25.33 25.33 0 0 1-2.66-.07l-2.6-.15-5.12-.31a4.45 4.45 0 0 1-2.79-1.11 4.11 4.11 0 0 1-1.27-2.81 6 6 0 0 1 .11-1.47 3.25 3.25 0 0 1 .72-1.49 4.69 4.69 0 0 1 2.64-1.48c.24 0 .49-.07.74-.09l.54-.06a2.39 2.39 0 0 0 .9-.35 2.72 2.72 0 0 0 1.06-1.66 7.77 7.77 0 0 0 .2-2.34l-.11-2.56-.41-10.23v.05a30.83 30.83 0 0 0-1.39-6.5 20.67 20.67 0 0 0-3.2-5.81.25.25 0 0 1 0-.35.25.25 0 0 1 .33 0 17.58 17.58 0 0 1 3.84 5.75 26.76 26.76 0 0 1 1.71 6.72v.06l.52 10.24.12 2.56A9 9 0 0 1 55 228a4.2 4.2 0 0 1-1.66 2.54 3.91 3.91 0 0 1-1.46.59c-.24 0-.52.06-.73.09a3.46 3.46 0 0 0-2.29 1 1.69 1.69 0 0 0-.38.8 4.32 4.32 0 0 0-.07 1.07 2.54 2.54 0 0 0 .77 1.75 2.83 2.83 0 0 0 1.87.66l5.12.29 2.56.16a23.45 23.45 0 0 0 2.45.1 7.23 7.23 0 0 0 4.21-1.71 6.93 6.93 0 0 0 2.3-3.91l1.93-10c1.29-6.72 2.53-13.44 4.26-20.07a.26.26 0 0 1 .31-.18.24.24 0 0 1 .15.24zm49.71-1.74c1.79 7.79 3.08 15.67 4.43 23.54l1 5.9.26 1.47a7.22 7.22 0 0 0 .35 1.31 7.41 7.41 0 0 0 1.39 2.3 6.32 6.32 0 0 0 4.66 2.24l5.94-.21 3-.09h1.48a3.8 3.8 0 0 0 1.17-.3 2 2 0 0 0 1.18-1.74 5.48 5.48 0 0 0 0-1.28 2.9 2.9 0 0 0-.4-1.11 1.94 1.94 0 0 0-.77-.76 1.72 1.72 0 0 0-.49-.19l-.67-.08a4.6 4.6 0 0 1-1.71-.51 3.54 3.54 0 0 1-1.34-1.32 6.06 6.06 0 0 1-.53-3.3l.06-3 .06-3a28.57 28.57 0 0 1 .31-3.06 29.2 29.2 0 0 1 1.58-5.9 28.84 28.84 0 0 1 2.73-5.44 30.71 30.71 0 0 1 3.72-4.77.25.25 0 0 1 .35 0 .24.24 0 0 1 0 .33 38.91 38.91 0 0 0-5.6 10.29 31.53 31.53 0 0 0-1.4 5.67 28 28 0 0 0-.28 2.89v6.74a4.64 4.64 0 0 0 0 .66 2.72 2.72 0 0 0 .34 1.13 2.33 2.33 0 0 0 1.92 1.07c.17 0 .5 0 .81.1a3.43 3.43 0 0 1 .91.33 3.52 3.52 0 0 1 1.35 1.3 4.54 4.54 0 0 1 .62 1.68 6.9 6.9 0 0 1 0 1.7 4 4 0 0 1-.61 1.74 3.49 3.49 0 0 1-1.44 1.23 5.56 5.56 0 0 1-1.72.46l-1.5.06-3 .11-6 .18a6.82 6.82 0 0 1-3.24-.8 8.78 8.78 0 0 1-4.25-4.8 10.47 10.47 0 0 1-.41-1.58l-.24-1.48-1-5.9c-1.29-7.88-2.64-15.75-3.48-23.7a.23.23 0 0 1 .22-.27.24.24 0 0 1 .24.16z" fill="#31323d"/><path d="M71.84 69.85C67.2 66 60 61.18 57.22 65.09a1.68 1.68 0 0 0-.09 1.79L63.89 79m52.71-10.14c2.73-2.15 10-7.63 14.44-7.41a1.68 1.68 0 0 1 1.35 2.55l-7.19 11.64" fill="none" stroke="#31323d" stroke-linecap="round" stroke-miterlimit="10" stroke-width="1.34"/><path d="M56.34 144.9a8.69 8.69 0 0 1-2.76 1.32 9.42 9.42 0 0 1-3.08.3 12.48 12.48 0 0 1-3-.57 14.11 14.11 0 0 1-2.86-1.25.74.74 0 0 1 .63-1.33 2.4 2.4 0 0 0 1.79-.31 8.72 8.72 0 0 0 1.8-1.3 21.94 21.94 0 0 0 3-3.55l1.16.9a8.58 8.58 0 0 1-3.61 2.39 8 8 0 0 1-4.33 0 12.63 12.63 0 0 1-3.79-1.81 18.76 18.76 0 0 1-3.18-2.69.72.72 0 0 1 .5-1.22 12 12 0 0 0 4.83-1.37 24.68 24.68 0 0 0 4.39-2.83 42.45 42.45 0 0 0 4-3.51c1.25-1.25 2.47-2.56 3.58-3.91a.74.74 0 0 1 1-.1.73.73 0 0 1 .1 1 7.38 7.38 0 0 1-2.75 2.09 8.16 8.16 0 0 1-3.37.53 12.45 12.45 0 0 1-3.24-.67 15.14 15.14 0 0 1-3-1.38.71.71 0 0 1-.25-1 .7.7 0 0 1 .53-.34 6.24 6.24 0 0 0 3.43-1.92 19.77 19.77 0 0 0 2.73-3.35 39.31 39.31 0 0 0 4-7.82 44.78 44.78 0 0 0 2.41-8.49l1.68-8.8.83-4.4.39-2.24c.19-.74.35-1.49.57-2.23a28.07 28.07 0 0 1 4.05-8.21 27.77 27.77 0 0 1 14.7-10.43.7.7 0 1 1 .4 1.34 26.26 26.26 0 0 0-17.83 17.7c-.21.7-.36 1.41-.55 2.12l-.37 2.18-.87 4.41-1.65 8.85a46.55 46.55 0 0 1-2.35 8.74 41.05 41.05 0 0 1-4.16 8.1 21.7 21.7 0 0 1-2.93 3.59 7.58 7.58 0 0 1-4.28 2.32l.31-1.32a14.5 14.5 0 0 0 2.68 1.23 10.64 10.64 0 0 0 2.86.59 6.8 6.8 0 0 0 2.74-.42 6 6 0 0 0 2.17-1.66l1.13.9a52.47 52.47 0 0 1-3.69 4 41.58 41.58 0 0 1-4.09 3.63 26.12 26.12 0 0 1-4.64 3 13.39 13.39 0 0 1-5.45 1.52l.53-1.22a17.53 17.53 0 0 0 2.91 2.43 11.14 11.14 0 0 0 3.37 1.62 6.44 6.44 0 0 0 3.51 0 7.08 7.08 0 0 0 2.94-2 .73.73 0 0 1 1.11.94 22 22 0 0 1-3.26 3.83 10.15 10.15 0 0 1-2.13 1.53 3.84 3.84 0 0 1-2.9.4l.64-1.32a13.07 13.07 0 0 0 2.46 1.3 12.09 12.09 0 0 0 2.71.74 8.49 8.49 0 0 0 2.8 0 8.31 8.31 0 0 0 2.63-1 .26.26 0 0 1 .37.11.27.27 0 0 1 0 .32zm54.53-78.85a28.3 28.3 0 0 1 8.55 3.61 28 28 0 0 1 6.87 6.24 27.56 27.56 0 0 1 4.42 8.17c.94 3 1.76 5.82 2.64 8.73l2.61 8.71c.44 1.46.84 2.91 1.36 4.29a38.1 38.1 0 0 0 1.77 4.1 36.75 36.75 0 0 0 4.93 7.39 21 21 0 0 0 3.16 3 6.29 6.29 0 0 0 3.7 1.46.75.75 0 0 1 .76.72.72.72 0 0 1-.28.6 16 16 0 0 1-2.77 1.77 12 12 0 0 1-3.13 1.1 8.11 8.11 0 0 1-3.43-.08 7.34 7.34 0 0 1-3-1.71.75.75 0 0 1-.06-1.05.74.74 0 0 1 1.05-.07c1.27 1.19 2.66 2.33 4.06 3.4a44.28 44.28 0 0 0 4.39 3 24.85 24.85 0 0 0 4.73 2.23 11.92 11.92 0 0 0 5 .71.71.71 0 0 1 .65 1.12 19 19 0 0 1-2.79 3.07 12.81 12.81 0 0 1-3.51 2.29 7.88 7.88 0 0 1-4.28.59 8.49 8.49 0 0 1-3.88-1.88l1-1a23.51 23.51 0 0 0 3.47 3.15 8.81 8.81 0 0 0 2 1.07 2.46 2.46 0 0 0 1.89.09.62.62 0 0 1 .66 1 13.62 13.62 0 0 1-5.53 2.68 9.1 9.1 0 0 1-3.08.13 8.48 8.48 0 0 1-2.92-.94.28.28 0 0 1-.12-.38.27.27 0 0 1 .34-.13 8.75 8.75 0 0 0 2.75.64 9 9 0 0 0 2.78-.3 12 12 0 0 0 2.61-1.06 14.69 14.69 0 0 0 2.36-1.51l.68 1a3.75 3.75 0 0 1-2.85 0 10.08 10.08 0 0 1-2.31-1.19 21.64 21.64 0 0 1-3.75-3.33.7.7 0 0 1 .93-1 7.15 7.15 0 0 0 3.2 1.56 6.6 6.6 0 0 0 3.49-.5 11.35 11.35 0 0 0 3.12-2.06 17.39 17.39 0 0 0 2.56-2.81l.68 1.12a13.35 13.35 0 0 1-5.61-.77 26.22 26.22 0 0 1-5-2.34 43.93 43.93 0 0 1-4.55-3c-1.45-1.1-2.84-2.24-4.2-3.5l1-1.07a5.93 5.93 0 0 0 2.36 1.34 6.62 6.62 0 0 0 2.77 0 10.94 10.94 0 0 0 2.74-1 14.28 14.28 0 0 0 2.48-1.57l.51 1.32a7.76 7.76 0 0 1-4.63-1.77 21.39 21.39 0 0 1-3.39-3.26 37.78 37.78 0 0 1-5.12-7.7 46.8 46.8 0 0 1-3.21-8.63L132 93.2c-.87-2.89-1.7-5.85-2.6-8.68a26 26 0 0 0-4.19-7.75 26.24 26.24 0 0 0-14.65-9.36.7.7 0 0 1-.51-.84.68.68 0 0 1 .82-.52z" fill="#31323d"/><path d="M81.3 70.08c-.55-.81-1.11-1.6-1.7-2.35-.29-.37-.61-.72-.92-1.06l-.5-.5a1.81 1.81 0 0 1 1.12-3.1h.38l.76-.05a17.57 17.57 0 0 1 3.07.09 10.21 10.21 0 0 1 3 .84 6.85 6.85 0 0 1 1.4.88l.11.1a.59.59 0 0 0-.73 0 .56.56 0 0 0-.2.35v.22-.18l-.17-.74a18.86 18.86 0 0 1-.43-3 7.44 7.44 0 0 1 .06-1.62 4.27 4.27 0 0 1 .22-.87 1.56 1.56 0 0 1 .39-.6 1.09 1.09 0 0 1 .54-.25 1 1 0 0 1 .56.06 2.21 2.21 0 0 1 .87.71 6.93 6.93 0 0 1 .47.68 13.91 13.91 0 0 1 .74 1.31c.23.45.44.91.64 1.37l.29.69.14.35v.09a.66.66 0 0 0-.26-.3.63.63 0 0 0-.78.1.66.66 0 0 0-.12.17v-.09l.07-.17.15-.34.3-.68.61-1.36c.41-.9.84-1.8 1.28-2.68a31.63 31.63 0 0 1 3.11-5.2 5.57 5.57 0 0 1 1.22-1.2 1.94 1.94 0 0 1 1.16-.39 1.68 1.68 0 0 1 1.23.7 4.53 4.53 0 0 1 .66 1.68 14.27 14.27 0 0 1 .22 1.56 44.62 44.62 0 0 1 0 6v.75a.65.65 0 0 0-.1-.38.61.61 0 0 0-.34-.28.67.67 0 0 0-.77.28c-.09.18 0 0 0 0v-.08l.07-.18.58-1.41c.38-.92.78-1.83 1.21-2.74a25.11 25.11 0 0 1 1.46-2.68 6.27 6.27 0 0 1 1.09-1.3 1.63 1.63 0 0 1 1.27-.43 1.49 1.49 0 0 1 1.08 1 4.92 4.92 0 0 1 .26 1.73c0 .53 0 1-.08 1.55-.1 1-.25 2-.43 3s-.38 2-.6 2.92l-.35 1.45a.37.37 0 0 0 0-.22.54.54 0 0 0-.2-.34.59.59 0 0 0-.73 0l.3-.23.61-.44a25.56 25.56 0 0 1 5.31-2.92l.74-.26a4.67 4.67 0 0 1 .88-.2 1.83 1.83 0 0 1 1.84 1.23 1.87 1.87 0 0 1 0 1.17 2.38 2.38 0 0 1-.24.48l-.2.31-.8 1.22a35.31 35.31 0 0 0-2.79 5.08.29.29 0 0 1-.37.15.28.28 0 0 1-.16-.32 20.85 20.85 0 0 1 2.2-5.59l.74-1.3.26-.32a.57.57 0 0 0 .09-.18.54.54 0 0 0 0-.28.49.49 0 0 0-.45-.3s-.35.1-.55.15l-.65.24a23.54 23.54 0 0 0-5 2.79l-.59.42-.29.22a.87.87 0 0 1-1.07 0 .9.9 0 0 1-.29-.5 1 1 0 0 1 0-.4l.33-1.42c.21-.95.41-1.91.58-2.86s.31-1.91.39-2.86a13.22 13.22 0 0 0 .06-1.4 3.46 3.46 0 0 0-.15-1.17c0-.14-.1-.08.08 0s.06 0-.06.1a5.14 5.14 0 0 0-.78 1 23 23 0 0 0-1.34 2.45c-.41.87-.8 1.76-1.16 2.66l-.54 1.34-.06.17v.09l-.1.21a.93.93 0 0 1-1.58 0 .92.92 0 0 1-.13-.56v-.72a42.86 42.86 0 0 0 0-5.78c0-.47-.11-.93-.2-1.36a3.14 3.14 0 0 0-.37-1.05c-.08-.1-.06 0 0 0a2.13 2.13 0 0 0-.17 0 4.75 4.75 0 0 0-.87.87 29.76 29.76 0 0 0-2.95 4.9c-.45.87-.87 1.74-1.28 2.63l-.61 1.33-.29.67-.15.33-.07.17v.15a.91.91 0 0 1-.16.24.89.89 0 0 1-1.12.15.9.9 0 0 1-.5-.44l-.13-.34-.29-.66c-.19-.44-.39-.88-.59-1.31s-.43-.85-.67-1.23a5.63 5.63 0 0 0-.36-.54c-.11-.15-.29-.28-.23-.25a.48.48 0 0 0 .41-.07c.07-.07 0 0 0 0a3.63 3.63 0 0 0-.15.55 7.15 7.15 0 0 0 .01 1.29 18.42 18.42 0 0 0 .39 2.81l.15.69v.18a1 1 0 0 1 0 .4.81.81 0 0 1-.3.51.87.87 0 0 1-1.07 0l-.17-.12a4.66 4.66 0 0 0-1.08-.7 8.7 8.7 0 0 0-2.61-.72 14.73 14.73 0 0 0-2.82-.1h-1.22a.47.47 0 0 0-.15.74c.17.18.34.38.51.58a11.88 11.88 0 0 1 .88 1.26 13.94 13.94 0 0 1 1.27 2.75.28.28 0 0 1-.5.25z" fill="#31323d"/><circle cx="67.82" cy="98.98" fill="#fff" r="14.49"/><circle cx="67.82" cy="98.98" fill="none" r="14.49" stroke="#31323d" stroke-linecap="round" stroke-miterlimit="10" stroke-width="1.117"/><circle cx="66.9" cy="94.51" fill="#f2495f" r="8.45"/><circle cx="66.9" cy="94.51" fill="#31323d" r="6.07"/><circle cx="71.6" cy="93.23" fill="#fff" r="2.06"/><path d="M54 94.72a14.5 14.5 0 0 1 26.23-3.3A58.58 58.58 0 0 0 54 94.72z" fill="#fd8480"/><path d="M54 94.72a14.5 14.5 0 0 1 26.23-3.3A58.58 58.58 0 0 0 54 94.72z" fill="none" stroke="#31323d" stroke-linecap="round" stroke-miterlimit="10" stroke-width="1.117"/><circle cx="126.42" cy="96.43" fill="#fff" r="14.49"/><circle cx="126.42" cy="96.43" fill="none" r="14.49" stroke="#31323d" stroke-linecap="round" stroke-miterlimit="10" stroke-width="1.117"/><circle cx="127.22" cy="92.97" fill="#f2495f" r="8.45"/><circle cx="127.22" cy="92.97" fill="#31323d" r="6.07"/><circle cx="132.05" cy="92.46" fill="#fff" r="2.07"/><path d="M140.28 92.17a14.5 14.5 0 0 0-26.23-3.29 58.36 58.36 0 0 1 26.23 3.29z" fill="#fd8480"/><path d="M140.28 92.17a14.5 14.5 0 0 0-26.23-3.29 58.36 58.36 0 0 1 26.23 3.29z" fill="none" stroke="#31323d" stroke-linecap="round" stroke-miterlimit="10" stroke-width="1.117"/><path d="M98.81 112.69a36.56 36.56 0 0 0 4.88 6 21.46 21.46 0 0 0 6.22 4.46 11.68 11.68 0 0 0 3.65 1 9.35 9.35 0 0 0 3.75-.41 10.92 10.92 0 0 0 3.38-1.8 18.32 18.32 0 0 0 2.81-2.69.19.19 0 0 1 .28 0 .2.2 0 0 1 0 .27 19.34 19.34 0 0 1-2.78 2.87 11.44 11.44 0 0 1-3.49 2 10.11 10.11 0 0 1-4.05.61 12.9 12.9 0 0 1-4-.92 22.84 22.84 0 0 1-6.76-4.44 38.17 38.17 0 0 1-5.35-6.05.84.84 0 0 1 .2-1.17.84.84 0 0 1 1.17.2z" fill="#31323d"/><path d="M75.19 122a14.58 14.58 0 0 0 6.79 3 9.86 9.86 0 0 0 7-1.51 17 17 0 0 0 5-5.33 32.5 32.5 0 0 0 1.8-3.28c.25-.57.53-1.13.77-1.71s.33-1.21 1-1.63a.66.66 0 0 1 .92.2.5.5 0 0 1 .09.23c.15.76-.29 1.28-.51 1.89s-.58 1.17-.87 1.75a33.92 33.92 0 0 1-2 3.37c-.36.54-.77 1.06-1.17 1.58s-.83 1-1.32 1.47a13.61 13.61 0 0 1-3.13 2.46 10.81 10.81 0 0 1-7.71 1.29 15 15 0 0 1-6.85-3.54.15.15 0 0 1 0-.19.13.13 0 0 1 .18 0z" fill="#31323d"/><path d="M90.4 109.93a1.66 1.66 0 0 1 .4-1.78c1-1 3.14-2.42 7.11-2.45s5.87 1.35 6.77 2.33a1.65 1.65 0 0 1 .28 1.8 2.31 2.31 0 0 1-2 1.37 4.49 4.49 0 0 0-3.69 1.8 1.59 1.59 0 0 1-.2.24 2 2 0 0 1-2.83-.15s-.81-1.39-3.81-1.63a2.3 2.3 0 0 1-2-1.5zm16.13 20.79a6.59 6.59 0 0 1-1.06 2.14 7.4 7.4 0 0 1-1.81 1.63 8.84 8.84 0 0 1-2.26 1 9.07 9.07 0 0 1-7-1.2 8.17 8.17 0 0 1-3.1-3.52.28.28 0 0 1 .14-.37.29.29 0 0 1 .34.07A10 10 0 0 0 99 134a7.92 7.92 0 0 0 5.62-1.92 9.3 9.3 0 0 0 1.37-1.6.29.29 0 0 1 .4-.07.29.29 0 0 1 .14.31z" fill="#31323d"/><path d="M91.68 130.81s.27 8.11 7.08 8c6.58-.14 7.45-7.72 7.45-7.72a8.77 8.77 0 0 1-6.68 3.32c-4.26-.05-7.85-3.6-7.85-3.6z" fill="#595959" opacity=".2"/><path d="M108.3 115a61.8 61.8 0 0 1 10.12-1.18 50.63 50.63 0 0 1 10.14.62 33.8 33.8 0 0 1 9.66 3.06 23.61 23.61 0 0 1 7.85 6.28 23.56 23.56 0 0 0-8-6 33.51 33.51 0 0 0-9.61-2.76 50.11 50.11 0 0 0-10-.33 59.92 59.92 0 0 0-9.91 1.43.56.56 0 0 1-.25-1.09zm19.32-5.51a57.4 57.4 0 0 0-16.87 3.08.55.55 0 0 1-.71-.34.56.56 0 0 1 .34-.71 57.31 57.31 0 0 1 17.24-2.03zm-17.79 8.1a14.19 14.19 0 0 1 5.24.09 18.06 18.06 0 0 1 4.8 1.92 26.1 26.1 0 0 1 4.09 3.06 28.32 28.32 0 0 1 3.42 3.76 26.83 26.83 0 0 0-3.61-3.54 24.08 24.08 0 0 0-4.17-2.79 17.26 17.26 0 0 0-4.68-1.59 13.39 13.39 0 0 0-4.85.18.56.56 0 0 1-.22-1.1zm-21.27.21c-3.35-.66-6.68-1.31-10-1.7a56.33 56.33 0 0 0-10.14-.34 30.39 30.39 0 0 0-9.87 2.17 19.48 19.48 0 0 0-8 6.11 19.57 19.57 0 0 1 7.89-6.37 30.7 30.7 0 0 1 9.94-2.47 55.93 55.93 0 0 1 10.27.07c3.41.3 6.8.86 10.15 1.43a.56.56 0 0 1 .46.64.57.57 0 0 1-.65.46zM69 111.24a30.29 30.29 0 0 1 17.54 2.11.56.56 0 0 1-.45 1A29.7 29.7 0 0 0 69 111.24zm18.11 9.21a10.88 10.88 0 0 0-4.82-.14 15.55 15.55 0 0 0-4.6 1.88 24.24 24.24 0 0 0-4 3.06 30.53 30.53 0 0 0-3.46 3.75 29.93 29.93 0 0 1 3.25-4 24 24 0 0 1 3.91-3.33 16.65 16.65 0 0 1 4.7-2.23 12 12 0 0 1 5.3-.12.56.56 0 1 1-.22 1.1h-.06z" fill="#31323d"/></g></svg>