<svg height="200" width="200" xmlns="http://www.w3.org/2000/svg" xmlns:xlink="http://www.w3.org/1999/xlink"><clipPath id="c"><path d="M-75-32.5h350v275H-75z"/></clipPath><clipPath id="d"><path d="M154.2 184.47c9 4 21.13 5.27 21.13 5.27s45.17 5.94 51.87-32.44c2.54-21.35-23-25.77-23-25.77s12-4.84 16.23-.93c0 0-2.4-4-6-4.31 0 0 15.39-10.54 27.77 13.53 0 0-1.61-12.26-6.57-14.72 0 0 18.54 4.29 21.81 31.85 0 0 3.42-5.49 3-10.08 0 0 8.84 13.16-.95 28.31 0 0 7.67-7.42 8.29-11.41 0 0 9.62 28-19.71 32.2 0 0 8 3 13.25.44 0 0-5.09 11.24-21.6 9.79 0 0 8 5.55 12.93 4.41 0 0-12.13 6.29-32.71 1.75 0 0 7 6.52 12.13 6.65l-1.37.34a81.55 81.55 0 0 1-45-2.13l-19.7-6.64-11.83-4.89z"/></clipPath><linearGradient id="a" gradientUnits="userSpaceOnUse" x1="209.06" x2="209.06" y1="228.29" y2="191.63"><stop offset="0" stop-color="gray"/><stop offset=".27" stop-color="#7d7d7d"/><stop offset=".46" stop-color="#747474"/><stop offset=".64" stop-color="#646464"/><stop offset=".8" stop-color="#4d4d4d"/><stop offset=".95" stop-color="#303030"/><stop offset="1" stop-color="#242424"/></linearGradient><linearGradient id="e" gradientTransform="rotate(26.38 -3717.362 4717.543)" x1="-2216.94" x2="-2216.94" xlink:href="#a" y1="-1076.09" y2="-1128.41"/><clipPath id="f"><path d="M187 219.66c-4.88-3.33-15-7-20.4-8.57h-.09a28.12 28.12 0 0 0 .72-17.68l-19.83-64.56c1.66-1.72 2.65-2.91 2.65-2.91 4.81 3.09 12.45-.39 15.55-2.06a.36.36 0 0 0-.17-.67c-6.09 0-14.74-4.72-14.74-4.72 6.89 1.83 9.53-.13 10.41-1.19a.35.35 0 0 0-.26-.58c-2.22-.1-9.76-1.4-15.25-13.89a86.97 86.97 0 0 0-2.41-5.07c-1.66-3.2-4.4-8.26-7.56-13.29l.15-.81 5.68-23.3a3.41 3.41 0 0 0-5.34-3.54l-14.89 11.05-.23.3-.55-.36a27.81 27.81 0 0 0-6.24-2.44l-.37-.09c1.14-3.24 4.64-5 4.64-5-4.07-3.82-11.34 2.21-11.34 2.21-4.2-4.06 2-11.65 2-11.65-7.35-3.34-12.8 9.69-12.8 9.69-.53-6.4-9.77-7.36-9.77-7.36 3.08 3.37 1.54 9.41 1.54 9.41-4.32-4.24-12.56-.28-12.56-.28a10.79 10.79 0 0 1 6.9 3.18l-.34.09a27.32 27.32 0 0 0-9 4.43l-14.86-9.25a3.4 3.4 0 0 0-5.07 3.82l6.53 23 .47 1.69c-1.55 3.69-2.73 7-3.38 8.91-.4 1.18-.86 2.35-1.37 3.49A29.06 29.06 0 0 1 37.25 119a.35.35 0 0 0 0 .68c2.34.65 8.27 2 12.59-2.39 0 0-4.23 5.87-9.44 8a.36.36 0 0 0 .09.69 18.87 18.87 0 0 0 10-2.11 28.56 28.56 0 0 1-4.63 5 .36.36 0 0 0 .26.64 13.84 13.84 0 0 0 5.16-1.35l.06 1.38c.06 1.32 1 2.74 2.42 4.16l-12.14 63.7a28.33 28.33 0 0 0 1.43 13.34h-.07c-4.32 1-14.8 4.93-20.93 8.89-3 1.94-1.15 6.34 2.63 6.27l30.32-.56c.51.31 1 .61 1.56.89v.38c.05 2.65-.75 4.81-3.4 4.94a3.59 3.59 0 0 0-3.47 2.39c-.54 2.45.66 4.42 3.09 4.59l9.56.57a8 8 0 0 0 8.41-6.58l.57-3h60.55l.39 2.35a8.14 8.14 0 0 0 4.9 6.17 6.22 6.22 0 0 0 2.52.45l10.43-.35c2.5-.25 3.41-1.78 3.16-4.19a3.14 3.14 0 0 0-2.78-2.9 3.07 3.07 0 0 1-3.19-2.48 28.07 28.07 0 0 0 7.42-3.19l29.67.58c3.77.04 5.61-4.28 2.61-6.3z"/></clipPath><linearGradient id="b" gradientUnits="userSpaceOnUse" x1="124.11" x2="141.19" y1="71.77" y2="71.77"><stop offset="0" stop-color="#efc95e"/><stop offset="1" stop-color="#c5a54d"/></linearGradient><linearGradient id="g" x1="53.86" x2="67.6" xlink:href="#b" y1="75.99" y2="75.99"/><linearGradient id="h" gradientUnits="userSpaceOnUse" x1="145.02" x2="145.02" y1="226.54" y2="65.28"><stop offset="0" stop-color="#fff" stop-opacity="0"/><stop offset=".72" stop-color="#fff"/></linearGradient><path d="M-75-32.5h350v275H-75z" fill="#fff8d2"/><g clip-path="url(#c)"><g clip-path="url(#d)"><path d="M149.17 121.32h122.2v100.96h-122.2z" fill="#fff18a"/><path d="M179.36 200.94c13.93 6.85 9.33 13.72 25.93 15 27.1 4.3 42.88-5.52 50.86-15.95l13-5.86-12.45 34.16-107.76-1.2 7-35.46s15.96 5.63 23.42 9.31z" fill="url(#a)" opacity=".2"/><path d="M216.25 144.18c1.11.22 15.23 1.27 13.85 20.53-1.42 20-16 25-40.7 23.47l29.6-31.87s-1.69-2.5-5.29-7.31-5-5.31-5-5.31a69.6 69.6 0 0 1 7.54.49z" fill="url(#e)" opacity=".2"/></g><path d="M152.21 184.84c9.16 4 21.54 5.3 21.54 5.3s46.06 6 52.88-32.64c2.59-21.48-23.49-25.93-23.49-25.93s12.18-4.86 16.54-.93c0 0-2.45-4-6.14-4.34 0 0 15.69-10.6 28.3 13.61 0 0-1.64-12.33-6.69-14.81 0 0 18.9 4.33 22.23 32.05 0 0 3.49-5.52 3.1-10.14 0 0 9 13.24-1 28.48 0 0 7.82-7.46 8.45-11.48 0 0 9.81 28.14-20.1 32.4 0 0 8.12 3 13.51.44 0 0-5.18 11.31-22 9.85 0 0 8.18 5.59 13.18 4.44 0 0-12.37 6.32-33.35 1.75 0 0 7.11 6.57 12.36 6.7 0 0-.49.13-1.39.34a84.32 84.32 0 0 1-45.85-2.14l-20-6.68-12.06-4.92z" fill="none" stroke="#31323d" stroke-linecap="round" stroke-linejoin="round" stroke-width="1.658"/><g clip-path="url(#f)"><path d="M19.47 34.79h172.54V242.5H19.47z" fill="#fff18a"/><path d="M71.38 230.89c-.63-1.66.36-6.44 2.34-16 1.19-5.73 2.14-9.47 2.73-11.92 4.4-18.37 1.83-20.38 5.67-31.32 2.63-7.48 5.35-14.88 12.6-18.38.86-.42 7.47-3.49 14.18-.79 6.54 2.62 9.22 9.14 11.95 16.1 3.31 8.41 2.27 11.32 6 32.37.78 4.38 1.55 8.76 2.34 13.14.47 2.57.91 5.15 1.36 7.72 1.07 6 1.1 6.14 1.07 6.38-1.08 8.89-55.2 15.93-60.24 2.7z" fill="#fff"/></g><g clip-path="url(#f)"><path d="M84.34 68.33C75.08 71 67.87 80.66 63.66 95.26c-1.23 3.88-7.34 23.55-7.12 30.68.24 7.79 4.33 12.37 3.59 12.37s-2.23-1.79-2.48-1.12c-.81 2.19-1.75 8.94-1.76 9-2.28 15.11-3.81 37.22-4.52 43a104.27 104.27 0 0 0-.78 11.17v.38c2.66 3 5.4 10.07 6 20.06l.15 5.56-1.73-1c-6-3.72-16.23-12.81-12.63-31.7 3.22-17-11.53-102.86-11.53-102.86l32-5a27.86 27.86 0 0 1 19.58-20.3z" fill="#efc95e"/><path d="M141.19 61.42s-2-4.9-9.25 2.75a21.4 21.4 0 0 1-7.83 6.13l11.66 13.36z" fill="url(#b)"/><path d="M54 67.32s-1.11-4.41 3.89-2.32c2.1.86 5.76 4.61 7.21 6.35l2.5 4-7.9 12.21z" fill="url(#g)"/><path d="M147.72 215.31s3.39-10.37 7.53-14.17c-4.48 8.51 1.59 10.52 3.18 10 6.1-2.17 8.51-7.56 9-17 0 0 2.37 10.89-2.3 20.1-3.42 6.73-13.08 11.9-17.84 14.49z" fill="#efc95e"/></g><g clip-path="url(#f)"><path d="M111.56 67.57s6.16 1.67 8.66 5.23 5 9.72 10 19.51c3.62 7 10.91 18.15 12.48 29.31.72 6.46-4 12.61-4.69 14 .13.39 4-3.62 4.13-3.23 7.43 21.87 13.71 48.1 16.77 61.68 5.23 23.23-9.22 32.45-9.22 32.45l6.93-4s7.15-8.49 8.23-12.21c2.35-8.16 15.77-3.75 13.3-16.76s-3.63-45.84-13.51-74.73c-4.41-12.88-27.52-35-27.52-35L134.05 82c-2.34-4.17-9.1-15.69-22.14-16.75z" fill="url(#h)" opacity=".5"/></g><path d="M121.22 67.87l14.89-11.05a3.41 3.41 0 0 1 5.34 3.54l-5.68 23.3-.15.81M73.11 70l-14.87-9.25a3.4 3.4 0 0 0-5.07 3.82l6.53 23 .47 1.69m87.23 39.59l19.84 64.53a28.42 28.42 0 0 1-20 35.16m-90.7-2.3a28.4 28.4 0 0 1-14.92-28.84l12.11-63.67" fill="none" stroke="#31323d" stroke-linecap="round" stroke-miterlimit="10" stroke-width="1.418"/><path d="M83.78 68.61a8.34 8.34 0 0 0-1.37-2.29 8.76 8.76 0 0 0-2-1.77 10.05 10.05 0 0 0-5-1.57.7.7 0 0 1-.61-.79.68.68 0 0 1 .41-.55 20 20 0 0 1 3.25-1.16 17 17 0 0 1 3.42-.57 10.8 10.8 0 0 1 3.52.33A7.34 7.34 0 0 1 88.57 62l-1.18.33a15.48 15.48 0 0 0 .33-2.31 13 13 0 0 0 0-2.34A7.16 7.16 0 0 0 86 53.62a.69.69 0 0 1 .1-1 .65.65 0 0 1 .53-.15 18.39 18.39 0 0 1 3.35.8 14.32 14.32 0 0 1 3.12 1.47 8.51 8.51 0 0 1 2.57 2.4 6.78 6.78 0 0 1 1.16 3.35l-1-.15a29.55 29.55 0 0 1 2.09-4 21.4 21.4 0 0 1 2.77-3.63 10.26 10.26 0 0 1 3.86-2.71 6.44 6.44 0 0 1 4.84.18.68.68 0 0 1 .39.89 1 1 0 0 1-.1.17 19.17 19.17 0 0 0-1.7 2.58 15.42 15.42 0 0 0-1.22 2.81 7.05 7.05 0 0 0-.31 2.89 4 4 0 0 0 1.2 2.41h-1a22.41 22.41 0 0 1 2.7-1.82 16.13 16.13 0 0 1 3-1.34 8.58 8.58 0 0 1 3.37-.44 5.36 5.36 0 0 1 3.28 1.41.71.71 0 0 1 0 1 .72.72 0 0 1-.24.16 16.36 16.36 0 0 0-2.24 1.15 12.9 12.9 0 0 0-2 1.5 7.82 7.82 0 0 0-1.57 1.92 4.92 4.92 0 0 0-.64 2.34.29.29 0 0 1-.28.29.29.29 0 0 1-.29-.27 5.41 5.41 0 0 1 .52-2.71 8.54 8.54 0 0 1 1.56-2.28 14.6 14.6 0 0 1 2-1.8 17.64 17.64 0 0 1 2.34-1.44l-.2 1.17a4 4 0 0 0-2.4-1.05 7.21 7.21 0 0 0-2.8.38 15.32 15.32 0 0 0-2.72 1.22 20.85 20.85 0 0 0-2.46 1.68.72.72 0 0 1-.94 0 5.5 5.5 0 0 1-1.64-3.28 8.37 8.37 0 0 1 .37-3.47 15.83 15.83 0 0 1 1.33-3.1 20.67 20.67 0 0 1 1.84-2.79l.26 1.09a5.06 5.06 0 0 0-3.82-.23 9.08 9.08 0 0 0-3.43 2.29 20 20 0 0 0-2.69 3.37 29 29 0 0 0-2.1 3.82.51.51 0 0 1-1-.16 5.85 5.85 0 0 0-1.06-2.79 7.53 7.53 0 0 0-2.3-2 12.75 12.75 0 0 0-2.88-1.25 17 17 0 0 0-3.09-.65l.59-1.19a8.65 8.65 0 0 1 2 4.9 14 14 0 0 1 0 2.59 15.31 15.31 0 0 1-.37 2.57.7.7 0 0 1-.84.53.67.67 0 0 1-.33-.18A5.94 5.94 0 0 0 85 61.61a9.46 9.46 0 0 0-3-.29 16 16 0 0 0-3.13.53 19.84 19.84 0 0 0-3 1.06l-.24-1.34A11.29 11.29 0 0 1 81 63.74a9.85 9.85 0 0 1 2 2.11 8.93 8.93 0 0 1 1.3 2.6.28.28 0 0 1-.54.18z" fill="#31323d"/><path d="M114.38 64.69a27.89 27.89 0 0 1 6.4 2.5 47.22 47.22 0 0 1 4 2.76 28.16 28.16 0 0 1 3.6 3.39 74.55 74.55 0 0 1 5.86 7.77A173.38 173.38 0 0 1 144 97.88l2.09 4.39 1 2.15c.34.71.75 1.38 1.12 2.07s.84 1.33 1.28 2 .91 1.28 1.44 1.85a18.12 18.12 0 0 0 3.39 3.16 14.25 14.25 0 0 0 4.07 2.08 11.26 11.26 0 0 0 2.2.43h.36a1.07 1.07 0 0 1 .74.48 1.1 1.1 0 0 1 .12.87 1.13 1.13 0 0 1-.21.39l-.11.13a5.68 5.68 0 0 1-1.07.9 9.18 9.18 0 0 1-5 1.15 21.67 21.67 0 0 1-4.91-.76l.52-1.31a53.65 53.65 0 0 0 7.42 3.22 33.27 33.27 0 0 0 3.88 1.06c.65.14 1.3.22 1.95.3h1a2.88 2.88 0 0 1 .38 0 1.07 1.07 0 0 1 .64.41 1.06 1.06 0 0 1-.11 1.4 1.13 1.13 0 0 1-.26.19l-.12.06-.23.12-.47.24-.94.46c-.63.3-1.27.57-1.93.83a27.3 27.3 0 0 1-4 1.25 16.07 16.07 0 0 1-4.28.37 8.87 8.87 0 0 1-4.23-1.3l.93-.14c-1.6 1.76-3.27 3.4-5 5a68.47 68.47 0 0 1-5.45 4.47.27.27 0 0 1-.39-.06.28.28 0 0 1 0-.38 67.58 67.58 0 0 0 5.11-4.75c1.62-1.66 3.19-3.4 4.62-5.18a.69.69 0 0 1 .86-.18h.07c2.1 1.35 4.89 1.29 7.44.74a24.66 24.66 0 0 0 3.81-1.18c.63-.25 1.24-.51 1.85-.8l.91-.44.44-.23.23-.11.11-.06h-.05a.36.36 0 0 0-.05.46.35.35 0 0 0 .22.14h-1.2a21 21 0 0 1-2.11-.32 32.72 32.72 0 0 1-4.05-1.11 53.91 53.91 0 0 1-7.65-3.32.7.7 0 0 1-.3-1 .71.71 0 0 1 .81-.36 20.11 20.11 0 0 0 4.58.71 7.82 7.82 0 0 0 4.25-.93 4 4 0 0 0 .77-.65l.08-.09a.39.39 0 0 0-.06.13.35.35 0 0 0 .28.44h-.24a13.22 13.22 0 0 1-2.52-.49 16.05 16.05 0 0 1-4.48-2.28 20.62 20.62 0 0 1-3.64-3.4c-.56-.61-1-1.3-1.52-1.95s-.91-1.38-1.34-2.08-.81-1.42-1.17-2.16l-1.05-2.2-2.05-4.32a171 171 0 0 0-9.63-16.6 74.42 74.42 0 0 0-5.74-7.62 26.71 26.71 0 0 0-3.41-3.08 47.31 47.31 0 0 0-3.92-2.68 26.59 26.59 0 0 0-6.08-2.35.71.71 0 1 1 .35-1.37zM60 138.56a36 36 0 0 1-6-3.92 12.38 12.38 0 0 1-2.51-2.73 5.4 5.4 0 0 1-.77-1.84c0-.18-.06-.36-.07-.52v-.44l-.07-.89 1.08.57a10.62 10.62 0 0 1-3.34 1.15c-.56.1-1.11.19-1.67.26l-.42.05a1.2 1.2 0 0 1-.56-.08 1.12 1.12 0 0 1-.47-.39 1.1 1.1 0 0 1 0-1.16 2.31 2.31 0 0 1 .47-.45 18.91 18.91 0 0 0 2.2-2.17c.71-.8 1.39-1.65 2-2.5l.88 1a23 23 0 0 1-5.75 1.94 18.58 18.58 0 0 1-3.08.3h-1.46a.9.9 0 0 1-.25-.06 1.07 1.07 0 0 1-.35-1.81 2.9 2.9 0 0 1 .51-.28l.32-.14a18.92 18.92 0 0 0 4.7-3.23 30.87 30.87 0 0 0 3.91-4.26l1.08.91a11 11 0 0 1-5 2.88 14.21 14.21 0 0 1-5.69.25c-.47-.07-.94-.15-1.39-.25l-.69-.16-.34-.09h-.17a1.14 1.14 0 0 1-.41-.21 1.07 1.07 0 0 1 .13-1.74l.22-.1h.24l.31-.1c.42-.15.84-.3 1.24-.47a28.93 28.93 0 0 0 4.72-2.45 27.81 27.81 0 0 0 7.67-7.43 30 30 0 0 0 2.69-4.58c.34-.84.69-1.59 1-2.5l1-2.49a112.81 112.81 0 0 1 8.83-20.06A32.22 32.22 0 0 1 68 73.82c.63-.72 1.26-1.37 1.9-2a26.34 26.34 0 0 1 2.1-1.88 28.11 28.11 0 0 1 9.89-5.08.71.71 0 0 1 .38 1.37 26.71 26.71 0 0 0-9.39 4.82c-.69.55-1.35 1.14-2 1.75s-1.27 1.3-1.83 2A30.6 30.6 0 0 0 66 79.09a111.2 111.2 0 0 0-8.71 19.8l-1 2.58c-.3.78-.71 1.69-1.06 2.53a30.12 30.12 0 0 1-2.82 4.81 29.33 29.33 0 0 1-8.07 7.63 31.28 31.28 0 0 1-4.98 2.56c-.43.18-.87.33-1.31.49l-.34.11-.16.06h-.09.07a.35.35 0 0 0 0-.58l-.11-.06h.16l.32.08.64.15q.64.14 1.29.24a12.82 12.82 0 0 0 5.13-.22 9.6 9.6 0 0 0 4.34-2.5.71.71 0 0 1 1.06.93 32.45 32.45 0 0 1-4.11 4.49 20.34 20.34 0 0 1-5 3.45l-.36.17c-.1 0-.33.16-.14 0a.35.35 0 0 0-.13-.61h-.06 1.31a16.75 16.75 0 0 0 2.83-.28 21.64 21.64 0 0 0 5.44-1.82.71.71 0 0 1 .88 1.06c-.67.91-1.37 1.77-2.11 2.61a19.72 19.72 0 0 1-2.44 2.39c-.09.06-.32.29-.15.1a.37.37 0 0 0 0-.39.41.41 0 0 0-.31-.16h.39c.54-.07 1.06-.15 1.58-.25a9.32 9.32 0 0 0 2.87-.95.7.7 0 0 1 1 .24.74.74 0 0 1 .1.35v1.69a3.84 3.84 0 0 0 .51 1.44 11.35 11.35 0 0 0 2.13 2.61 35.75 35.75 0 0 0 5.62 4.17.28.28 0 0 1 .1.39.29.29 0 0 1-.31.16z" fill="#31323d"/><path d="M83.88 98.24c0 10.84-3.74 13.19-9.79 12.06a27.44 27.44 0 0 0-9-.21c-6.42 1-10.67-1.65-10.61-11.41a14.84 14.84 0 0 1 14.35-14.84 14.62 14.62 0 0 1 15.05 14.4z" fill="#fff"/><path d="M83.88 98.24c0 10.84-3.74 13.19-9.79 12.06a27.44 27.44 0 0 0-9-.21c-6.42 1-10.67-1.65-10.61-11.41a14.84 14.84 0 0 1 14.35-14.84 14.62 14.62 0 0 1 15.05 14.4z" fill="none" stroke="#31323d" stroke-linecap="round" stroke-miterlimit="10" stroke-width="1.135"/><path d="M115 96.21c0 10.84 3.73 13.2 9.79 12.07a27.11 27.11 0 0 1 9-.21c6.42 1 10.68-1.65 10.62-11.42a14.85 14.85 0 0 0-14.4-14.83A14.6 14.6 0 0 0 115 96.21z" fill="#fff"/><path d="M115 96.21c0 10.84 3.73 13.2 9.79 12.07a27.11 27.11 0 0 1 9-.21c6.42 1 10.68-1.65 10.62-11.42a14.85 14.85 0 0 0-14.4-14.83A14.6 14.6 0 0 0 115 96.21z" fill="none" stroke="#31323d" stroke-linecap="round" stroke-miterlimit="10" stroke-width="1.135"/><path d="M106.31 117.86s.51 8.61-4.61 9.11c-7.76.77-6.53-7.29-6.53-7.29s2 3.79 4.66 3.16a11.43 11.43 0 0 0 6.48-4.98z" fill="#efc95e"/><path d="M95 120.32s-.12 4.55 5.63 4.63 5.87-7.93 5.87-7.93l-6.95-3.92z" fill="#f29cb1"/><path d="M99.78 113.59l.85 7.01" fill="none" stroke="#db829b" stroke-linecap="round" stroke-miterlimit="10" stroke-width="2.837"/><g fill="#31323d"><path d="M100.71 112a19.37 19.37 0 0 0 12.59 6.64c.61.08 1.23.05 1.84.08h.93l.92-.09c.61-.07 1.24-.09 1.85-.21l1.82-.4a10.18 10.18 0 0 0 1.79-.52l1.77-.61c1.15-.5 2.27-1.06 3.41-1.59a.19.19 0 0 1 .26.09.21.21 0 0 1-.09.26c-1.13.59-2.24 1.21-3.39 1.76l-1.78.71a10.41 10.41 0 0 1-1.81.61l-1.86.5c-.63.14-1.27.19-1.91.29l-1 .13h-2.94a20 20 0 0 1-7.51-2 20.2 20.2 0 0 1-6.23-4.65.85.85 0 1 1 1.26-1.14z"/><path d="M70.23 121.26a30.55 30.55 0 0 0 8.71 3 18.78 18.78 0 0 0 9-.3 14.42 14.42 0 0 0 4-2 15.12 15.12 0 0 0 3.22-2.96l.67-.9c.22-.3.4-.63.6-1a19.87 19.87 0 0 0 1.08-2c.34-.67.6-1.39.9-2.08s.35-1.48 1-2.06a.64.64 0 0 1 .9.07.59.59 0 0 1 .14.3 4.67 4.67 0 0 1-.55 2.34c-.34.72-.64 1.47-1 2.18a21.64 21.64 0 0 1-1.21 2.08c-.23.33-.44.68-.68 1l-.75 1a15.44 15.44 0 0 1-8 5.23 19.78 19.78 0 0 1-9.49 0 31.27 31.27 0 0 1-8.69-3.56.14.14 0 0 1 0-.19.13.13 0 0 1 .17 0z"/><path d="M92.24 109.82a1.7 1.7 0 0 1 .27-1.83c.93-1.08 3-2.7 7-3s6 .91 7 1.83a1.68 1.68 0 0 1 .43 1.79 2.36 2.36 0 0 1-2 1.56 4.57 4.57 0 0 0-3.56 2.08 1 1 0 0 1-.19.27 2 2 0 0 1-2.88.06s-.93-1.34-4-1.34a2.35 2.35 0 0 1-2.12-1.38zm19.2 2.05a79.84 79.84 0 0 1 18.81-1.78 76.43 76.43 0 0 1 9.43.82c1.55.27 3.11.5 4.64.86s3.07.73 4.59 1.15A73.36 73.36 0 0 1 181 132a73 73 0 0 0-32.22-18.51c-1.52-.4-3-.79-4.57-1.07s-3.07-.55-4.61-.79a76.9 76.9 0 0 0-9.34-.67 78.15 78.15 0 0 0-18.55 2 .57.57 0 1 1-.26-1.11zm-21.54 4.41a39.56 39.56 0 0 0-11.85 0 34.59 34.59 0 0 0-11.28 3.67 32.7 32.7 0 0 0-9.31 7.4 34.81 34.81 0 0 0-6.13 10.28 35.17 35.17 0 0 1 5.91-10.46 33.12 33.12 0 0 1 9.26-7.72 35.27 35.27 0 0 1 11.42-4 40.56 40.56 0 0 1 12.15-.28.57.57 0 0 1 .49.64.56.56 0 0 1-.63.49z"/><path d="M18 133.76A87 87 0 0 1 32.51 123a90.49 90.49 0 0 1 8.07-4.17 80.56 80.56 0 0 1 44.53-6.24.56.56 0 0 1 .48.64.57.57 0 0 1-.64.48 79.62 79.62 0 0 0-35.7 2.42 81.24 81.24 0 0 0-8.49 3.08c-2.76 1.21-5.47 2.56-8.1 4A87.14 87.14 0 0 0 18 133.76zm96.11-25.12l17-2.12c2.83-.35 5.67-.76 8.55-.84a52.43 52.43 0 0 1 8.59.4 53.08 53.08 0 0 1 16.41 4.84c5.1 2.59 10.12 5.27 15.19 7.9-5.11-2.54-10.19-5.15-15.31-7.64a53 53 0 0 0-24.85-4.79c-2.83.12-5.63.58-8.46 1l-17 2.4a.57.57 0 0 1-.64-.48.56.56 0 0 1 .48-.64zm-25.86 10.1a12.71 12.71 0 0 0-6.22 0 10.28 10.28 0 0 0-5.27 3.33 11.92 11.92 0 0 0-2.61 5.79 13.91 13.91 0 0 0 .5 6.43 14.08 14.08 0 0 1-.78-6.47 12.34 12.34 0 0 1 2.45-6.11 11 11 0 0 1 5.47-3.79 13.77 13.77 0 0 1 6.72-.31.57.57 0 1 1-.22 1.12zm25.97-4.74a14.47 14.47 0 0 1 7 .44 12.65 12.65 0 0 1 5.78 3.82 11.3 11.3 0 0 1 2.66 6.3 14 14 0 0 1-1.06 6.71 13.86 13.86 0 0 0 .78-6.68 10.9 10.9 0 0 0-2.81-6 11.86 11.86 0 0 0-5.6-3.37 13.13 13.13 0 0 0-6.5-.14.57.57 0 0 1-.67-.44.57.57 0 0 1 .43-.67z"/></g><path d="M93.93 134.94s.9 8.19 7.78 7.53c6.66-.64 7-8.38 7-8.38a8.88 8.88 0 0 1-6.51 3.86c-4.35.31-8.27-3.01-8.27-3.01z" fill="#efc95e"/><path d="M109 133.72a6.5 6.5 0 0 1-.91 2.24 7.65 7.65 0 0 1-1.71 1.79 8.8 8.8 0 0 1-2.22 1.14 9.19 9.19 0 0 1-2.44.43 9.48 9.48 0 0 1-4.75-1.11 8.27 8.27 0 0 1-3.4-3.33.28.28 0 0 1 .11-.39.29.29 0 0 1 .34.06 10.19 10.19 0 0 0 7.63 3.08 8.65 8.65 0 0 0 3.91-1.11 8.23 8.23 0 0 0 1.63-1.27 8.91 8.91 0 0 0 1.27-1.72.29.29 0 0 1 .53.2z" fill="#31323d"/><circle cx="70.46" cy="99.62" fill="#ef52d1" r="9.1"/><circle cx="70.2" cy="99.75" fill="#31323d" r="6.6"/><circle cx="73.91" cy="94.57" fill="#fff" r="3.51"/><circle cx="128.45" cy="96.86" fill="#ef52d1" r="9.11"/><circle cx="128.71" cy="96.98" fill="#31323d" r="6.6"/><circle cx="134.02" cy="91.8" fill="#fff" r="3.51"/></g></svg>