<svg height="200" width="200" xmlns="http://www.w3.org/2000/svg" xmlns:xlink="http://www.w3.org/1999/xlink"><clipPath id="b"><path d="M-75-32.5h350v275H-75z"/></clipPath><clipPath id="c"><path d="M256.46 156.67a32.44 32.44 0 0 1-3 8.38c-3.48-10.94-10.09-21.87-18.69-28.38-.2-.15-.51-.35-.92-.61a34.08 34.08 0 0 0-49.56 16c-.31.76-.74 1.78-.74 1.78a44.65 44.65 0 0 1 10.67-5.75s-2.2 3-3.89 5.28c-5.22 7-8.65 16.57-6 25.37.83 2.76 2.93 5.44 5.58 7.87-13.45 2.19-23 15.95-23 15.95l-12.86 15.17 18.78 3.91 10.69.39a76.39 76.39 0 0 0 22.07 3c26.88 0 45.8-17.63 49.78-36.57.31-1.48.62-3 1-4.44 1.31-5.58 3.87-19.29.09-27.35z"/></clipPath><linearGradient id="a" gradientUnits="userSpaceOnUse" x1="222.75" x2="222.75" y1="172.24" y2="117.71"><stop offset="0" stop-color="#fff" stop-opacity="0"/><stop offset=".72" stop-color="#fff"/></linearGradient><clipPath id="d"><path d="M256.46 156.32a31.88 31.88 0 0 1-2.95 8.35c-3.47-10.91-10.06-21.81-18.64-28.3-.2-.15-.51-.35-.92-.61a34 34 0 0 0-49.43 15.94c-.31.76-.74 1.77-.74 1.77a45.08 45.08 0 0 1 10.65-5.73s-2.2 3-3.89 5.27c-5.2 7-8.62 16.52-6 25.3.83 2.76 2.92 5.42 5.56 7.85-13.41 2.18-22.91 15.91-22.91 15.91l-12.8 15.13 18.73 3.9 10.66.38a76.07 76.07 0 0 0 22 3c26.8 0 45.67-17.58 49.64-36.47.31-1.48.63-3 1-4.44 1.26-5.57 3.82-19.21.04-27.25z"/></clipPath><linearGradient id="e" x1="222.85" x2="222.85" xlink:href="#a" y1="171.85" y2="117.46"/><clipPath id="f"><path d="M185.15 218.83c-4.76-3.26-14.67-6.84-19.93-8.37h-.08a27.51 27.51 0 0 0 .7-17.28L145 125.5c2-3.88 6.77-12.29 12.55-14 0 0-9.83-6.26-13.78 1.59 0 0 2.4-7.3 5.71-7.17 0 0-6-1.49-10.42.2l-6-19.42a26.57 26.57 0 0 0-5.23-9.89L136 63.7c-1.87-.94-13.39 3.84-16.66 6.41-1-.52-4.85-1.81-6-2.19a15.79 15.79 0 0 0-2-14.13 7.28 7.28 0 0 1-3.26 7.21c4.22-9.67-15.37-19.29-15.37-19.29a11.19 11.19 0 0 1-3.89 11.14C82.32 58.39 85 63.2 85 63.2s-3.75-1-3.48-4.61c-3.37 4-1.59 7.53.11 10a51.33 51.33 0 0 0-6.36 3.12l-.3-.57C70 67 61.14 65.64 59.91 67.36l7.15 12.77a26.69 26.69 0 0 0-3.66 10.4L59.88 109c-4.83-1.25-10.51 2-10.51 2 3.16-1 7.4 5.41 7.4 5.41-5.88-6.54-13.72 2.09-13.72 2.09 6 .09 11 7.49 12.93 11l-12.85 67.59a27.64 27.64 0 0 0 1.4 13h-.06C40.24 211.15 30 215 24 218.83c-2.94 1.9-1.12 6.19 2.57 6.12l29.58-.57q.75.45 1.53.87v.37c0 2.58-.74 4.7-3.32 4.83a3.51 3.51 0 0 0-3.36 2.33c-.53 2.39.64 4.31 3 4.48l9.34.56a7.88 7.88 0 0 0 7.27-3.82 8 8 0 0 0 1-2.65l.56-2.95h59.14l.38 2.29a8 8 0 0 0 4.79 6 5.93 5.93 0 0 0 2.46.44l10.18-.34c2.45-.24 3.34-1.74 3.09-4.09a3 3 0 0 0-2.71-2.83 3 3 0 0 1-3.11-2.43 27.24 27.24 0 0 0 7.25-3.11l29 .56c3.64.11 5.36-4.09 2.51-6.06z"/></clipPath><linearGradient id="g" x1="145.55" x2="145.55" xlink:href="#a" y1="225.55" y2="67.92"/><clipPath id="h"><path d="M132.62 84.89a11.75 11.75 0 0 0-12.76 2.56 14.38 14.38 0 1 0 24.3 12.18v-.36c.52-4.84-2.66-9.89-7-12.15-1.52-.84-3.06-1.62-4.54-2.23z"/></clipPath><clipPath id="i"><path d="M68.06 87.26a11.75 11.75 0 0 1 12.76 2.56A14.38 14.38 0 1 1 56.52 102v-.36c-.52-4.84 2.66-9.89 7-12.15a41.34 41.34 0 0 1 4.54-2.23z"/></clipPath><path d="M-75-32.5h350v275H-75z" fill="#ffd9fe"/><g clip-path="url(#b)"><g clip-path="url(#c)"><path d="M256.36 224.4H152.28v-98.51H262.1z" fill="#ff83e8"/><path d="M164.08 205.66s12.52-17.29 15.25-16.2c-11.18 13-2.9 20.59 2.55 22.21 22.12 6.54 58.84 12.3 73.81-18.25l-24.27 33.19-72-.34z" fill="#7f7f7f" opacity=".2"/><path d="M189.31 185a26.07 26.07 0 0 0-2.77.68c.39.42 4 11.52 15.41 13.19a.77.77 0 0 0 .82-1.06 10 10 0 0 1-.64-2.67" fill="#7f7f7f" opacity=".2"/><path d="M192 141.71s16.8-16.22 41.9.84c10.31 7.41 16 29.69 16 29.69l3.63-7.19-6.62-41.86-25.91-5.48-16.68 2.29z" fill="url(#a)" opacity=".5"/></g><g clip-path="url(#d)"><path d="M256.17 226.22l-103.62-2.35 29.37-101.27 82.07 6.63z" fill="none"/><path d="M175 200.27c5.62 3 12.11 9.27 13.16 15.57l.36 1.57a13.17 13.17 0 0 0 4.64 7.84l-39.33.82 3.68-34.49zM221.21 182a.69.69 0 0 1-1-.68l.27-3.08a16.84 16.84 0 0 1-4.85 3.71l-1.09.58c-2.25 1.21-4.57 2.45-6 4.46s-2.91 6-2 7.94a1.15 1.15 0 0 1-.23 1.32 1.21 1.21 0 0 1-.86.35 1.24 1.24 0 0 1-.56-.13 72.32 72.32 0 0 1-12-7.14c-.29-.21-.57-.43-.84-.64a8.06 8.06 0 0 0 1.08 8.34c6 8.41 12.38-1.91 19-.84s14.59-1.53 16.14-5.85c.84-2.34.14-7.73-2.31-11.51a22.37 22.37 0 0 1-4.75 3.17z" fill="#f14bd3"/><path d="M164.33 205.18s12.48-17.24 15.2-16.16c-11.15 13-2.89 20.54 2.55 22.15 22.06 6.53 58.69 12.28 73.62-18.19l-24.21 33.09-71.81-.33z" fill="#7f7f7f" opacity=".2"/><path d="M189.48 184.62a21.21 21.21 0 0 0-2.76.68c.4.41 3.94 11.48 15.38 13.14a.76.76 0 0 0 .81-1.05 9.47 9.47 0 0 1-.63-2.67" fill="#7f7f7f" opacity=".2"/><path d="M180.25 157.09c5.07-6.28 15.48-7.71 20.4-3 4.56 4.38-2.68 8.84 2.15 14.26s-2.23 9.17-8.45 11.61a12.84 12.84 0 0 1-11.78-1.32c-6.23-4.38-7.57-15.04-2.32-21.55z" fill="#f14bd3"/><path d="M192.18 141.4s16.75-16.19 41.79.83c10.29 7.4 15.92 29.62 15.92 29.62l3.62-7.18-6.6-41.74-25.8-5.47-16.65 2.23z" fill="url(#e)" opacity=".5"/></g><path d="M253.51 165.06c-3.47-10.94-10.09-21.88-18.7-28.39-.19-.15-.5-.35-.92-.61a34.07 34.07 0 0 0-49.55 16l-.74 1.78a44.65 44.65 0 0 1 10.67-5.75s-2.2 3-3.9 5.28c-5.22 7-8.64 16.57-6 25.37 2.29 7.62 14.27 14.59 20.65 17.61.46.22.94-.17.73-.63-1.07-2.38.7-6.69 2.11-8.65 1.77-2.48 4.68-3.8 7.34-5.26s5.39-3.42 6.18-6.35l-.56 6.39a22.71 22.71 0 0 0 9.89-9.63 21.94 21.94 0 0 0 2.1-5.61" fill="none" stroke="#31323d" stroke-linecap="round" stroke-linejoin="round" stroke-width="1.386"/><path d="M167 202.54s9.53-13.76 23-15.95" fill="none" stroke="#31323d" stroke-linecap="round" stroke-miterlimit="10" stroke-width="1.386"/><path d="M183.6 222a76.26 76.26 0 0 0 22.06 3c26.88 0 45.8-17.63 49.78-36.57.31-1.48.63-3 1-4.44 1.27-5.51 3.84-19.22 0-27.28 0 0-.53 3.93-4.2 10.85" fill="none" stroke="#31323d" stroke-linecap="round" stroke-linejoin="round" stroke-width="1.386"/><path d="M185.15 218.83c-4.76-3.26-14.67-6.84-19.93-8.37h-.08a27.51 27.51 0 0 0 .7-17.28L145 125.5c2-3.88 6.77-12.29 12.55-14 0 0-9.83-6.26-13.78 1.59 0 0 2.4-7.3 5.71-7.17 0 0-6-1.49-10.42.2l-6-19.42a26.57 26.57 0 0 0-5.23-9.89L136 63.7c-1.87-.94-13.39 3.84-16.66 6.41a26.77 26.77 0 0 0-3.22-1.36c1.74-8.06-4.69-15-4.69-15a7.28 7.28 0 0 1-3.35 7.25c4.22-9.67-15.37-19.29-15.37-19.29a11.19 11.19 0 0 1-3.89 11.14C82.32 58.39 85 63.2 85 63.2s-3.75-1-3.48-4.61a10.23 10.23 0 0 0-1.8 10.72 26.25 26.25 0 0 0-4.45 2.35l-.3-.57C70 67 61.14 65.64 59.91 67.36l7.15 12.77a26.69 26.69 0 0 0-3.66 10.4L59.88 109c-4.83-1.25-10.51 2-10.51 2 3.16-1 7.4 5.41 7.4 5.41-5.88-6.54-13.72 2.09-13.72 2.09 6 .09 11 7.49 12.93 11l-12.85 67.59a27.64 27.64 0 0 0 1.4 13h-.06C40.24 211.15 30 215 24 218.83c-2.94 1.9-1.12 6.19 2.57 6.12l29.58-.57q.75.45 1.53.87v.37c0 2.58-.74 4.7-3.32 4.83a3.51 3.51 0 0 0-3.36 2.33c-.53 2.39.64 4.31 3 4.48l9.34.56a7.88 7.88 0 0 0 7.27-3.82 8 8 0 0 0 1-2.65l.56-2.95h59.14l.38 2.29a8 8 0 0 0 4.79 6 5.93 5.93 0 0 0 2.46.44l10.18-.34c2.45-.24 3.34-1.74 3.09-4.09a3 3 0 0 0-2.71-2.83 3 3 0 0 1-3.11-2.43 27.24 27.24 0 0 0 7.25-3.11l29 .56c3.64.11 5.36-4.09 2.51-6.06z" fill="none"/><g clip-path="url(#f)"><path d="M21.84 38.2h165.91v202.31H21.84z" fill="#ff83e8"/><g fill="#f14bd3"><path d="M74 220.35c1.17-1 .19-4.84 1.1-8 .36-1.22-1.62-2-2.48-2.93a14.27 14.27 0 0 1-3.45-5.19c-1.61-5.28 2.8-10.55 2.94-16.07a10.23 10.23 0 0 0-6.77-9.82 9.22 9.22 0 0 0-10.79 4.52 8.83 8.83 0 0 0 1.41 9.41.55.55 0 0 0 .92-.58 8.13 8.13 0 0 1-.4-4.47A6.27 6.27 0 0 1 61 182.4a4.91 4.91 0 0 1 5.59 3.11c.68 2.19-.44 4.52-1.78 6.36s-3 3.58-3.58 5.79c-.66 2.48.13 5.07.61 7.59s.56 5.42-1.17 7.31a27.68 27.68 0 0 0-2.23 2.1c-2.2 3 1 7.6-.71 10.88-1.3 2.43-4.77 3-6.11 5.37-1.14 2.06-.18 4.81 1.65 6.27a10.4 10.4 0 0 0 6.61 1.87 17.6 17.6 0 0 0 9.56-2.58c2.82-1.83 3.32-4.81 3.82-8.15"/><ellipse cx="62.37" cy="187.92" rx="2.61" ry="2.63"/><path d="M56.82 204.83c-.74-2.08-.12-4.17.71-6.12a.33.33 0 0 1 .63.07 19.86 19.86 0 0 0 1.29 3.62 11 11 0 0 1 .66 6.53.33.33 0 0 1-.62.06c-.64-1.4-2.12-2.65-2.67-4.16zm72.73 15.52c-1.17-1-.19-4.84-1.11-8-.36-1.22 1.63-2 2.49-2.93a14.12 14.12 0 0 0 3.44-5.19c1.61-5.28-2.79-10.55-2.94-16.07a10.23 10.23 0 0 1 6.78-9.82 9.23 9.23 0 0 1 10.79 4.55 8.81 8.81 0 0 1-1.42 9.41.55.55 0 0 1-.91-.58 8 8 0 0 0 .39-4.47 6.27 6.27 0 0 0-4.56-4.85 4.92 4.92 0 0 0-5.6 3.11c-.67 2.19.45 4.52 1.79 6.36s3 3.58 3.57 5.79c.66 2.48-.12 5.07-.6 7.59s-.56 5.42 1.16 7.31a26.1 26.1 0 0 1 2.23 2.1c2.21 3-1.05 7.6.71 10.88.46.85-.53 2.89.27 3.44 1.49 1 5 .37 5.84 1.93 1.14 2.06.19 4.81-1.64 6.27a10.43 10.43 0 0 1-6.61 1.87 17.63 17.63 0 0 1-9.57-2.58c-2.81-1.83-3.32-4.81-3.82-8.15"/><ellipse cx="142.32" cy="187.95" rx="2.61" ry="2.63"/><path d="M146.69 204.83c.75-2.08.13-4.17-.7-6.12a.33.33 0 0 0-.63.07 19.86 19.86 0 0 1-1.29 3.62 11.05 11.05 0 0 0-.67 6.53.33.33 0 0 0 .63.06c.63-1.4 2.12-2.65 2.66-4.16zM83.25 69.06c-4.61 4.22-3.88 10.42 1.67 14.18s15.37 4.7 22.48 2.17c3.93-1.4 7.09-4 7-6.8-.1-3.72-6.14-6.71-12.08-6.56-3.41.08-6.87 1.1-8.65 2.93s-1.49 4.44 1.06 5.86a9.29 9.29 0 0 0 6.17.62.54.54 0 0 0-.08-1.06 5.76 5.76 0 0 1-2.77-.84 2.08 2.08 0 0 1-.34-3.47c1.24-1.09 3.75-1.46 5.74-1a4.77 4.77 0 0 1 3.72 3c.69 2.78-3.39 5.44-7.87 5.67a15.08 15.08 0 0 1-11.12-3.95c-2.3-2.36-2.45-5.36.47-7.67 2.09-1.65 6-2.84 9.25-3.14"/><path d="M79.67 69.85l2.91-1.69 1.82 3.43A91.15 91.15 0 0 1 100.24 69c2.32-.14 4.56-.39 7.16-.46a22.83 22.83 0 0 1 12.6 2.95l-.48-5.79.88-14.7-14.5-11.9H93.15l-10 1.7-6.67 8.72-4.91 9L73.8 64z"/><path d="M117.74 69.55l6.33 4.58L129.5 80l5.42 8.51s13.48-21.07 13.26-22S141 55.8 141 55.8l-4.56-2.07zm-41.15 1.56L59.33 58.57l-9.45 2.55-.44 5.9 10.49 28.16 3.56-8.35 3.1-6.31 2.73-3.29 4.21-3.91z"/></g><path d="M71.55 235.5c-.63-1.65.36-6.39 2.32-15.89 1.18-5.67 2.12-9.38 2.7-11.8 4.37-18.22 1.82-20.2 5.63-31 2.6-7.42 5.3-14.76 12.48-18.22.86-.42 7.41-3.46 14.06-.79 6.48 2.6 9.13 9.07 11.84 16 3.28 8.34 2.25 11.22 6 32.08q1.15 6.51 2.32 13c.46 2.54.9 5.1 1.35 7.65 1.06 6 1.08 6.08 1.05 6.32-1.12 8.78-54.76 15.76-59.75 2.65z" fill="#fff"/></g><g clip-path="url(#f)" fill="#7f7f7f" opacity=".2"><path d="M84.58 71.2C75.55 73.82 69.8 84 66.66 97.76c-.73 3.2-1.4 7-2 11.18a31.55 31.55 0 0 0-.33 4.89c0 4 .2 7.83.42 11a16.3 16.3 0 0 1-2.43 8.6 30.93 30.93 0 0 0-3.77 10.67.59.59 0 0 0 0 .14C56.26 159 53.36 183.39 52.66 189a99.47 99.47 0 0 0-.76 10.91v.37c2.61 2.88 5.28 9.84 5.83 19.6l.15 5.43s-3.48-.09-9-.09c-6.87 0-12.28-12.38-8.78-30.83 3.16-16.58-7.53-101.48-7.53-101.48L63.85 88s2-13.88 17.76-19.49zm-7.39 130.42c-2.7 16.37 6 19.76 7.59 20.12 9.59 1.72 24.81 1 29.76-.77 4.64-1.63 14.41-6.48 12-21l4.76 28.47H72.14zm69.59 12.96s3.31-10.13 7.35-13.84c-4.37 8.31 1.56 10.28 3.11 9.72 5.95-2.12 8.31-7.39 8.78-16.63l7.24 12.89s-6.1 28.38-22.62 23.72l-4.28-2z"/></g><g clip-path="url(#f)" opacity=".2"><path d="M112.41 69.57s6.94 2.33 9.38 5.8 5.77 9.57 8.16 20.06c1.91 8.4 4.24 20.34 7.61 30.82 1.3 4 3.3 6.14 4.67 10.24 7.3 21.74 14.33 43.86 17.37 57.36 5.11 22.7-9 31.7-9 31.7l6.78-3.93s7-8.29 8-11.93c2.3-8 15.41-3.65 13-16.37-3.51-18.45-25.26-112.44-25.26-112.44s-22.3 1.56-25.38-3.91c-2.29-4.08-8.7-7.36-14.35-9z" fill="url(#g)"/></g><path d="M146.47 130.12l19.37 63a27.76 27.76 0 0 1-19.48 34.35m-88.65-2.22a27.74 27.74 0 0 1-14.58-28.16L55 134.89" fill="none" stroke="#31323d" stroke-linecap="round" stroke-miterlimit="10" stroke-width="1.386"/><path d="M126.76 199.93c1.78 7.73 3 15.55 4.39 23.36l1 5.85.25 1.47a7.24 7.24 0 0 0 .35 1.29 7.53 7.53 0 0 0 1.38 2.29 6.34 6.34 0 0 0 4.62 2.22l5.9-.21 3-.09 1.47-.05a3.61 3.61 0 0 0 1.15-.3 2 2 0 0 0 1.18-1.73 5.4 5.4 0 0 0 0-1.27 3.17 3.17 0 0 0-.4-1.1 2 2 0 0 0-.76-.75 1.7 1.7 0 0 0-.49-.18 5.13 5.13 0 0 0-.66-.08 4.69 4.69 0 0 1-1.7-.51 3.56 3.56 0 0 1-1.33-1.31 6 6 0 0 1-.53-3.28l.06-3 .07-3c.05-1 .15-2 .3-3a29.47 29.47 0 0 1 1.57-5.86 29 29 0 0 1 2.71-5.4 29.74 29.74 0 0 1 3.69-4.73.24.24 0 0 1 .35 0 .26.26 0 0 1 0 .33 38.26 38.26 0 0 0-5.57 10.25 31.29 31.29 0 0 0-1.39 5.63 25.31 25.31 0 0 0-.27 2.87l-.05 3v3.74a4.57 4.57 0 0 0 0 .65 2.78 2.78 0 0 0 .34 1.12 2.29 2.29 0 0 0 1.9 1.07 6.36 6.36 0 0 1 .81.09 3.25 3.25 0 0 1 .9.33 3.54 3.54 0 0 1 1.34 1.29 4.48 4.48 0 0 1 .61 1.67 6.82 6.82 0 0 1 0 1.69 4.08 4.08 0 0 1-.6 1.72 3.43 3.43 0 0 1-1.43 1.22 5.44 5.44 0 0 1-1.7.46l-1.5.06-3 .11-6 .17a6.75 6.75 0 0 1-3.22-.78 9 9 0 0 1-2.56-2 8.61 8.61 0 0 1-1.65-2.78 8.43 8.43 0 0 1-.41-1.57l-.24-1.46-1-5.86c-1.28-7.82-2.62-15.63-3.46-23.52a.25.25 0 0 1 .49-.08z" fill="#31323d"/><path d="M145.16 125.89l6.61 21.51M139 105.74l-5.84-19a26.7 26.7 0 0 0-16.61-17.84l-2.93-1M60 108.48l3.41-18a26.76 26.76 0 0 1 16-21.1l2-.78m-28.02 74.55l2.49-13.07" fill="none" stroke="#31323d" stroke-linecap="round" stroke-miterlimit="10" stroke-width="1.386"/><path d="M56.58 131.48a39.21 39.21 0 0 0-2.52-4.15 32.36 32.36 0 0 0-3-3.76 17.73 17.73 0 0 0-3.67-3 8.53 8.53 0 0 0-4.32-1.3.69.69 0 0 1-.68-.7.66.66 0 0 1 .17-.45 18.44 18.44 0 0 1 3.15-2.65 12.84 12.84 0 0 1 3.75-1.79 7.51 7.51 0 0 1 4.28 0 8.08 8.08 0 0 1 3.54 2.32l-1.09.85a20.87 20.87 0 0 0-3-3.54 8.72 8.72 0 0 0-1.8-1.3 2.46 2.46 0 0 0-1.8-.3.69.69 0 0 1-.56-1.26 20.25 20.25 0 0 1 3.23-1.31 17.73 17.73 0 0 1 3.38-.74 11.94 11.94 0 0 1 3.48.07 8.18 8.18 0 0 1 3.22 1.34.28.28 0 0 1 .06.39.27.27 0 0 1-.37.07 7.45 7.45 0 0 0-3-1 10.63 10.63 0 0 0-3.23.13 16.41 16.41 0 0 0-3.13.89 19.66 19.66 0 0 0-2.92 1.4l-.56-1.26a3.82 3.82 0 0 1 2.85.38 9.57 9.57 0 0 1 2.1 1.52 19.64 19.64 0 0 1 1.73 1.81 24.48 24.48 0 0 1 1.5 2 .68.68 0 0 1-.18 1 .69.69 0 0 1-.9-.1 6.66 6.66 0 0 0-2.93-2 6.08 6.08 0 0 0-3.51 0 11.62 11.62 0 0 0-3.35 1.61 17.88 17.88 0 0 0-2.9 2.43l-.5-1.16a9.89 9.89 0 0 1 4.9 1.6 18.73 18.73 0 0 1 3.82 3.32 31.88 31.88 0 0 1 3 4 37.75 37.75 0 0 1 2.45 4.34.39.39 0 0 1-.19.52.39.39 0 0 1-.51-.18zm87.18-4.18a42.4 42.4 0 0 1 5.16-9.49 27.54 27.54 0 0 1 3.65-4.08 13 13 0 0 1 4.82-2.87l-.18 1.29a18.1 18.1 0 0 0-3.43-1.58 11.91 11.91 0 0 0-3.65-.66 6.11 6.11 0 0 0-3.37.9 6.59 6.59 0 0 0-2.28 2.66.75.75 0 0 1-1.37-.58 22.49 22.49 0 0 1 .94-2.32 21.2 21.2 0 0 1 1.2-2.19 10.09 10.09 0 0 1 1.65-2 3.8 3.8 0 0 1 2.66-1.11l-.2 1.37a23.6 23.6 0 0 0-3.41-.63 20.24 20.24 0 0 0-3.48-.09 11.78 11.78 0 0 0-3.38.66 7.13 7.13 0 0 0-2.85 1.83.27.27 0 0 1-.39 0 .28.28 0 0 1 0-.38 7.87 7.87 0 0 1 3-2.18 13.13 13.13 0 0 1 3.57-.92 21.45 21.45 0 0 1 3.67-.11 25.62 25.62 0 0 1 3.65.45.7.7 0 0 1 .51.84.71.71 0 0 1-.71.53 2.4 2.4 0 0 0-1.65.77 8.82 8.82 0 0 0-1.38 1.73 21.34 21.34 0 0 0-1.94 4.2l-1.38-.57a8.07 8.07 0 0 1 2.83-3.23 7.52 7.52 0 0 1 4.17-1.11 12.78 12.78 0 0 1 4.1.75 18.86 18.86 0 0 1 3.73 1.74.72.72 0 0 1-.16 1.29 11.6 11.6 0 0 0-4.29 2.55 27.28 27.28 0 0 0-3.48 3.86c-1.06 1.39-2 2.86-3 4.36s-1.8 3-2.6 4.61a.39.39 0 0 1-.71-.32z" fill="#31323d"/><path d="M75 71.09c-5-4.09-13.86-5.45-15.09-3.73l7.15 12.77m52.3-10.02c3.27-2.57 14.79-7.35 16.66-6.41l-8.12 13.15" fill="none" stroke="#31323d" stroke-linecap="round" stroke-miterlimit="10" stroke-width="1.386"/><path d="M84.37 71.52A15 15 0 0 1 81.53 69a10.62 10.62 0 0 1-2-3.31 7 7 0 0 1-.26-3.93 8.83 8.83 0 0 1 1.79-3.5.56.56 0 0 1 .79-.08.57.57 0 0 1 .2.43v.05a3.43 3.43 0 0 0 .8 2.5 4.23 4.23 0 0 0 1 .89 5.2 5.2 0 0 0 1.25.58l-.71.9a7.55 7.55 0 0 1 .21-6.44 14.76 14.76 0 0 1 4-4.88 10.84 10.84 0 0 0 3.15-4.67 10.48 10.48 0 0 0 .3-5.57.67.67 0 0 1 .51-.82.68.68 0 0 1 .47.05 55 55 0 0 1 5.84 3.46 40.58 40.58 0 0 1 5.33 4.21 19.3 19.3 0 0 1 4.22 5.48 9.23 9.23 0 0 1 .95 3.46 7.85 7.85 0 0 1-.63 3.58l-1-.88a6.72 6.72 0 0 0 1.42-1.22 6.35 6.35 0 0 0 1.58-3.41 7.79 7.79 0 0 0 0-1.93v-.13a.68.68 0 0 1 1.21-.41 13.71 13.71 0 0 1 2.14 4.16 14.39 14.39 0 0 1 .71 4.56 15 15 0 0 1-.71 4.52 19.08 19.08 0 0 1-1.89 4.13.39.39 0 0 1-.67-.39 18.4 18.4 0 0 0 1.67-4 14 14 0 0 0 .52-4.25 13.13 13.13 0 0 0-.8-4.17 12.51 12.51 0 0 0-2-3.66l1.21-.54a8.86 8.86 0 0 1 0 2.3 7.32 7.32 0 0 1-.64 2.22 8.16 8.16 0 0 1-3.06 3.43.68.68 0 0 1-.94-.23.67.67 0 0 1 0-.63 6.91 6.91 0 0 0-.3-5.9 18 18 0 0 0-3.92-5.06 40.85 40.85 0 0 0-5.15-4.08 55.25 55.25 0 0 0-5.68-3.35l1-.82a11.74 11.74 0 0 1-.38 6.35 12.09 12.09 0 0 1-3.56 5.26 13.33 13.33 0 0 0-3.68 4.41 7.38 7.38 0 0 0-.73 2.67 5.6 5.6 0 0 0 .43 2.61v.06a.61.61 0 0 1-.3.81.56.56 0 0 1-.44 0 6.39 6.39 0 0 1-1.58-.75 5.5 5.5 0 0 1-1.3-1.16 4.58 4.58 0 0 1-1-3.34l1 .4a7.66 7.66 0 0 0-1.65 3 5.91 5.91 0 0 0 .15 3.38 9.68 9.68 0 0 0 1.76 3.06 14.88 14.88 0 0 0 2.61 2.47.39.39 0 0 1-.45.63z" fill="#31323d"/><path d="M132.62 84.89a11.75 11.75 0 0 0-12.76 2.56 14.38 14.38 0 1 0 24.3 12.18v-.36c.52-4.84-2.66-9.89-7-12.15-1.52-.84-3.06-1.62-4.54-2.23z" fill="#fff"/><g clip-path="url(#h)"><circle cx="125.23" cy="98.23" fill="#f14bd3" r="9.72"/><circle cx="125.23" cy="98.23" fill="#31323d" r="7.17"/><circle cx="128.08" cy="92.23" fill="#fff" r="3.9"/></g><path d="M132.62 84.89a11.75 11.75 0 0 0-12.76 2.56 14.38 14.38 0 1 0 24.3 12.18v-.36c.52-4.84-2.66-9.89-7-12.15-1.52-.84-3.06-1.62-4.54-2.23z" fill="none" stroke="#31323d" stroke-linecap="round" stroke-miterlimit="10" stroke-width="1.108"/><path d="M68.06 87.26a11.75 11.75 0 0 1 12.76 2.56A14.38 14.38 0 1 1 56.52 102v-.36c-.52-4.84 2.66-9.89 7-12.15a41.34 41.34 0 0 1 4.54-2.23z" fill="#fff"/><g clip-path="url(#i)"><circle cx="76.16" cy="100.53" fill="#f14bd3" r="9.72"/><circle cx="76.16" cy="100.53" fill="#31323d" r="7.17"/><circle cx="79" cy="94.53" fill="#fff" r="3.9"/></g><path d="M68.06 87.26a11.75 11.75 0 0 1 12.76 2.56A14.38 14.38 0 1 1 56.52 102v-.36c-.52-4.84 2.66-9.89 7-12.15a41.34 41.34 0 0 1 4.54-2.23z" fill="none" stroke="#31323d" stroke-linecap="round" stroke-miterlimit="10" stroke-width="1.108"/><g fill="#31323d"><path d="M144.16 98.93s2.44-8.13 1.76-12.32c0 0-2.21 2.07-4 1.94l.72-2.62-5.81 1.34s6.96 3.95 7.33 11.66zm-87.92 3.16s-3-8-2.54-12.18c0 0 2.33 1.93 4.15 1.68L57 89l5.88 1s-6.76 4.37-6.64 12.09zm45.35 12.21a28.19 28.19 0 0 1-1.17 6.16 17.28 17.28 0 0 1-2.8 5.61 9.19 9.19 0 0 1-5.22 3.44 11.86 11.86 0 0 1-6.15-.45.2.2 0 0 1 .11-.39 11.29 11.29 0 0 0 5.85.12 8.22 8.22 0 0 0 4.55-3.36 16.07 16.07 0 0 0 2.31-5.35 27 27 0 0 0 .78-5.82.87.87 0 0 1 .89-.85.86.86 0 0 1 .85.88z"/><path d="M101.83 114.2a26.81 26.81 0 0 0 1.09 5.77 16.15 16.15 0 0 0 2.59 5.22 8.23 8.23 0 0 0 4.72 3.12 11.32 11.32 0 0 0 5.84-.43.2.2 0 0 1 .26.12.22.22 0 0 1-.12.26 11.8 11.8 0 0 1-6.12.77 9.12 9.12 0 0 1-5.4-3.15 17.29 17.29 0 0 1-3.1-5.45 27.8 27.8 0 0 1-1.49-6.09.87.87 0 0 1 1.72-.22v.08z"/><path d="M93.59 111.13a1.63 1.63 0 0 1 .34-1.76c1-1 3-2.47 6.94-2.61s5.81 1.17 6.72 2.11a1.63 1.63 0 0 1 .33 1.76 2.27 2.27 0 0 1-2 1.41 4.39 4.39 0 0 0-3.54 1.85 1.59 1.59 0 0 1-.2.24 1.94 1.94 0 0 1-2.78-.08s-.84-1.35-3.8-1.5a2.27 2.27 0 0 1-2-1.42zm14.96 8.87a81.4 81.4 0 0 1 19.15-2.33 79.56 79.56 0 0 1 9.64.58c1.59.23 3.19.42 4.77.75s3.15.66 4.71 1a74.8 74.8 0 0 1 33.25 18.58 74.51 74.51 0 0 0-33.39-18c-1.56-.36-3.11-.72-4.69-1s-3.15-.48-4.73-.68a78.08 78.08 0 0 0-9.55-.43 80.72 80.72 0 0 0-18.88 2.58.58.58 0 0 1-.71-.41.59.59 0 0 1 .42-.71zm-15.07 1.14a40.49 40.49 0 0 0-12.09-.26 35 35 0 0 0-11.6 3.49 33.2 33.2 0 0 0-9.67 7.35 35.71 35.71 0 0 0-6.49 10.35 36 36 0 0 1 6.27-10.54 34 34 0 0 1 9.62-7.68A36 36 0 0 1 81.27 120a41.24 41.24 0 0 1 12.4 0 .58.58 0 0 1 .49.66.57.57 0 0 1-.65.49z"/><path d="M19.67 137.39a89.18 89.18 0 0 1 15.08-10.71q4.06-2.25 8.33-4.08a82.71 82.71 0 0 1 45.6-5.38.58.58 0 0 1 .47.67.57.57 0 0 1-.66.47A81.4 81.4 0 0 0 52 120a84 84 0 0 0-8.74 3 92.2 92.2 0 0 0-8.36 3.93 89 89 0 0 0-15.23 10.46zm91.52-20.75l17.27-2.64c2.87-.43 5.77-.93 8.7-1.09a54.6 54.6 0 0 1 25.66 4.67c5.27 2.5 10.48 5.1 15.72 7.65-5.28-2.46-10.54-5-15.84-7.39a53.77 53.77 0 0 0-16.81-4.18 54.68 54.68 0 0 0-8.68 0c-2.88.21-5.73.75-8.61 1.23l-17.23 2.91a.58.58 0 1 1-.19-1.14zm-19.35 7a20.76 20.76 0 0 0-7.32.56 20 20 0 0 0-6.66 3.19 21.3 21.3 0 0 0-5.14 5.4 25.53 25.53 0 0 0-3.27 6.77 25.91 25.91 0 0 1 3-6.93 22.07 22.07 0 0 1 5-5.7 20.78 20.78 0 0 1 6.78-3.56 21.72 21.72 0 0 1 7.65-.89.58.58 0 0 1 .55.61.59.59 0 0 1-.61.55zm19.68-1.51a27.87 27.87 0 0 1 15.49 3.5 27.16 27.16 0 0 1 10.8 11.4 26.6 26.6 0 0 0-26.19-13.75.57.57 0 0 1-.63-.51.58.58 0 0 1 .51-.64zm-17.94 6.59c-.07 3.47 4.26 5.52 7.73 5.28 3.9-.27 6.93-4 6.93-5.95 0 0-7.41-4.36-7.6-15.94 0 0 .66 12.22-7.06 16.61zm13.19 9.76a6.61 6.61 0 0 1-1.25 2.14 7.76 7.76 0 0 1-2 1.56 8.92 8.92 0 0 1-2.41.82 9.74 9.74 0 0 1-2.53.08 9.62 9.62 0 0 1-4.58-1.82 8.43 8.43 0 0 1-3-3.86.31.31 0 0 1 .18-.38.32.32 0 0 1 .34.11 10.35 10.35 0 0 0 7.25 4.23 8.84 8.84 0 0 0 4.11-.55 8.6 8.6 0 0 0 1.84-1 9.76 9.76 0 0 0 1.53-1.55.3.3 0 0 1 .41 0 .29.29 0 0 1 .11.22z"/></g><path d="M91.4 137.52s-.3 8.41 6.75 8.74c6.82.33 8.27-7.45 8.27-7.45a9.11 9.11 0 0 1-7.15 3c-4.4-.37-7.87-4.29-7.87-4.29z" fill="#595959" opacity=".2"/><path d="M94.82 130.25a11.11 11.11 0 0 1 2.53-1.95.24.24 0 0 1 .23 0 .26.26 0 0 1 .15.26 20.56 20.56 0 0 0-.21 3.74 6.92 6.92 0 0 1-1.79-.62 2.27 2.27 0 0 1-.91-1.43zm9.58 1.75a31.81 31.81 0 0 0-.34-3.24s-.12-.4.1-.52 1.55.41 2.36 2.12a2.09 2.09 0 0 1-.69 1.12 2.82 2.82 0 0 1-1.43.52z" fill="#fff" stroke="#30313c" stroke-linecap="round" stroke-linejoin="round" stroke-width=".116"/></g></svg>