<svg height="252" width="200" xmlns="http://www.w3.org/2000/svg" xmlns:xlink="http://www.w3.org/1999/xlink"><clipPath id="d"><path d="M-24-37h248v320H-24z"/></clipPath><clipPath id="e"><path d="M179.5 143.22c6.16-2.64 12.09 3.64 13.37 6.72 4.38 10.49-4.5 17.77-4.5 17.77a36.07 36.07 0 0 1-14.34 8.1c-16 4.9-30.92-3.5-38.49-9l-3.16-2.27-3.3 12.78 20.11 7a78 78 0 0 0 20.88 1.07c8.94-.77 17-2.66 24.24-9.54 8.53-8.13 13.57-21.83 7.55-34.06-4.05-8.23-13.85-17.46-24.94-15.67-8.12 1.31-17.41 8.61-16.66 17 .53 5.84 5.89 12.05 12.14 12.21 4.41.11 10.22-2.76 10.22-6.7 0-3.14-3.72-6.66-9.2-7.24"/></clipPath><linearGradient id="a" gradientUnits="userSpaceOnUse" x1="165.47" x2="165.47" y1="190.23" y2="164.88"><stop offset="0" stop-color="gray"/><stop offset=".27" stop-color="#7d7d7d"/><stop offset=".46" stop-color="#747474"/><stop offset=".64" stop-color="#646464"/><stop offset=".8" stop-color="#4d4d4d"/><stop offset=".95" stop-color="#303030"/><stop offset="1" stop-color="#242424"/></linearGradient><linearGradient id="c" gradientUnits="userSpaceOnUse" x1="185.07" x2="185.07" y1="157.75" y2="112.75"><stop offset="0" stop-color="#fff" stop-opacity="0"/><stop offset=".72" stop-color="#fff"/></linearGradient><linearGradient id="f" x1="185.49" x2="185.49" xlink:href="#a" y1="175.04" y2="138.74"/><clipPath id="g"><path d="M79.59 79.91a18.41 18.41 0 0 1 10-2.91h12.11a18.55 18.55 0 0 1 8.3 2c1.88-1.47 6.87-5.24 9.94-5.09a1.16 1.16 0 0 1 .93 1.76l-4.95 8a18.51 18.51 0 0 1 3.63 6.85l22.68 73.79a19.1 19.1 0 0 1-.49 12h.06c3.65 1.06 10.51 3.54 13.82 5.8 2 1.36.78 4.29-1.78 4.24l-20.1-.38a19 19 0 0 1-5 2.15 2.07 2.07 0 0 0 2.16 1.68 2.12 2.12 0 0 1 1.88 2c.17 1.64-.45 2.67-2.14 2.84l-7.06.24a4 4 0 0 1-1.71-.31 5.5 5.5 0 0 1-3.32-4.17l-.26-1.59h-41l-.38 2a5.39 5.39 0 0 1-5.7 4.46l-6.48-.38a2.32 2.32 0 0 1-2.09-3.11 2.43 2.43 0 0 1 2.35-1.62c1.79-.09 2.33-1.55 2.3-3.34v-.26c-.37-.19-.72-.39-1.07-.61l-20.51.4c-2.56.05-3.82-2.93-1.78-4.24a58.14 58.14 0 0 1 14.18-6 19.1 19.1 0 0 1-1-9l14.07-74a18.49 18.49 0 0 1 2.54-7.21l-4.65-8.31a1.14 1.14 0 0 1 .06-1.23c1.92-2.68 6.87.65 10.06 3.28z"/></clipPath><linearGradient id="b" gradientUnits="userSpaceOnUse" x1="118.15" x2="118.15" y1="74.39" y2="84.64"><stop offset="0" stop-color="gray"/><stop offset=".14" stop-color="#797979"/><stop offset=".35" stop-color="#646464"/><stop offset=".6" stop-color="#434343"/><stop offset=".89" stop-color="#141414"/><stop offset="1"/></linearGradient><linearGradient id="h" x1="66.5" x2="76.8" xlink:href="#b" y1="81.62" y2="81.62"/><clipPath id="i"><path d="M79.8 79.91A18.42 18.42 0 0 1 89.74 77h12.13a18.38 18.38 0 0 1 8.27 2c1.87-1.48 6.85-5.23 9.92-5.08a1.15 1.15 0 0 1 .92 1.75l-4.94 8a18.49 18.49 0 0 1 3.62 6.85l22.64 73.64a19 19 0 0 1-.49 11.95h.06c3.64 1.06 10.5 3.53 13.79 5.79 2 1.36.78 4.28-1.77 4.24l-20.06-.39a19.1 19.1 0 0 1-5 2.15 2.07 2.07 0 0 0 2.15 1.68 2.11 2.11 0 0 1 1.88 2c.17 1.62-.45 2.66-2.14 2.83l-7 .23a4.15 4.15 0 0 1-1.71-.3 5.5 5.5 0 0 1-3.31-4.17l-.27-1.58H77.46l-.39 2a5.36 5.36 0 0 1-5.69 4.41l-6.46-.39a2.32 2.32 0 0 1-2.09-3.1 2.43 2.43 0 0 1 2.35-1.61c1.79-.09 2.33-1.56 2.3-3.34v-.26c-.36-.19-.72-.39-1.06-.6l-20.48.4c-2.55 0-3.81-2.93-1.77-4.24a58.14 58.14 0 0 1 14.15-6 19.14 19.14 0 0 1-1-9l14-73.74a18.59 18.59 0 0 1 2.53-7.2L69.3 77.6a1.16 1.16 0 0 1 .06-1.23c1.92-2.68 6.86.65 10 3.27z"/></clipPath><linearGradient id="j" x1="77.46" x2="118.38" xlink:href="#a" y1="178.68" y2="178.68"/><linearGradient id="k" x1="65.77" x2="65.77" xlink:href="#a" y1="79.07" y2="186.38"/><linearGradient id="l" x1="138.12" x2="138.12" xlink:href="#a" y1="164.58" y2="190.27"/><linearGradient id="m" x1="128.4" x2="128.4" xlink:href="#c" y1="186.53" y2="77.58"/><clipPath id="n"><path d="M84.29 97.87a3.13 3.13 0 0 1 .88 2.16 10 10 0 0 1-19.82 1.29c-.72-5.45 4.19-12.61 9.2-10.35a30.76 30.76 0 0 1 9.74 6.9z"/></clipPath><clipPath id="o"><path d="M107.71 97a3.12 3.12 0 0 0-.91 2.18 10 10 0 0 0 19.82 1.29c.72-5.45-4.19-12.61-9.2-10.35a30.64 30.64 0 0 0-9.71 6.88z"/></clipPath><path d="M-24-37h248v320H-24z" fill="#c4eefb"/><g clip-path="url(#d)"><ellipse cx="99.5" cy="186.5" fill="#97d2db" rx="57" ry="9.5"/><g clip-path="url(#e)"><g fill="#5b6fe8"><path d="M123.52 125.13h85.6v60.95h-85.6z"/><path d="M165.47 172.36s-2.92 13.52 8.2 13.87l27.9-8.94-21.33-8.58zm-10.86 1.58a10.17 10.17 0 0 0-1.42 6.81 10.84 10.84 0 0 0 3.83 6.46l-32.43.68 3-28.44z"/></g><path d="M167.71 129.92s6.26-1.84 9.79 2 1.78 9.18 1.64 11.49l8.21 9.12-20.56 7-8.43-5.14-4.56-14zm17.61-6s9 11.33.27 19.25l5.54 6.58s15.11-3.29.12-25.14z" fill="#83d6ff"/><path d="M193.41 158.14s11.81-4.38 9.62-17l3.28 17-8.22 19.14s-18.82.55-21.07-9.3z" fill="#83d6ff"/><path d="M144.66 171.32c9.76 4.74 6.53 9.48 18.17 10.37 19 3 30-3.82 35.62-11l9.14-4-8.75 23.61-75.49-.83 4.92-24.52s11.17 3.83 16.39 6.37z" fill="url(#a)" opacity=".2"/><path d="M160.26 143.06s7-17.22 25.27-10.45 18.57 25.14 18.57 25.14l12.24-24L195 114.33l-31.36-1.58L153.8 124z" fill="url(#c)" opacity=".5"/><path d="M179.64 139.43c.77-.21 10-4 15 8.41 5.25 12.81-2.39 20.45-18.33 27.2l8.76-28.94s-1.83-1-5.57-2.88-4.8-1.72-4.8-1.72a52.45 52.45 0 0 1 4.94-2.07z" fill="url(#f)" opacity=".2"/></g><path d="M179 142.32a8.36 8.36 0 0 1 4.71-.55 11.13 11.13 0 0 1 4.32 1.82 16.09 16.09 0 0 1 3.4 3.14 13.73 13.73 0 0 1 1.31 1.94 16.46 16.46 0 0 1 .85 2.19 14.68 14.68 0 0 1-.09 9.15 18.3 18.3 0 0 1-5.1 7.62 36 36 0 0 1-13.3 7.8c-1.21.43-2.49.71-3.74 1a17.38 17.38 0 0 1-1.91.36c-.64.09-1.27.24-1.92.28a39.61 39.61 0 0 1-7.75 0 46.35 46.35 0 0 1-14.77-4.4 61.49 61.49 0 0 1-6.73-3.76c-2.18-1.4-4.21-2.95-6.28-4.41l.88-.32-3.28 12.7-.37-.68 20 6.93h-.08a76.83 76.83 0 0 0 23 .82 44 44 0 0 0 11.15-2.55 30.34 30.34 0 0 0 9.64-6 32.21 32.21 0 0 0 10.41-19.76 25.31 25.31 0 0 0-1.21-11.19 25.84 25.84 0 0 0-2.44-5.12 29.7 29.7 0 0 0-3.4-4.56 28.37 28.37 0 0 0-4.16-3.89c-.73-.6-1.54-1.1-2.33-1.63a27.13 27.13 0 0 0-2.5-1.32 18.11 18.11 0 0 0-11-1.51 22.29 22.29 0 0 0-10.06 4.89c-2.87 2.4-5.19 5.69-5.56 9.38a10.67 10.67 0 0 0 .87 5.39 14.06 14.06 0 0 0 3.09 4.6 12.34 12.34 0 0 0 4.61 3 9.91 9.91 0 0 0 5.4.34 12.14 12.14 0 0 0 5-2.23 6.18 6.18 0 0 0 1.72-2 3.67 3.67 0 0 0 .32-2.48 7.19 7.19 0 0 0-3.29-4.18 12.59 12.59 0 0 0-2.52-1.25 15.25 15.25 0 0 0-2.76-.68.23.23 0 0 1 .05-.45 13.06 13.06 0 0 1 5.64 1.72 10 10 0 0 1 2.35 1.9 6.47 6.47 0 0 1 1.49 2.72 4.73 4.73 0 0 1-.33 3.16 7.14 7.14 0 0 1-2 2.41 13.15 13.15 0 0 1-5.48 2.5 11.2 11.2 0 0 1-6-.36 13.36 13.36 0 0 1-5-3.27 15.56 15.56 0 0 1-3.32-5 12 12 0 0 1-.92-5.94 13.13 13.13 0 0 1 2-5.67 18.87 18.87 0 0 1 3.94-4.46 23.41 23.41 0 0 1 10.6-5.14 19.23 19.23 0 0 1 11.65 1.59 26.41 26.41 0 0 1 2.63 1.39c.82.55 1.66 1.07 2.42 1.69a30 30 0 0 1 4.32 4 31.9 31.9 0 0 1 3.52 4.73 27 27 0 0 1 2.54 5.34 26.38 26.38 0 0 1 1.27 11.69 33.31 33.31 0 0 1-10.78 20.47 31.5 31.5 0 0 1-10 6.18 45.15 45.15 0 0 1-11.44 2.6 78.09 78.09 0 0 1-23.29-.83l-20-6.93-.49-.17.13-.51 3.28-12.7.2-.8.68.48c2.08 1.47 4.11 3 6.23 4.38a61.91 61.91 0 0 0 6.61 3.69 45.34 45.34 0 0 0 14.4 4.29 37.21 37.21 0 0 0 7.51 0c.63 0 1.24-.19 1.86-.27s1.24-.16 1.85-.34c1.21-.33 2.43-.59 3.62-1a34.9 34.9 0 0 0 12.88-7.55 17.26 17.26 0 0 0 4.75-7.1 13.52 13.52 0 0 0 .07-8.46 14.52 14.52 0 0 0-.76-2 10.74 10.74 0 0 0-1.2-1.76 14.32 14.32 0 0 0-3.15-2.92 9.94 9.94 0 0 0-3.87-1.64 7.19 7.19 0 0 0-4.07.47.57.57 0 0 1-.45-1z" fill="#31323d"/><g clip-path="url(#g)"><path d="M42.13 66.97h116.85v133.97H42.13z" fill="#5b6fe8"/><path d="M123.37 74.76s-2.92-2-7.84 3.19l-2.59 3.11 4.31 3.58z" fill="url(#b)" opacity=".4"/><path d="M66.5 77.84s2.12-1.46 5.5-.06a9.3 9.3 0 0 1 3.65 2.7l1.15 1.37-2.9 4.23z" fill="url(#h)" opacity=".4"/><path d="M77.28 189.67c-.42-1.12.25-4.36 1.59-10.85.81-3.88 1.45-6.41 1.85-8.07 1.79-7.46 4.15-18 5.22-22 .62-2.3 2.44-3.76 5.55-3.77a7.48 7.48 0 0 1 4.65 2 1.2 1.2 0 0 0 1.78 0 8 8 0 0 1 7.54-2.16c4.56 1.42 6.87 10.33 9.41 24.59.53 3 1 5.94 1.58 8.9.32 1.74.62 3.49.93 5.23a40.55 40.55 0 0 1 .72 4.32c-.75 6.01-37.4 10.77-40.82 1.81z" fill="#83d6ff"/><path d="M73.33 86.31s4-5.36 6.73-6.82-4.57-7.24-10.6-9.15a4.1 4.1 0 0 0-2.67.17 6.21 6.21 0 0 0-3.67 7.81l6.34 19zm43.94-1.11a21.56 21.56 0 0 0-6.84-5.81c-2.74-1.49 5-7.29 11-9.2a4 4 0 0 1 2.67.17 6.23 6.23 0 0 1 3.68 7.81l-6.19 19.44S119 87.53 117.27 85.2z" fill="#4b4956" opacity=".37"/><g fill="#83d6ff"><path d="M76.18 192.61L74 194.75l-3.39.45-8.13-.81v-3.34c2.51-1.16 4.85-4.47 4.85-4.47 2.89-1.54 3.88-6.12 4.37-10.24a.27.27 0 0 1 .54 0c.41 5 1.94 11.09 5.1 11.73.33 1.32-1.16 4.54-1.16 4.54zm52.39-5.8a13.5 13.5 0 0 1 4.36 4.24v3.34l-8.13.81-3.39-.45-2.15-2.14s-.6-3.31-1-5.8c4.43.12 5.26-6.69 5.36-10.94a.26.26 0 0 1 .52 0c.75 3.69 2.26 9.5 4.43 10.94z"/><path d="M57 171.26s-.44 7.61 10.17 15.25l-18.9 2.22-11-3.69.81-3.14zm85.54 2.18s-2.25 9.45-10.29 13.3l25.63.3v-6.14z"/></g></g><g clip-path="url(#i)" opacity=".2"><path d="M79.94 175.35c-1.71 7 4.66 9 6.38 9.14 3.16.24 15.61.44 22.07-.6 3.35-.54 8.38-5 6.7-15.06l3.29 19.7H77.46z" fill="url(#j)"/><path d="M81.46 79.07c-5.06 5.07-5.62 9.53-7.79 19-3.74 16.43-8.25 51.54-9.7 63.16a70.75 70.75 0 0 0-.52 7.55v.26c1.8 2 3.65 6.81 4 13.56l.1 3.76s-2.4-.06-6.21-.06c-4.76 0-8.5-8.57-6.08-21.34 2.19-11.47-5.21-70.22-5.21-70.22l21.64-3.4a18.32 18.32 0 0 1 9.77-12.27z" fill="url(#k)"/><path d="M129.11 178.93s2.29-7 5.09-9.57c-3 5.75 1.07 7.11 2.15 6.73 4.12-1.47 5.75-5.12 6.08-11.51l5 8.92s-4.22 19.63-15.65 16.41l-3-1.38z" fill="url(#l)"/></g><g clip-path="url(#i)" opacity=".2"><path d="M105.6 77.63s2.23 2.57 3.91 5 3.39 6.62 5 13.88c4.51 19.85 17.59 52.41 21.13 68.11s-3.93 21.94-3.93 21.94l4.69-2.72s4.83-5.74 5.56-8.26c1.59-5.51 10.66-2.53 9-11.32-2.43-12.77-23.45-74.44-23.45-74.44s-9.47-2.3-11.6-6.08c-1.58-2.82-5.61-5-9.52-6.13z" fill="url(#m)"/></g><path d="M118.38 188.53H77.46m-9.99-2.21a19.21 19.21 0 0 1-10.09-19.49l14-73.74A18.49 18.49 0 0 1 89.74 77h12.13a18.48 18.48 0 0 1 17.79 13.46l22.64 73.64a19.21 19.21 0 0 1-13.48 23.77" fill="none" stroke="#31323d" stroke-linecap="round" stroke-miterlimit="10" stroke-width=".959"/><g fill="#31323d"><path d="M81.12 170c-.55 4.67-1.44 9.28-2.29 13.89l-1.28 6.93a5.9 5.9 0 0 1-1.9 3.29 6.08 6.08 0 0 1-3.51 1.45 15.32 15.32 0 0 1-1.83-.06l-1.76-.09-3.55-.22a3 3 0 0 1-1.94-.75 2.81 2.81 0 0 1-.87-1.93 3.76 3.76 0 0 1 .08-1 2.26 2.26 0 0 1 .49-1 3.18 3.18 0 0 1 1.81-1 3 3 0 0 1 .51-.07h.37a1.71 1.71 0 0 0 .62-.24 1.89 1.89 0 0 0 .73-1.14 5.63 5.63 0 0 0 .13-1.61l-.07-1.75-.28-7a21.09 21.09 0 0 0-1-4.46 14.06 14.06 0 0 0-2.2-4 .17.17 0 0 1 0-.24.18.18 0 0 1 .23 0 12.17 12.17 0 0 1 2.64 3.95 18.23 18.23 0 0 1 1.17 4.62l.36 7 .08 1.76a6.47 6.47 0 0 1-.15 1.89 2.91 2.91 0 0 1-1.03 1.78 2.74 2.74 0 0 1-1 .4 4.53 4.53 0 0 1-.5.06l-.36.05c-2.25.19-1.9 3.82.3 3.61l3.51.2 1.75.11a14.2 14.2 0 0 0 1.69.06A4.86 4.86 0 0 0 75 193.3a4.74 4.74 0 0 0 1.58-2.68l1.33-6.91c.88-4.61 1.73-9.23 2.92-13.78a.18.18 0 0 1 .21-.12.18.18 0 0 1 .08.19z"/><path d="M70.88 191.38a1.45 1.45 0 0 0-.93.38 2.4 2.4 0 0 0-.59.87 6 6 0 0 0-.36 2.17.48.48 0 0 1-.5.46.47.47 0 0 1-.46-.5v-.07a7.05 7.05 0 0 1 .79-2.37 2.3 2.3 0 0 1 2.1-1.32.17.17 0 0 1 .15.19.19.19 0 0 1-.17.15zm-3.26-.38a1.76 1.76 0 0 0-.91.46 2.69 2.69 0 0 0-.59.86 5.61 5.61 0 0 0-.41 2.13.49.49 0 0 1-.49.47.48.48 0 0 1-.47-.5v-.06a6.49 6.49 0 0 1 .8-2.35 2.59 2.59 0 0 1 2.07-1.36.18.18 0 0 1 .17.17.16.16 0 0 1-.14.17zm47.64-22.2c1.23 5.35 2.11 10.76 3 16.16l.7 4 .17 1a5.58 5.58 0 0 0 .24.89 5 5 0 0 0 1 1.59 4.35 4.35 0 0 0 3.19 1.53l4.09-.14 2-.06h1a2.41 2.41 0 0 0 .8-.2 1.42 1.42 0 0 0 .81-1.2 3.24 3.24 0 0 0 0-.88 1.87 1.87 0 0 0-.27-.76 1.39 1.39 0 0 0-.53-.52 1 1 0 0 0-.34-.13l-.46-.05a3.23 3.23 0 0 1-1.17-.36 2.41 2.41 0 0 1-.92-.9 4.12 4.12 0 0 1-.37-2.27l.05-2.06v-2.06a18.44 18.44 0 0 1 .21-2.1 19.55 19.55 0 0 1 1.09-4.05 21 21 0 0 1 4.42-7 .18.18 0 0 1 .25 0 .18.18 0 0 1 0 .23 26.73 26.73 0 0 0-3.86 7.09 22 22 0 0 0-1 3.9 18.94 18.94 0 0 0-.19 2v4.11a3.21 3.21 0 0 0 .25 1.74 1.59 1.59 0 0 0 1.32.73c.12 0 .34 0 .56.07a2.45 2.45 0 0 1 .62.23 2.35 2.35 0 0 1 .93.89 3.31 3.31 0 0 1 .42 1.15 5.18 5.18 0 0 1 0 1.18 2.85 2.85 0 0 1-.42 1.18 2.38 2.38 0 0 1-1 .85 3.84 3.84 0 0 1-1.18.32h-1l-2.06.07-4.14.13a4.74 4.74 0 0 1-2.22-.55 6 6 0 0 1-2.92-3.3 6.59 6.59 0 0 1-.28-1.08l-.17-1-.66-4.05c-.89-5.41-1.81-10.81-2.39-16.27a.17.17 0 0 1 .15-.19.18.18 0 0 1 .28.14z"/><path d="M123.65 190.45a2.77 2.77 0 0 1 2.37 1.32 4.48 4.48 0 0 1 .54 1.3 8.89 8.89 0 0 1 .18 1.36.47.47 0 0 1-.45.51.49.49 0 0 1-.51-.45v-.07a6.85 6.85 0 0 0 0-1.2 3.81 3.81 0 0 0-.32-1.12 2.3 2.3 0 0 0-1.79-1.31.17.17 0 0 1-.15-.19.16.16 0 0 1 .13-.15zm3.89-.25a2.74 2.74 0 0 1 2.36 1.32 4.48 4.48 0 0 1 .54 1.3 7.81 7.81 0 0 1 .19 1.36.49.49 0 0 1-.45.51.48.48 0 0 1-.51-.45v-.08a8 8 0 0 0 0-1.2 3.59 3.59 0 0 0-.31-1.12 2.45 2.45 0 0 0-.72-.88 2.25 2.25 0 0 0-1.08-.42.18.18 0 0 1-.15-.19.16.16 0 0 1 .13-.15z"/></g><path d="M79.4 79.64c-3.18-2.62-8.12-6-10-3.27a1.16 1.16 0 0 0-.06 1.23l4.64 8.29M110.14 79c1.87-1.48 6.85-5.23 9.92-5.08a1.15 1.15 0 0 1 .92 1.75l-4.94 8m-57.73 92.2a58.14 58.14 0 0 0-14.15 6c-2 1.31-.78 4.28 1.77 4.24l21.51-.42" fill="none" stroke="#31323d" stroke-linecap="round" stroke-miterlimit="10" stroke-width=".959"/><path d="M51.34 182.21a3.67 3.67 0 0 0-2.07 1.23 1.45 1.45 0 0 0-.28 1 3 3 0 0 0 .33 1.08.48.48 0 0 1-.24.63.46.46 0 0 1-.63-.23 3.67 3.67 0 0 1-.27-1.48 2.26 2.26 0 0 1 .58-1.42 3.24 3.24 0 0 1 1.19-.81 5.63 5.63 0 0 1 1.34-.35.17.17 0 0 1 .06.34zm-3.64.16a2.1 2.1 0 0 0-1.55 1.24 1.94 1.94 0 0 0 0 1c0 .16.11.33.15.49l.23.48a.48.48 0 0 1-.87.41v-.06l-.19-.61c0-.21-.08-.42-.1-.64a2.61 2.61 0 0 1 .21-1.32 2.15 2.15 0 0 1 .91-1 3.19 3.19 0 0 1 1.19-.38.17.17 0 0 1 .19.15.16.16 0 0 1-.13.18z" fill="#31323d"/><path d="M141.87 176.09c3.64 1.06 10.5 3.53 13.79 5.79 2 1.36.78 4.28-1.77 4.24l-20.07-.4" fill="none" stroke="#31323d" stroke-linecap="round" stroke-miterlimit="10" stroke-width=".959"/><path d="M148.54 181.72a5.2 5.2 0 0 1 1.34.41 3.38 3.38 0 0 1 1.18.86 2.34 2.34 0 0 1 .58 1.44 4 4 0 0 1-.26 1.5.48.48 0 0 1-.92-.3 2.84 2.84 0 0 0 .33-1.1 1.62 1.62 0 0 0-.28-1.06 3.83 3.83 0 0 0-2.08-1.32.16.16 0 0 1-.11-.21.18.18 0 0 1 .22-.22zm3.64.15a3.37 3.37 0 0 1 1.19.45 2.38 2.38 0 0 1 .89 1 2.72 2.72 0 0 1 .23 1.34c0 .23-.07.44-.11.66l-.19.62a.49.49 0 0 1-.61.31.48.48 0 0 1-.31-.6v-.06l.23-.49c.05-.17.12-.34.15-.5a2.06 2.06 0 0 0 0-1 2.26 2.26 0 0 0-1.55-1.35.18.18 0 0 1 .08-.34zM66.57 97.92s-1.42-6.49-.43-9.25c0 0 1.24 1.69 2.51 1.83l-.16-1.88 3.78 1.65a7.87 7.87 0 0 0-5.7 7.65zM126 95.87s.08-6.64-1.44-9.14c0 0-.88 1.9-2.09 2.29l-.22-1.87-3.37 2.38a7.85 7.85 0 0 1 7.12 6.34z" fill="#31323d"/><path d="M84.29 97.87a3.13 3.13 0 0 1 .88 2.16 10 10 0 0 1-19.82 1.29c-.72-5.45 4.19-12.61 9.2-10.35a30.76 30.76 0 0 1 9.74 6.9z" fill="#fff"/><g clip-path="url(#n)"><circle cx="76.93" cy="99.79" fill="#48b3fc" r="8.06"/><circle cx="76.69" cy="99.94" fill="#31323d" r="6.37"/><circle cx="79.7" cy="94.58" fill="#fff" r="3.39"/></g><path d="M84.29 97.87a3.13 3.13 0 0 1 .88 2.16 10 10 0 0 1-19.82 1.29c-.72-5.45 4.19-12.61 9.2-10.35a30.76 30.76 0 0 1 9.74 6.9z" fill="none" stroke="#31323d" stroke-linecap="round" stroke-miterlimit="10" stroke-width=".767"/><path d="M107.71 97a3.12 3.12 0 0 0-.91 2.18 10 10 0 0 0 19.82 1.29c.72-5.45-4.19-12.61-9.2-10.35a30.64 30.64 0 0 0-9.71 6.88z" fill="#fff"/><g clip-path="url(#o)"><circle cx="115.05" cy="98.91" fill="#48b3fc" r="8.06"/><circle cx="115.28" cy="99.05" fill="#31323d" r="6.37"/><circle cx="112.27" cy="93.69" fill="#fff" r="3.39"/></g><path d="M107.71 97a3.12 3.12 0 0 0-.91 2.18 10 10 0 0 0 19.82 1.29c.72-5.45-4.19-12.61-9.2-10.35a30.64 30.64 0 0 0-9.71 6.88z" fill="none" stroke="#31323d" stroke-linecap="round" stroke-miterlimit="10" stroke-width=".767"/><path d="M98 109.77a10.55 10.55 0 0 0 .68 2.68 6.27 6.27 0 0 0 1.49 2.27 3.62 3.62 0 0 0 2.48.94 5 5 0 0 0 1.39-.15c.46-.11.91-.3 1.37-.45a.14.14 0 0 1 .17.09.13.13 0 0 1-.08.16c-.46.19-.9.42-1.37.58a5.76 5.76 0 0 1-1.49.27 4.21 4.21 0 0 1-2.94-.88 7 7 0 0 1-1.89-2.44 11.45 11.45 0 0 1-1-2.91.58.58 0 1 1 1.19-.23z" fill="#31323d"/><path d="M89.53 116.05a8.93 8.93 0 0 0 3-.32 5.67 5.67 0 0 0 2.53-1.43 5.45 5.45 0 0 0 1.42-2.46 8.59 8.59 0 0 0 .27-1.43v-.74c0-.24-.09-.49.22-.74a.57.57 0 0 1 .73 0c.28.27.13.55.14.82s0 .54-.08.8a10.72 10.72 0 0 1-.41 1.6 6.07 6.07 0 0 1-1.83 2.74 6.4 6.4 0 0 1-2.94 1.36 9.06 9.06 0 0 1-3.16 0 .09.09 0 0 1-.07-.1.1.1 0 0 1 .1-.08z" fill="#31323d"/><path d="M92.17 108.39a1.15 1.15 0 0 1 .18-1.24 6.78 6.78 0 0 1 4.74-2.05c2.68-.23 4.09.62 4.76 1.24a1.14 1.14 0 0 1 .29 1.21 1.58 1.58 0 0 1-1.33 1 3.08 3.08 0 0 0-2.4 1.41.83.83 0 0 1-.13.18 1.37 1.37 0 0 1-2 .05s-.63-.91-2.69-.91a1.6 1.6 0 0 1-1.44-.93zm11.3 15.39a4.62 4.62 0 0 1-.61 1.52 5.12 5.12 0 0 1-1.16 1.21 5.75 5.75 0 0 1-3.15 1.06 6.46 6.46 0 0 1-3.21-.75 5.6 5.6 0 0 1-2.3-2.25.2.2 0 0 1 .31-.23 6.9 6.9 0 0 0 5.16 2.09 6 6 0 0 0 2.64-.75 5.22 5.22 0 0 0 2-2 .19.19 0 0 1 .26-.08.17.17 0 0 1 .06.18z" fill="#31323d"/><path d="M93.31 124.61s.61 5.54 5.26 5.09 4.71-5.67 4.71-5.67a6 6 0 0 1-4.41 2.62c-2.87.2-5.56-2.04-5.56-2.04z" fill="#595959" opacity=".2"/><path d="M50.7 107.12a.78.78 0 0 0 .29 1.11 1.6 1.6 0 0 0 1.33.15 1.74 1.74 0 0 0 1-.9 3.2 3.2 0 0 0 .4-1.36 3.4 3.4 0 0 0-1-2.6 5.9 5.9 0 0 0-2.54-1.32 6.65 6.65 0 0 0-7.46 3.12 12.2 12.2 0 0 0-1.19 2.68 13.43 13.43 0 0 0-.68 5.73 13.19 13.19 0 0 0 1.82 5.46c1.93 3.41 5.54 5.4 9.08 7a19.89 19.89 0 0 0 11.3 1.54 19.4 19.4 0 0 0 10-5.35c1.43-1.32 2.52-2.83 3.93-4.39a25.12 25.12 0 0 1 4.71-4 23.54 23.54 0 0 1 5.59-2.66 11.18 11.18 0 0 1 6.49-.39 1.15 1.15 0 1 1-.63 2.21H93a9 9 0 0 0-5.2.2 21.48 21.48 0 0 0-5.19 2.25 22.35 22.35 0 0 0-4.47 3.53c-1.28 1.34-2.59 3-4.11 4.35a20.75 20.75 0 0 1-10.81 5.42 20.92 20.92 0 0 1-11.86-1.91c-.93-.38-1.79-.91-2.68-1.37s-1.7-1.06-2.54-1.61a13.86 13.86 0 0 1-5.09-16.15 13.07 13.07 0 0 1 1.34-2.7 7 7 0 0 1 7.89-3.17 6.41 6.41 0 0 1 2.72 1.34 3.67 3.67 0 0 1 1 2.81 3.4 3.4 0 0 1-.44 1.46 1.92 1.92 0 0 1-1.15 1 1.83 1.83 0 0 1-1.53-.18 1 1 0 0 1-.36-1.44.1.1 0 0 1 .16 0 .11.11 0 0 1 .02.14zm93.53-1.48a1 1 0 0 1-.32 1.45 1.87 1.87 0 0 1-1.53.21 2 2 0 0 1-1.18-1 3.54 3.54 0 0 1-.47-1.45 3.65 3.65 0 0 1 1-2.83 6.34 6.34 0 0 1 2.62-1.48 7.08 7.08 0 0 1 5.84.83 7.16 7.16 0 0 1 2.13 2.15 13.91 13.91 0 0 1-3.32 18.96c-.82.57-1.64 1.14-2.49 1.67s-1.72 1-2.65 1.43a19.61 19.61 0 0 1-22.75-3c-1.55-1.29-2.89-2.93-4.21-4.24a22 22 0 0 0-4.55-3.43 21.61 21.61 0 0 0-5.24-2.13 9.14 9.14 0 0 0-5.2-.08 1.15 1.15 0 0 1-.79-2.16 11.11 11.11 0 0 1 6.51.24 23.43 23.43 0 0 1 5.64 2.52 24.88 24.88 0 0 1 4.8 3.85c1.45 1.52 2.57 3 4 4.29a19.49 19.49 0 0 0 10.09 5.11 19.83 19.83 0 0 0 11.26-1.8c3.5-1.63 7.07-3.71 8.92-7.16a13.2 13.2 0 0 0 .87-11.22 12.19 12.19 0 0 0-1.31-2.6 6.66 6.66 0 0 0-7.53-2.94 5.79 5.79 0 0 0-2.51 1.38 3.36 3.36 0 0 0-.89 2.62 3.29 3.29 0 0 0 .43 1.36 1.71 1.71 0 0 0 1 .87 1.64 1.64 0 0 0 1.33-.18.78.78 0 0 0 .26-1.12.11.11 0 0 1 0-.16.11.11 0 0 1 .16 0z" fill="#31323d"/></g></svg>