<svg height="200" width="200" xmlns="http://www.w3.org/2000/svg" xmlns:xlink="http://www.w3.org/1999/xlink"><clipPath id="c"><path d="M-75-32.5h350v275H-75z"/></clipPath><clipPath id="d"><path d="M247.52 156.85a31.69 31.69 0 0 1-2.92 8.26c-3.42-10.79-9.95-21.57-18.43-28-.19-.14-.5-.35-.91-.6a33.6 33.6 0 0 0-48.87 15.76l-.73 1.75a44.31 44.31 0 0 1 10.52-5.66s-2.17 3-3.84 5.21c-5.14 6.89-8.52 16.33-5.91 25 .81 2.72 2.89 5.35 5.5 7.75-13.26 2.16-22.65 15.74-22.65 15.74L146.6 217l18.51 3.86 10.55.38a75.18 75.18 0 0 0 21.76 2.91c26.51 0 45.17-17.38 49.09-36.06.31-1.46.62-2.93 1-4.38 1.21-5.39 3.74-18.91.01-26.86z"/></clipPath><linearGradient id="a" gradientUnits="userSpaceOnUse" x1="214.28" x2="214.28" y1="172.2" y2="118.42"><stop offset="0" stop-color="#fff" stop-opacity="0"/><stop offset=".72" stop-color="#fff"/></linearGradient><clipPath id="e"><path d="M247.52 156.5a31.74 31.74 0 0 1-2.91 8.24c-3.41-10.76-9.92-21.51-18.38-27.91-.19-.15-.5-.35-.91-.61a33.52 33.52 0 0 0-48.74 15.72c-.31.76-.73 1.75-.73 1.75a44.36 44.36 0 0 1 10.5-5.65s-2.17 3-3.83 5.2c-5.14 6.87-8.51 16.29-5.91 24.95.82 2.72 2.89 5.35 5.49 7.74-13.22 2.15-22.59 15.69-22.59 15.69l-12.64 14.92 18.46 3.85 10.52.38a75.19 75.19 0 0 0 21.71 2.9c26.43 0 45-17.34 49-36 .31-1.46.62-2.92.95-4.37 1.21-5.39 3.74-18.87.01-26.8z"/></clipPath><linearGradient id="f" x1="214.37" x2="214.37" xlink:href="#a" y1="171.81" y2="118.17"/><clipPath id="g"><path d="M177.2 218.15c-4.7-3.21-14.47-6.74-19.65-8.25h-.09a27 27 0 0 0 .69-17l-19.1-62.16c1.59-1.66 2.54-2.8 2.54-2.8 4.64 3 12-.38 15-2a.34.34 0 0 0-.16-.64c-5.86 0-14.2-4.55-14.2-4.55 6.64 1.76 9.18-.12 10-1.14a.35.35 0 0 0-.23-.61c-2.14-.09-9.4-1.35-14.69-13.38-.73-1.65-1.49-3.28-2.32-4.88-1.6-3.08-4.24-8-7.28-12.8l.14-.78 5.47-22.45a3.28 3.28 0 0 0-5.14-3.41l-14.35 10.63-.23.29-.53-.35a26.35 26.35 0 0 0-6-2.35l-.36-.09c1.09-3.12 4.47-4.84 4.47-4.84-3.92-3.68-10.93 2.12-10.93 2.12-4-3.9 1.9-11.22 1.9-11.22-7.08-3.22-12.34 9.34-12.34 9.34-.5-6.16-9.4-7.09-9.4-7.09 3 3.24 1.48 9.06 1.48 9.06-4.16-4.08-12.1-.26-12.1-.26a10.35 10.35 0 0 1 6.65 3.06l-.33.09A26.09 26.09 0 0 0 67.48 74l-14.33-8.93a3.28 3.28 0 0 0-4.88 3.68l6.29 22.14.44 1.63c-1.49 3.55-2.63 6.76-3.25 8.58-.39 1.14-.83 2.27-1.32 3.37a28 28 0 0 1-17.5 16.73.34.34 0 0 0 0 .66c2.25.62 8 1.9 12.12-2.3 0 0-4.07 5.64-9.09 7.67a.35.35 0 0 0 .09.67 18.25 18.25 0 0 0 9.59-2 27.84 27.84 0 0 1-4.46 4.86.35.35 0 0 0 .25.62 13.26 13.26 0 0 0 5-1.31l.06 1.33c.05 1.28.93 2.64 2.33 4l-11.68 61.31a27.27 27.27 0 0 0 1.38 12.84h-.06c-4.17 1-14.26 4.74-20.17 8.56-2.89 1.87-1.11 6.1 2.53 6l29.18-.49c.5.3 1 .59 1.51.86v.36c0 2.55-.73 4.64-3.27 4.77a3.44 3.44 0 0 0-3.35 2.3c-.52 2.35.63 4.25 3 4.42l9.21.54a7.73 7.73 0 0 0 7.15-3.72 8.07 8.07 0 0 0 1-2.62l.55-2.91h58.32l.38 2.26a7.82 7.82 0 0 0 4.72 5.94 5.78 5.78 0 0 0 2.43.43l10-.33c2.41-.24 3.29-1.72 3.05-4a3 3 0 0 0-2.68-2.79 3 3 0 0 1-3.07-2.39 27 27 0 0 0 7.15-3.07l28.58.56c3.63.02 5.37-4.14 2.52-6.08z"/></clipPath><clipPath id="h"><path d="M177.73 218.63c-4.73-3.23-14.56-6.78-19.78-8.3h-.09a27.32 27.32 0 0 0 .7-17.15l-19.24-62.57c1.61-1.67 2.57-2.82 2.57-2.82 4.66 3 12.07-.39 15.08-2a.35.35 0 0 0-.17-.65c-5.9 0-14.29-4.58-14.29-4.58 6.68 1.77 9.25-.13 10.1-1.15a.35.35 0 0 0-.25-.57c-2.16-.1-9.47-1.36-14.79-13.47-.74-1.66-1.51-3.3-2.34-4.91-1.61-3.11-4.27-8-7.33-12.89l.15-.79 5.5-22.6a3.3 3.3 0 0 0-5.17-3.43l-14.44 10.68-.23.29-.54-.35a26.51 26.51 0 0 0-6-2.36l-.36-.09c1.1-3.14 4.5-4.88 4.5-4.88-4-3.7-11 2.14-11 2.14-4.07-3.93 1.92-11.3 1.92-11.3-7.13-3.24-12.42 9.4-12.42 9.4-.51-6.2-9.47-7.13-9.47-7.13 3 3.26 1.5 9.12 1.5 9.12-4.25-4.11-12.23-.27-12.23-.27a10.5 10.5 0 0 1 6.69 3.08l-.34.09a26.42 26.42 0 0 0-8.68 4.3l-14.42-8.95a3.31 3.31 0 0 0-4.92 3.71l6.33 22.29.46 1.64c-1.5 3.58-2.65 6.81-3.28 8.64a37.8 37.8 0 0 1-1.33 3.39A28.15 28.15 0 0 1 32.5 121a.35.35 0 0 0 0 .67c2.27.62 8 1.91 12.21-2.32 0 0-4.1 5.69-9.16 7.73a.34.34 0 0 0 .1.66 18.26 18.26 0 0 0 9.65-2 27.91 27.91 0 0 1-4.49 4.88.35.35 0 0 0 .25.63 13.15 13.15 0 0 0 5-1.32l.05 1.34c.06 1.29.94 2.66 2.35 4l-11.72 61.78A27.27 27.27 0 0 0 38.13 210h-.07c-4.19 1-14.36 4.78-20.3 8.62-2.92 1.89-1.12 6.15 2.55 6.08l29.37-.57c.5.3 1 .59 1.52.87v.37c0 2.56-.74 4.66-3.3 4.79a3.47 3.47 0 0 0-3.37 2.32c-.52 2.36.64 4.27 3 4.44l9.27.56a7.72 7.72 0 0 0 8.2-6.38l.55-2.93h58.72l.38 2.28a7.86 7.86 0 0 0 4.75 6 5.85 5.85 0 0 0 2.45.44l10.1-.33c2.43-.25 3.32-1.73 3.07-4.07a3 3 0 0 0-2.69-2.81 3 3 0 0 1-3.09-2.41 27.13 27.13 0 0 0 7.19-3.09l28.78.56c3.64.04 5.39-4.15 2.52-6.11z"/></clipPath><linearGradient id="b" gradientUnits="userSpaceOnUse" x1="124.84" x2="124.84" y1="64.22" y2="87.14"><stop offset="0" stop-color="gray"/><stop offset=".14" stop-color="#797979"/><stop offset=".35" stop-color="#646464"/><stop offset=".6" stop-color="#434343"/><stop offset=".89" stop-color="#141414"/><stop offset="1"/></linearGradient><linearGradient id="i" x1="48.93" x2="62.17" xlink:href="#b" y1="79.75" y2="79.75"/><linearGradient id="j" x1="138.6" x2="138.6" xlink:href="#a" y1="224.78" y2="69.43"/><clipPath id="k"><circle cx="122.12" cy="100.6" r="14.23"/></clipPath><path d="M-75-32.5h350v275H-75z" fill="#d7d7ff"/><g clip-path="url(#c)"><g clip-path="url(#d)"><path d="M247.43 223.64H144.79v-97.15h108.29z" fill="#7777ad"/><g fill="#7f7f7f"><path d="M156.42 205.16s12.34-17 15-16c-11 12.83-2.86 20.3 2.51 21.89 21.82 6.46 58 12.14 72.8-18l-23.94 32.73-71-.33z" opacity=".2"/><path d="M181.3 184.83a20.91 20.91 0 0 0-2.74.67c.4.41 3.9 11.36 15.21 13a.75.75 0 0 0 .8-1 9.46 9.46 0 0 1-.62-2.64m30.05-27.5s-2.14 11.08-5.75 15.13a12.6 12.6 0 0 1-7.62 4.1.4.4 0 0 1-.44-.47A8.11 8.11 0 0 0 210 183s-13.28 7.05-12.4 12.63c0 0-1.75-7.86 7.4-13s7.62-7.14 7.62-7.14l-.19 6c6.16-1.23 11.57-14.13 11.57-14.13z" opacity=".2"/></g><path d="M184 142.1s16.57-16 41.33.82C235.45 150.23 241 172.2 241 172.2l3.57-7.09-6.52-41.28-25.51-5.41-16.47 2.21z" fill="url(#a)" opacity=".5"/></g><g clip-path="url(#e)"><path d="M247.24 225.44l-102.19-2.32 28.96-99.88 80.94 6.54z" fill="none"/><path d="M167.21 199.85c5.54 3 11.94 9.14 13 15.35l.35 1.55a13 13 0 0 0 4.58 7.73l-38.79.81 3.63-34zm45.55-17.99a.66.66 0 0 1-.68-.05.68.68 0 0 1-.3-.62l.27-3a16.68 16.68 0 0 1-4.79 3.65c-.35.2-.71.39-1.07.58-2.21 1.19-4.51 2.42-5.92 4.39s-2.87 5.93-2 7.83a1.17 1.17 0 0 1-.23 1.31 1.24 1.24 0 0 1-.85.34 1.38 1.38 0 0 1-.56-.12 72.63 72.63 0 0 1-11.78-7l-.83-.64a8 8 0 0 0 1.07 8.23c5.88 8.29 12.21-1.88 18.75-.83s14.39-1.51 15.92-5.77c.83-2.3.14-7.62-2.28-11.35a22.37 22.37 0 0 1-4.72 3.05z" fill="#51517a"/><g fill="#7f7f7f"><path d="M156.66 204.68s12.31-17 15-15.93c-11 12.8-2.86 20.26 2.51 21.84 21.75 6.44 57.88 12.11 72.6-17.94l-23.88 32.64-70.81-.29z" opacity=".2"/><path d="M181.47 184.41a20.58 20.58 0 0 0-2.72.67c.39.4 3.88 11.33 15.16 13a.75.75 0 0 0 .8-1 9.65 9.65 0 0 1-.62-2.62M224.08 167s-2.14 11-5.74 15.08a12.48 12.48 0 0 1-7.6 4.09.39.39 0 0 1-.44-.46 8 8 0 0 0-.25-3.08s-13.24 7-12.37 12.59c0 0-1.74-7.84 7.39-13s7.59-7.13 7.59-7.13l-.18 6c6.19-1.24 11.6-14.09 11.6-14.09z" opacity=".2"/></g><path d="M172.37 157.26c5-6.2 15.26-7.6 20.11-2.94 4.5 4.31-2.64 8.71 2.13 14.06s-2.21 9-8.34 11.45a12.63 12.63 0 0 1-11.61-1.31c-6.15-4.32-7.48-14.84-2.29-21.26z" fill="#51517a"/><path d="M184.13 141.79s16.52-16 41.22.82c10.14 7.29 15.7 29.2 15.7 29.2l3.56-7.07-6.51-41.17-25.44-5.4-16.42 2.21z" fill="url(#f)" opacity=".5"/></g><path d="M244.61 165.12c-3.42-10.79-10-21.57-18.43-28-.2-.14-.51-.35-.92-.6a33.6 33.6 0 0 0-48.87 15.76l-.73 1.75a44.29 44.29 0 0 1 10.53-5.66s-2.17 3-3.84 5.21c-5.15 6.89-8.53 16.33-5.92 25 2.26 7.5 14.07 14.38 20.36 17.36.46.21.93-.17.73-.63-1.07-2.34.68-6.59 2.07-8.53 1.75-2.43 4.62-3.74 7.24-5.18s5.31-3.37 6.09-6.27l-.55 6.31a22.34 22.34 0 0 0 9.76-9.5 21.43 21.43 0 0 0 2.06-5.53" fill="none" stroke="#31323d" stroke-linecap="round" stroke-linejoin="round" stroke-width="1.366"/><path d="M159.28 202.09s9.39-13.58 22.65-15.74" fill="none" stroke="#31323d" stroke-linecap="round" stroke-miterlimit="10" stroke-width="1.366"/><path d="M175.66 221.28a75.2 75.2 0 0 0 21.77 2.91c26.5 0 45.16-17.38 49.09-36.06.3-1.46.62-2.93.95-4.38 1.26-5.43 3.79-18.95.05-26.9 0 0-.52 3.87-4.14 10.69" fill="none" stroke="#31323d" stroke-linecap="round" stroke-linejoin="round" stroke-width="1.366"/><g clip-path="url(#g)"><path d="M15.81 40.06h166.21V245H15.81z" fill="#9eefc5"/><path d="M65.81 229c-.61-1.6.35-6.21 2.26-15.44 1.14-5.52 2.06-9.12 2.62-11.48 4.24-17.7 1.77-19.63 5.47-30.17 2.53-7.2 5.15-14.34 12.13-17.71.84-.4 7.21-3.36 13.67-.76 6.3 2.53 8.88 8.81 11.51 15.51 3.18 8.11 2.18 10.9 5.8 31.19.75 4.22 1.49 8.44 2.25 12.66.45 2.47.88 4.95 1.32 7.43 1 5.82 1 5.92 1 6.14-1.04 8.56-53.18 15.34-58.03 2.63z" fill="#eff9f9"/></g><g clip-path="url(#h)"><path d="M15.26 38.94h166.11v200.73H15.26z" fill="#7777ad"/><path d="M65.59 229.52c-.61-1.6.36-6.25 2.28-15.54 1.15-5.55 2.07-9.18 2.64-11.55C73.07 191.75 76.46 176.7 78 171c.89-3.31 3.49-5.4 8-5.41a10.68 10.68 0 0 1 6.66 2.85 1.73 1.73 0 0 0 2.55-.05c2.5-2.75 7.41-4.15 10.8-3.09 6.52 2 9.82 14.79 13.46 35.21q1.14 6.38 2.27 12.74c.45 2.5.88 5 1.32 7.49 1 5.85 1.06 6 1 6.18-1.06 8.61-53.58 15.43-58.47 2.6zM59.93 81.51s5.79-7.67 9.65-9.76S63 61.39 54.39 58.65a5.85 5.85 0 0 0-3.82.24 8.9 8.9 0 0 0-5.26 11.18l8.86 23.3zm62.92-1.59a30.91 30.91 0 0 0-9.79-8.32c-3.92-2.13 7.17-10.43 15.81-13.17a5.85 5.85 0 0 1 3.82.24A8.9 8.9 0 0 1 138 69.85l-7 22-3.75-5.63s-1.86-2.96-4.4-6.3z" fill="#51517a"/></g><g clip-path="url(#g)"><path d="M78.29 72.37C69.38 75 62.43 84.25 58.38 98.32c-1.19 3.73-7.07 22.68-6.86 29.55.23 7.5 4.17 11.92 3.46 11.92s-2.16-1.73-2.4-1.08a71.65 71.65 0 0 0-1.69 8.64c-2.2 14.55-3.67 35.85-4.36 41.41a99.21 99.21 0 0 0-.74 10.76v.36c2.57 2.84 5.21 9.71 5.75 19.33l.14 5.35s-3.42-.08-8.85-.08c-6.78 0-12.12-12.21-8.65-30.41C37.27 177.73 26.73 94 26.73 94l30.84-4.84A26.83 26.83 0 0 1 76.44 69.6z" fill="#6b6c9a"/><path d="M133.06 65.71s-1.91-4.72-8.91 2.65a20.69 20.69 0 0 1-7.54 5.91l11.23 12.87z" fill="url(#b)" opacity=".4"/><path d="M49 71.4s-1-4.25 3.8-2.27c2 .83 5.54 4.44 6.94 6.12l2.41 3.83-7.59 11.81z" fill="url(#i)" opacity=".4"/><path d="M70.73 201.17c-2.66 16.15 5.93 19.49 7.49 19.85 9.45 1.69 24.47 1 29.35-.76 4.57-1.61 14.2-6.39 11.8-20.71l4.7 28.07H65.75z" fill="#7f7f7f" opacity=".2"/><path d="M139.35 214s3.27-10 7.25-13.64c-4.31 8.19 1.54 10.13 3.07 9.59 5.87-2.1 8.19-7.29 8.66-16.41l7.14 12.72s-6 28-22.3 23.39l-4.23-2z" fill="#6b6c9a"/></g><g clip-path="url(#g)"><path d="M106.37 71.63s5.93 1.62 8.34 5 4.8 9.36 9.66 18.8c3.48 6.78 10.5 17.48 12 28.24.69 6.22-3.83 12.14-4.52 13.5.12.37 3.85-3.49 4-3.11 7.16 21.07 13.21 46.33 16.16 59.42 5 22.38-8.88 31.26-8.88 31.26l6.68-3.88s6.89-8.17 7.92-11.76c2.27-7.86 15.2-3.61 12.81-16.15-3.46-18.19-24.91-110.88-24.91-110.88s-22 1.53-25-3.86c-2.25-4-8.32-7.15-13.88-8.82z" fill="url(#j)" opacity=".2"/></g><path d="M113.83 71.93l14.34-10.65a3.28 3.28 0 0 1 5.14 3.41l-5.47 22.45-.14.78M67.48 74l-14.33-8.93a3.28 3.28 0 0 0-4.88 3.68l6.29 22.14.44 1.63m84.05 38.15l19.1 62.16a27.37 27.37 0 0 1-19.21 33.87m-87.42-2.22a27.35 27.35 0 0 1-14.38-27.77l11.67-61.34" fill="none" stroke="#31323d" stroke-linecap="round" stroke-miterlimit="10" stroke-width="1.366"/><path d="M71 201.22c-.78 6.66-2 13.22-3.26 19.8l-1.83 9.88a8.35 8.35 0 0 1-2.71 4.68 8.64 8.64 0 0 1-5 2.06 24.37 24.37 0 0 1-2.61-.07l-2.51-.14-5-.31a4.42 4.42 0 0 1-2.78-1.06 4.11 4.11 0 0 1-1.3-2.76 5.72 5.72 0 0 1 .11-1.44 3.14 3.14 0 0 1 .71-1.45 4.55 4.55 0 0 1 2.61-1.41 4.43 4.43 0 0 1 .72-.09c.21 0 .36 0 .53-.06a2.22 2.22 0 0 0 .88-.34 2.69 2.69 0 0 0 1-1.63 7.77 7.77 0 0 0 .19-2.29l-.1-2.5-.4-10v.06a30.11 30.11 0 0 0-1.35-6.36 20.57 20.57 0 0 0-3.09-5.79.24.24 0 0 1 .36-.32 17.08 17.08 0 0 1 3.76 5.62 25.66 25.66 0 0 1 1.67 6.58v.12l.5 10 .12 2.51a8.88 8.88 0 0 1-.22 2.69 4.09 4.09 0 0 1-1.63 2.49 3.63 3.63 0 0 1-1.42.57 4.88 4.88 0 0 1-.72.09l-.52.07a3.06 3.06 0 0 0-1.72 1 1.66 1.66 0 0 0-.37.78 3.74 3.74 0 0 0-.07 1.05 2.49 2.49 0 0 0 .75 1.71 2.79 2.79 0 0 0 1.84.64l5 .29 2.5.16c.85 0 1.69.13 2.41.09a7.11 7.11 0 0 0 4.12-1.67 6.84 6.84 0 0 0 2.25-3.83l1.89-9.84c1.26-6.57 2.47-13.15 4.17-19.63a.24.24 0 0 1 .29-.18.26.26 0 0 1 .23.23zm48.61-1.71c1.76 7.63 3 15.34 4.33 23l1 5.78.25 1.44a7.77 7.77 0 0 0 .34 1.28 7.17 7.17 0 0 0 1.36 2.25 6.25 6.25 0 0 0 4.56 2.2l5.82-.21 2.92-.09 1.45-.05a3.82 3.82 0 0 0 1.14-.29 2 2 0 0 0 1.16-1.71 5.23 5.23 0 0 0 0-1.25 2.92 2.92 0 0 0-.39-1.09 2 2 0 0 0-.75-.74 1.64 1.64 0 0 0-.48-.18l-.66-.08a4.39 4.39 0 0 1-1.67-.5 3.52 3.52 0 0 1-1.31-1.29 5.9 5.9 0 0 1-.52-3.23l.06-2.94.06-2.93a29.68 29.68 0 0 1 .3-3 28 28 0 0 1 1.55-5.78 27.59 27.59 0 0 1 2.67-5.32 29 29 0 0 1 3.64-4.67.24.24 0 0 1 .34 0 .25.25 0 0 1 0 .32 38.36 38.36 0 0 0-5.49 10.11 31.47 31.47 0 0 0-1.37 5.55 24.79 24.79 0 0 0-.27 2.84v7.22a2.73 2.73 0 0 0 .34 1.1 2.26 2.26 0 0 0 1.87 1.05c.17 0 .49 0 .8.1a3 3 0 0 1 .89.32 3.43 3.43 0 0 1 1.32 1.27 4.63 4.63 0 0 1 .61 1.65 6.66 6.66 0 0 1 0 1.67 4 4 0 0 1-.6 1.69 3.29 3.29 0 0 1-1.41 1.21 5.24 5.24 0 0 1-1.68.45l-1.47.05-2.94.11-5.89.18a6.75 6.75 0 0 1-3.16-.78 8.65 8.65 0 0 1-2.53-2 8.55 8.55 0 0 1-1.63-2.74 10.28 10.28 0 0 1-.41-1.54l-.23-1.45-.95-5.78c-1.26-7.71-2.58-15.41-3.41-23.19a.26.26 0 0 1 .22-.27.24.24 0 0 1 .22.26zM77.76 72.63a8 8 0 0 0-1.33-2.2 8.67 8.67 0 0 0-4.2-2.77 11.2 11.2 0 0 0-2.5-.44.68.68 0 0 1-.62-.74.69.69 0 0 1 .36-.55 19.48 19.48 0 0 1 3.13-1.11 15.82 15.82 0 0 1 3.29-.55 10.35 10.35 0 0 1 3.4.32 7.05 7.05 0 0 1 3.05 1.73l-1.14.32a14.61 14.61 0 0 0 .32-2.23 13 13 0 0 0 0-2.25 7 7 0 0 0-1.62-3.96.67.67 0 0 1 .59-1.12 18 18 0 0 1 3.22.77 13.57 13.57 0 0 1 3 1.42 8.39 8.39 0 0 1 2.48 2.31 6.58 6.58 0 0 1 1.11 3.23l-.94-.15a29.12 29.12 0 0 1 2-3.88A21.26 21.26 0 0 1 94 57.26a10.05 10.05 0 0 1 3.73-2.57 6.17 6.17 0 0 1 4.66.18.68.68 0 0 1 .35.9.6.6 0 0 1-.09.13 18.47 18.47 0 0 0-1.65 2.51 14 14 0 0 0-1.17 2.71 6.7 6.7 0 0 0-.3 2.78 3.87 3.87 0 0 0 1.15 2.32h-.91a20.13 20.13 0 0 1 2.6-1.76 15.9 15.9 0 0 1 2.88-1.29 8.32 8.32 0 0 1 3.24-.43 5.24 5.24 0 0 1 3.11 1.38.68.68 0 0 1 0 1 .66.66 0 0 1-.24.17 16.08 16.08 0 0 0-2.15 1.09 13.33 13.33 0 0 0-2 1.45 7.66 7.66 0 0 0-1.51 1.85 4.7 4.7 0 0 0-.62 2.26.28.28 0 0 1-.27.28.29.29 0 0 1-.28-.26 5.41 5.41 0 0 1 .5-2.62 8.23 8.23 0 0 1 1.51-2.19 14.7 14.7 0 0 1 2-1.73A17.64 17.64 0 0 1 110.9 64l-.19 1.13a3.82 3.82 0 0 0-2.31-1 7.08 7.08 0 0 0-2.7.37 14.15 14.15 0 0 0-2.61 1.18 19.14 19.14 0 0 0-2.41 1.62.69.69 0 0 1-.9 0 5.27 5.27 0 0 1-1.56-3.12 8.13 8.13 0 0 1 .35-3.35 15.51 15.51 0 0 1 1.29-3 20.11 20.11 0 0 1 1.77-2.69l.25 1a4.87 4.87 0 0 0-3.69-.22 8.78 8.78 0 0 0-3.3 2.2 19.56 19.56 0 0 0-2.59 3.25 28 28 0 0 0-2 3.68.51.51 0 0 1-.66.25.52.52 0 0 1-.29-.4 5.44 5.44 0 0 0-1-2.69 7.22 7.22 0 0 0-2.21-1.93A12.79 12.79 0 0 0 83.31 59a16.53 16.53 0 0 0-3-.62l.57-1.14a8.24 8.24 0 0 1 2 4.71 13.07 13.07 0 0 1 0 2.5 16.63 16.63 0 0 1-.32 2.55.68.68 0 0 1-.82.5.67.67 0 0 1-.31-.17A5.7 5.7 0 0 0 79 65.89a9 9 0 0 0-3-.27 15 15 0 0 0-3 .51 18.66 18.66 0 0 0-2.89 1l-.23-1.29a12.36 12.36 0 0 1 2.75.71A9.66 9.66 0 0 1 75.08 68a9.15 9.15 0 0 1 2 2 8.62 8.62 0 0 1 1.25 2.5.26.26 0 0 1-.18.34.27.27 0 0 1-.33-.16z" fill="#31323d"/><path d="M107.24 68.86a27.37 27.37 0 0 1 6.16 2.41 46.06 46.06 0 0 1 3.92 2.73 26.74 26.74 0 0 1 3.47 3.26 72.62 72.62 0 0 1 5.64 7.49 165 165 0 0 1 9.36 16.13l2 4.22 1 2.07c.33.69.73 1.33 1.09 2a21.94 21.94 0 0 0 5.88 6.74 13.71 13.71 0 0 0 3.92 2 10.45 10.45 0 0 0 2.12.41h.34a1 1 0 0 1 .71.47 1 1 0 0 1 .12.83.93.93 0 0 1-.19.37l-.12.13a5.23 5.23 0 0 1-1 .86 8.69 8.69 0 0 1-4.85 1.11 20.2 20.2 0 0 1-4.73-.73l.5-1.26a51 51 0 0 0 7.15 3.1 29.48 29.48 0 0 0 3.73 1 17.63 17.63 0 0 0 1.89.29h1.31a1 1 0 0 1 .61.4 1 1 0 0 1-.11 1.35 1.22 1.22 0 0 1-.25.18l-.11.06-.22.11-.45.23-.91.44c-.61.29-1.23.56-1.86.8a24.56 24.56 0 0 1-3.88 1.2 15 15 0 0 1-4.13.37 8.51 8.51 0 0 1-4.07-1.26l.9-.13c-1.55 1.7-3.16 3.28-4.84 4.8a65.81 65.81 0 0 1-5.25 4.32.27.27 0 0 1-.38-.06.28.28 0 0 1 0-.38 64.3 64.3 0 0 0 4.92-4.56c1.56-1.6 3.06-3.28 4.45-5a.66.66 0 0 1 .83-.17h.06c2 1.3 4.71 1.24 7.17.71a24.3 24.3 0 0 0 3.67-1.14c.6-.23 1.2-.49 1.78-.77l.87-.42.44-.22.21-.11.11-.06a.34.34 0 0 0 0 .45.33.33 0 0 0 .21.13h-1.12a19.29 19.29 0 0 1-2-.31 30.06 30.06 0 0 1-3.91-1.07 52.73 52.73 0 0 1-7.37-3.19.68.68 0 0 1-.28-.92.67.67 0 0 1 .77-.34 19.27 19.27 0 0 0 4.42.69 7.46 7.46 0 0 0 4.09-.9 4.13 4.13 0 0 0 .75-.62l.07-.09a.34.34 0 0 0-.06.12.34.34 0 0 0 .28.43h-.24a11.52 11.52 0 0 1-2.42-.47A15.17 15.17 0 0 1 145 117a19.51 19.51 0 0 1-3.51-3.28c-.54-.58-1-1.25-1.46-1.88s-.88-1.32-1.29-2-.78-1.38-1.13-2.08l-1-2.13-2-4.16a167 167 0 0 0-9.27-16 71.51 71.51 0 0 0-5.53-7.34 26.77 26.77 0 0 0-3.29-3.1 45.58 45.58 0 0 0-3.78-2.58 25.76 25.76 0 0 0-5.85-2.29.68.68 0 0 1-.5-.83.7.7 0 0 1 .85-.47zM54.84 140a34.38 34.38 0 0 1-5.78-3.78 11.68 11.68 0 0 1-2.42-2.62 5.24 5.24 0 0 1-.74-1.78c0-.16 0-.35-.07-.5v-.42l-.06-.86 1 .55a9.85 9.85 0 0 1-3.22 1.1c-.54.11-1.07.19-1.61.26h-.41a1 1 0 0 1-1-1.56A1.66 1.66 0 0 1 41 130a18.24 18.24 0 0 0 2.17-2.14c.68-.77 1.34-1.6 2-2.42l.85 1a22.07 22.07 0 0 1-5.58 1.86 16.23 16.23 0 0 1-3 .29H36a1.14 1.14 0 0 1-.24-.05 1 1 0 0 1-.34-1.75 1.9 1.9 0 0 1 .49-.27l.31-.14a18.45 18.45 0 0 0 4.53-3.11 29.73 29.73 0 0 0 3.76-4.1l1 .88a10.62 10.62 0 0 1-4.8 2.77 13.76 13.76 0 0 1-5.49.24c-.45-.07-.9-.15-1.34-.25l-.66-.15-.32-.09h-.17a1 1 0 0 1-.39-.2 1 1 0 0 1 .12-1.68.85.85 0 0 1 .22-.09h.22l.31-.1c.4-.14.8-.29 1.19-.45a28.75 28.75 0 0 0 4.6-2.49 26.82 26.82 0 0 0 7.4-7 28.16 28.16 0 0 0 2.6-4.41c.33-.8.67-1.53 1-2.4l.94-2.4A107.75 107.75 0 0 1 59.44 82a29.94 29.94 0 0 1 3.11-4.37c.6-.7 1.21-1.32 1.83-2a26.12 26.12 0 0 1 2-1.79A27 27 0 0 1 75.92 69a.69.69 0 0 1 .85.47.68.68 0 0 1-.48.84 25.84 25.84 0 0 0-9 4.65c-.66.53-1.31 1.09-1.91 1.68s-1.22 1.25-1.76 1.88a30.34 30.34 0 0 0-3 4.18 106.86 106.86 0 0 0-8.39 19.07l-1 2.49c-.29.76-.68 1.63-1 2.44a29.41 29.41 0 0 1-2.72 4.63 28.19 28.19 0 0 1-7.77 7.35 29.57 29.57 0 0 1-4.74 2.51c-.41.17-.84.32-1.26.47l-.32.11h-.24.07a.34.34 0 0 0 0-.56l-.11-.06h.16l.31.08.62.15c.41.09.82.17 1.24.23a12.37 12.37 0 0 0 4.93-.21 9.31 9.31 0 0 0 4.19-2.41.68.68 0 0 1 1 .9 31.8 31.8 0 0 1-4 4.32 19.88 19.88 0 0 1-4.88 3.33l-.34.16c-.09 0-.32.16-.14 0a.33.33 0 0 0-.12-.58h-.06 1.27a16.6 16.6 0 0 0 2.72-.27 21 21 0 0 0 5.24-1.75.68.68 0 0 1 .84 1c-.65.88-1.32 1.71-2 2.52a19.76 19.76 0 0 1-2.35 2.31c-.09 0-.31.27-.15.09a.33.33 0 0 0 0-.37.38.38 0 0 0-.3-.16h.38c.51-.06 1-.14 1.52-.24a8.63 8.63 0 0 0 2.76-.92.67.67 0 0 1 .92.22.72.72 0 0 1 .09.34v1.64a4 4 0 0 0 .49 1.38 10.8 10.8 0 0 0 2 2.51 34.75 34.75 0 0 0 5.42 4 .27.27 0 1 1-.27.47z" fill="#31323d"/><path d="M87.5 136.88s.42 8 7.17 7.78c6.53-.26 7.26-7.79 7.26-7.79a8.69 8.69 0 0 1-6.57 3.4c-4.23.06-7.86-3.39-7.86-3.39z" fill="#595959" opacity=".2"/><g fill="#31323d"><path d="M94.71 115.66a44.41 44.41 0 0 0 1.29 6.13 21 21 0 0 0 2.51 5.71.18.18 0 0 1 0 .24.17.17 0 0 1-.22 0 21.56 21.56 0 0 1-3.29-5.62 43.14 43.14 0 0 1-1.92-6.12.83.83 0 0 1 1.62-.39s.01.02.01.05z"/><path d="M89.6 128.56a16.43 16.43 0 0 0 2.79-6.77 42.24 42.24 0 0 0 .74-7.37.83.83 0 0 1 .85-.81.84.84 0 0 1 .82.85v.08a43.63 43.63 0 0 1-1.45 7.46 16.91 16.91 0 0 1-3.5 6.75.16.16 0 0 1-.23 0 .17.17 0 0 1-.02-.19z"/><path d="M86.63 112.08a1.66 1.66 0 0 1 .4-1.77c1-1 3.13-2.4 7.07-2.42s5.83 1.36 6.71 2.33a1.64 1.64 0 0 1 .28 1.79 2.3 2.3 0 0 1-2 1.36 4.41 4.41 0 0 0-3.63 1.75 1.21 1.21 0 0 1-.21.24 2 2 0 0 1-2.81-.16s-.8-1.39-3.78-1.63a2.28 2.28 0 0 1-2-1.5zm15.71 24.45a6.36 6.36 0 0 1-1 2.14 7.32 7.32 0 0 1-1.77 1.65 8.51 8.51 0 0 1-2.22 1 9.34 9.34 0 0 1-2.41.28 9.22 9.22 0 0 1-4.57-1.34 8.13 8.13 0 0 1-3.14-3.44.28.28 0 0 1 .47-.3 10 10 0 0 0 7.3 3.42 8.37 8.37 0 0 0 3.87-.87 7.52 7.52 0 0 0 3-2.75.29.29 0 0 1 .39-.1.3.3 0 0 1 .08.31zm-2.58-16.22a60.34 60.34 0 0 1 10 1.27 50.05 50.05 0 0 1 9.63 3 33.77 33.77 0 0 1 8.57 5.24 23.58 23.58 0 0 1 6.08 7.93 23.32 23.32 0 0 0-6.26-7.71 33.24 33.24 0 0 0-8.61-5 49.73 49.73 0 0 0-9.57-2.71 60 60 0 0 0-9.89-1 .55.55 0 0 1-.55-.56.57.57 0 0 1 .57-.55zm18.63-1.58a15.86 15.86 0 0 0-8.31-3.06 15.25 15.25 0 0 0-8.46 2 .56.56 0 0 1-.55-1 15.91 15.91 0 0 1 17.29 2.09zm-17.77 4.44a14 14 0 0 1 5 1.33 17.71 17.71 0 0 1 4.16 3 25.09 25.09 0 0 1 3.21 3.92 27.2 27.2 0 0 1 2.4 4.44 26.86 26.86 0 0 0-2.63-4.28 25 25 0 0 0-3.36-3.68 17.35 17.35 0 0 0-4.13-2.64 13.24 13.24 0 0 0-4.71-1 .56.56 0 0 1 0-1.11zm-12.88-2.06c-3.39 0-6.75 0-10.11.27a55.68 55.68 0 0 0-9.94 1.62 30.3 30.3 0 0 0-9.2 4 19.29 19.29 0 0 0-6.62 7.49 19.46 19.46 0 0 1 6.46-7.71 30.2 30.2 0 0 1 9.21-4.31 56.07 56.07 0 0 1 10-1.91c3.38-.36 6.79-.46 10.16-.55a.56.56 0 0 1 .57.54.55.55 0 0 1-.54.57zm-19.4-1.73a16.34 16.34 0 0 1 18.28-1.87.55.55 0 1 1-.52 1 15.68 15.68 0 0 0-8.92-2.27 16.06 16.06 0 0 0-8.84 3.14zm18.5 4.62a11 11 0 0 0-4.72.78 15.51 15.51 0 0 0-4.12 2.69 23.82 23.82 0 0 0-3.33 3.75 30.08 30.08 0 0 0-2.67 4.31 30.07 30.07 0 0 1 2.4-4.47 23.91 23.91 0 0 1 3.18-4 15.91 15.91 0 0 1 4.19-3.06 11.91 11.91 0 0 1 5.14-1.14.56.56 0 0 1 .55.56.55.55 0 0 1-.56.55h-.06z"/></g><circle cx="122.12" cy="100.6" fill="#fff" r="14.23"/><g clip-path="url(#k)"><circle cx="118.94" cy="101.43" fill="#85a2ff" r="11.52"/><circle cx="118.61" cy="101.64" fill="#31323d" r="9.11"/><circle cx="122.91" cy="93.97" fill="#fff" r="4.84"/></g><circle cx="122.12" cy="100.6" fill="none" r="14.23" stroke="#31323d" stroke-linecap="round" stroke-miterlimit="10" stroke-width="1.096"/><circle cx="62.76" cy="101.87" fill="#fff" r="14.23" stroke="#31323d" stroke-linecap="round" stroke-miterlimit="10" stroke-width="1.096"/><circle cx="66.67" cy="104.72" fill="#85a2ff" r="7.93"/><circle cx="67" cy="104.84" fill="#31323d" r="5.85"/><circle cx="68.99" cy="99.82" fill="#fff" r="3.18"/></g></svg>