<svg height="252" width="200" xmlns="http://www.w3.org/2000/svg" xmlns:xlink="http://www.w3.org/1999/xlink"><clipPath id="b"><path d="M-24-37h248v320H-24z"/></clipPath><clipPath id="c"><path d="M127.51 159.06c6.15 2.71 14.47 3.61 14.47 3.61s31 4.06 35.54-22.23c1.74-14.63-15.79-17.66-15.79-17.66s8.19-3.31 11.12-.63c0 0-1.65-2.73-4.13-3 0 0 10.54-7.21 19 9.27 0 0-1.1-8.4-4.5-10.08 0 0 12.7 2.94 14.94 21.82 0 0 2.35-3.76 2.09-6.9a18.08 18.08 0 0 1-.65 19.39s5.25-5.08 5.67-7.81c0 0 6.59 19.16-13.5 22.05 0 0 5.45 2.07 9.08.31 0 0-3.49 7.7-14.8 6.71 0 0 5.5 3.8 8.86 3 0 0-8.32 4.3-22.41 1.19 0 0 4.77 4.47 8.31 4.56l-.94.23a55.89 55.89 0 0 1-30.81-1.45L135.61 177l-8.1-3.35z"/></clipPath><linearGradient id="a" gradientUnits="userSpaceOnUse" x1="165.09" x2="165.09" y1="189.08" y2="163.96"><stop offset="0" stop-color="gray"/><stop offset=".27" stop-color="#7d7d7d"/><stop offset=".46" stop-color="#747474"/><stop offset=".64" stop-color="#646464"/><stop offset=".8" stop-color="#4d4d4d"/><stop offset=".95" stop-color="#303030"/><stop offset="1" stop-color="#242424"/></linearGradient><linearGradient id="d" gradientUnits="userSpaceOnUse" x1="187.65" x2="187.65" y1="139.33" y2="112.14"><stop offset="0" stop-color="#fff" stop-opacity="0"/><stop offset=".72" stop-color="#fff"/></linearGradient><linearGradient id="e" gradientTransform="rotate(26.38 -3717.369 3674.428)" x1="-1803.2" x2="-1803.2" xlink:href="#a" y1="-1191.73" y2="-1227.58"/><clipPath id="f"><path d="M154.53 181.1c-3.28-2.24-10.09-4.71-13.71-5.76h-.06a19 19 0 0 0 .49-11.88L131 130.07a9.36 9.36 0 0 0 3.14-1.71c-1.23.58-3-.62-4.18-1.67l-.17-.55c4.17 2 8-3.48 8-3.48-3.46.42-7.77-2.38-10.4-4.43l-.28-.92c2.77.52 5.62-1.87 5.62-1.87-1.64 0-3.43-1.36-5-3.13a22.54 22.54 0 0 1-4.76-8.5l-4.18-13.57a18.33 18.33 0 0 0-3.59-6.81l4.91-7.94a1.15 1.15 0 0 0-.92-1.75c-3-.14-8 3.59-9.86 5.06a17.89 17.89 0 0 0-4.41-1.54 27 27 0 0 1 1.67-2.93.78.78 0 0 0-.86-1.17 16.39 16.39 0 0 0-4.92 2.66.1.1 0 0 1-.15-.1c.31-1.27 1.61-6.78.57-7.28s-2.76 4-3.4 5.7a.09.09 0 0 1-.18 0c.13-1.86.37-7-1-6.71s-4.28 6.69-4.81 7.94a.09.09 0 0 1-.17 0c-.36-.89-1.75-4.25-2.23-3.07s0 3.3.25 4.14a.09.09 0 0 1-.15.09c-1.45-1.29-3.92-1.33-5.64-1.16a.78.78 0 0 0-.48 1.33 7.81 7.81 0 0 1 .75.87 18.19 18.19 0 0 0-5 2.22l-.4-.27c-3.16-2.6-8.07-5.91-10-3.24a1.15 1.15 0 0 0-.07 1.22l4.62 8.24a18.4 18.4 0 0 0-2.52 7.15l-2.32 12.22a20.66 20.66 0 0 1-3.77 8.6c-1.35 1.81-2.95 3.32-4.58 3.49 0 0 3.16 2 5.84 1.09l-.18 1c-2.34 2.38-6.22 5.71-9.7 5.76 0 0 4.32 4.75 8.12 2.53l-.14.74c-1 1.12-2.45 2.27-3.63 1.9a9.37 9.37 0 0 0 3 1.21l-6.62 34.78a19 19 0 0 0 1 9h-.05a58.31 58.31 0 0 0-14.07 6c-2 1.3-.77 4.26 1.77 4.21l20.35-.4c.34.21.7.41 1.06.6v.26c0 1.77-.5 3.23-2.28 3.32a2.4 2.4 0 0 0-2.33 1.6 2.31 2.31 0 0 0 2.07 3.09l6.43.38a5.42 5.42 0 0 0 5-2.6 5.65 5.65 0 0 0 .67-1.83l.38-2h40.68l.27 1.58a5.43 5.43 0 0 0 3.29 4.14 4.06 4.06 0 0 0 1.69.31l7-.24c1.68-.16 2.29-1.19 2.12-2.81a2.11 2.11 0 0 0-1.87-2 2.08 2.08 0 0 1-2.14-1.67 18.9 18.9 0 0 0 5-2.13l19.94.38c2.5-.04 3.72-2.95 1.73-4.3z"/></clipPath><clipPath id="g"><path d="M154.53 181.1c-3.28-2.24-10.09-4.71-13.71-5.76h-.06a19 19 0 0 0 .49-11.88L131 130.07a9.36 9.36 0 0 0 3.14-1.71c-1.23.58-3-.62-4.18-1.67l-.17-.55c4.17 2 8-3.48 8-3.48-3.46.42-7.77-2.38-10.4-4.43l-.28-.92c2.77.52 5.62-1.87 5.62-1.87-3.29.1-7.14-5.65-8.76-8.34l-5.19-16.86a18.33 18.33 0 0 0-3.59-6.81l5.59-9c-2.51-2.43-9.25 2.57-11.5 4.37a17.89 17.89 0 0 0-4.41-1.54 26.82 26.82 0 0 1 1.67-2.92.78.78 0 0 0-.85-1.18 16.12 16.12 0 0 0-4.93 2.66.1.1 0 0 1-.15-.1c.31-1.27 1.6-6.78.57-7.28s-2.76 4-3.4 5.7a.09.09 0 0 1-.18 0c.13-1.86.37-7-1-6.71s-4.28 6.68-4.81 7.93a.09.09 0 0 1-.17 0c-.36-.89-1.75-4.25-2.23-3.07s0 3.3.25 4.14a.09.09 0 0 1-.15.09c-1.45-1.29-3.92-1.33-5.64-1.16a.78.78 0 0 0-.48 1.33 7.81 7.81 0 0 1 .75.87 18.19 18.19 0 0 0-5 2.22l-.4-.27c-3.39-2.79-8.8-6.4-10.34-2.56l4.92 8.78a18.4 18.4 0 0 0-2.52 7.15l-3 15.56c-1.31 2.7-4.46 8.41-7.71 8.75 0 0 3.16 2 5.84 1.09l-.18 1c-2.34 2.38-6.22 5.71-9.7 5.76 0 0 4.32 4.75 8.12 2.53l-.14.74c-1 1.12-2.45 2.27-3.63 1.9a9.37 9.37 0 0 0 3 1.21l-6.62 34.78a19 19 0 0 0 1 9h-.05a58.31 58.31 0 0 0-14.07 6c-2 1.3-.77 4.26 1.77 4.21l20.35-.4c.34.21.7.41 1.06.6v.26c0 1.77-.5 3.23-2.28 3.32a2.4 2.4 0 0 0-2.33 1.6 2.31 2.31 0 0 0 2.07 3.09l6.43.38a5.42 5.42 0 0 0 5-2.6 5.65 5.65 0 0 0 .67-1.83l.38-2h40.68l.27 1.58a5.43 5.43 0 0 0 3.29 4.14 4.06 4.06 0 0 0 1.69.31l7-.24c1.68-.16 2.29-1.19 2.12-2.81a2.11 2.11 0 0 0-1.87-2 2.08 2.08 0 0 1-2.14-1.67 18.9 18.9 0 0 0 5-2.13l19.94.38c2.56-.03 3.78-2.94 1.79-4.29z"/></clipPath><clipPath id="h"><path d="M85.42 99.63c0 7.26-2.5 8.84-6.55 8.08a18.4 18.4 0 0 0-6.06-.14c-4.3.65-7.15-1.11-7.11-7.65A10 10 0 0 1 75.34 90a9.79 9.79 0 0 1 10.08 9.63z"/></clipPath><clipPath id="i"><path d="M106.86 98.27c0 7.26 2.5 8.84 6.56 8.08a18.34 18.34 0 0 1 6-.14c4.3.65 7.15-1.1 7.11-7.65a10 10 0 0 0-9.64-9.94 9.79 9.79 0 0 0-10.03 9.65z"/></clipPath><path d="M-24-37h248v320H-24z" fill="#d0efeb"/><g clip-path="url(#b)"><ellipse cx="99.5" cy="186.5" fill="#a2ccc6" rx="57" ry="9.5"/><g clip-path="url(#c)"><path d="M124.06 115.79h83.72v69.17h-83.72z" fill="#889aa0"/><path d="M144.75 170.34c9.54 4.7 6.38 9.4 17.76 10.28 18.57 2.94 29.38-3.79 34.84-10.93l8.94-4-8.56 23.4-73.83-.83 4.81-24.26s10.92 3.82 16.04 6.34z" fill="url(#a)" opacity=".2"/><path d="M172.85 122.15s-5.86-5.11 12 1.61 14.8 15.57 14.8 15.57l15.23-6.27-20.88-19.2-30.67-1.57-2.85-.15z" fill="url(#d)" opacity=".5"/><path d="M170 131.45c.76.15 10.43.87 9.49 14.07-1 13.69-11 17.11-27.89 16.08l20.25-21.83s-1.16-1.72-3.62-5-3.46-3.64-3.46-3.64a48.61 48.61 0 0 1 5.23.32z" fill="url(#e)" opacity=".2"/></g><path d="M126.14 159.31c6.28 2.72 14.76 3.63 14.76 3.63s31.55 4.09 36.23-22.36c1.78-14.72-16.1-17.76-16.1-17.76s8.35-3.34 11.34-.64c0 0-1.68-2.75-4.21-3 0 0 10.75-7.26 19.39 9.33 0 0-1.12-8.45-4.59-10.15 0 0 12.95 3 15.23 22 0 0 2.4-3.78 2.13-7a18 18 0 0 1-.66 19.52s5.36-5.12 5.79-7.87c0 0 6.72 19.28-13.77 22.19 0 0 5.56 2.08 9.25.31 0 0-3.55 7.75-15.08 6.75 0 0 5.61 3.82 9 3 0 0-8.48 4.33-22.85 1.2 0 0 4.87 4.5 8.47 4.59l-.95.23a57.8 57.8 0 0 1-31.42-1.47l-13.72-4.57-8.27-3.37z" fill="none" stroke="#31323d" stroke-linecap="round" stroke-linejoin="round" stroke-width="1.136"/><g clip-path="url(#f)"><path d="M41.96 66.91h115.93v132.92H41.96z" fill="#889aa0"/><path d="M122.56 74.64s-2.9-2-7.78 3.16l-2.57 3.09 4.27 3.55zm-56.42 3.05s2.09-1.44 5.46-.06a9.4 9.4 0 0 1 3.62 2.68l1.13 1.36-2.87 4.19zm10.7 110.95c-.43-1.11.24-4.33 1.57-10.76.8-3.85 1.44-6.37 1.83-8 3-12.35 1.23-13.69 3.81-21 1.77-5 3.6-10 8.47-12.35.58-.29 5-2.35 9.53-.54s6.19 6.15 8 10.82c2.22 5.66 1.52 7.61 4 21.75.53 3 1 5.89 1.58 8.83.31 1.73.6 3.46.91 5.19.72 4.06.73 4.12.72 4.28-.67 5.94-37.04 10.67-40.42 1.78z" fill="#435056"/><path d="M78.87 176.5l-3.13 15.06-2.14 2.12-3.37.45-8.06-.81V190l4.6-2.95L66 174s2.05 2.88 6.93 3.11 5.94-.61 5.94-.61zm50.43-1.45l-1.22 5.62-.15 6.71L132 190v3.31l-8.06.81-3.37-.45-2.14-2.12-3.13-15.06a9.59 9.59 0 0 0 7.5 1.88c5.07-.6 6.5-3.32 6.5-3.32z" fill="#889aa0"/><path d="M56.75 170.37s-.44 7.55 10.09 15.13l-18.75 2.2-10.86-3.7.8-3.11zm84.82 2.16s-2.23 9.39-10.2 13.2l25.42.3v-6.1z" fill="#889aa0"/><g fill="#435056"><path d="M136.57 126s-5.09 9.36-12.56 10.28c-4.21.51-4.09 2.38-3.18 3.91a5.7 5.7 0 0 0 3.7 2.66c3.4.77 10.6 1.74 13.2-2.91 3.45-6.21-1.16-13.94-1.16-13.94zm-6.85-25.13c-5.38 4.16-8.67 7.21-10.9 7.62a7.22 7.22 0 0 0-4 2c-.33.34-1.53 1.6-1.31 2.85.4 2.38 5.67 3.12 6.29 3.2.8.11 10.14 1.33 12.49-4.34 1.27-2.96 0-8.41-2.57-11.33zm-75.79 28.47c3.5-1.09 6.72 9.37 14.94 10.21 3.64.38 6.51-1.31 7.32 0s-.93 3.76-2.59 5.19a10.62 10.62 0 0 1-6.86 2.26c-5.8.1-13.91-3.38-15.1-9.92-.53-2.92.24-7.08 2.29-7.74zm75.28 18.38c.6-1.12 2.62-.71 10.47-.3 3.25.17 4.22.17 4.38.68.31 1-2.69 3.14-5.78 3.93-.71.18-6.09 1.49-8.33-1.5-.12-.17-1.3-1.74-.74-2.81zm-47.39-73c.1 1.24 2.31 2.8 2.94 3.75a10.43 10.43 0 0 0 1 5.56c.37.69 1.22 2.06.7 2.81a1.64 1.64 0 0 1-1.29.5c-2 0-3.48-2.47-4-3.34-1.69-2.8-2.11-6.35-.9-8 1.03-1.32 1.47-2.35 1.55-1.28zm45.88 79.77c.15-.82-1.06-1.44-5.28-4.42-1.75-1.24-2.25-1.64-2.54-1.44-.57.39.11 2.72 1.38 4.39.29.38 2.54 3.25 4.91 2.62.13-.04 1.38-.37 1.53-1.15zM75 158.15c-.75-.72.08-2.05.82-6.25.46-2.57.39-3.47.81-3.56.72-.14 2 2.22 2.36 4.55.15 1 .58 3.94-1.19 5.11-.8.53-2.15.76-2.8.15zm46.93-35.59c-.21 1-1.77 1-5.71 2.66-2.42 1-3.14 1.52-3.44 1.22-.51-.53.79-2.9 2.57-4.43.78-.67 3-2.6 5-1.73.84.39 1.75 1.41 1.58 2.28zM105.26 76.5c-1 .47-.76 1.16-1.57 6-.35 2.09-.52 2.59-.17 2.91.89.8 2.84-.52 4.32-2.85.82-1.28 1.57-3.57.51-5.13a3.84 3.84 0 0 0-1.68-1.32c-.49-.22-.54-.01-1.41.39zm26.08 105.62c.83.15 1.44-1.06 4.43-5.28 1.24-1.75 1.63-2.25 1.43-2.54-.38-.57-2.71.11-4.38 1.39-.39.29-3.26 2.53-2.62 4.91.03.13.36 1.4 1.14 1.52zm-56.82-55.77c.67-2.5-3.94-6.46-8.69-7.63s-9.66.37-9.76 1.68c-.07 1 2.9 1 7 4.12 3.08 2.33 3.45 3.87 5.64 4.27 2.37.43 5.36-.73 5.81-2.44zm-2.46 27.1c-1.19-.93-3.5 2.7-8.69 3.66-6 1.1-9.76-2.42-11.14-.76-1.19 1.44.44 5.62 3.36 7.47 2.74 1.73 5.87.92 8.23.3a11.39 11.39 0 0 0 5.65-2.89c2.58-2.62 3.74-6.87 2.59-7.78zm70.55.94c-1.31-1.17-4.8 3.77-11.89 4.58-5.69.64-9.5-1.84-10.45-.31-.75 1.21 1 3.78 2.62 5.14 2.49 2.07 5.51 1.95 7.52 1.88a13.37 13.37 0 0 0 8.54-2.9c3.15-2.69 4.81-7.36 3.66-8.39zm-69.99-21.5c.08-1.82 2.71-3 4.72-2.9.4 0 2.09.14 2.44 1.07.58 1.54-2.5 5.27-5 4.58a3 3 0 0 1-2.16-2.75z"/><path d="M67 135.37c-1.54 1-4-.49-5.08-2.21-.2-.34-1.46-2.95-.52-2.61 2.85 1 3.88 1 5.77.33a2.67 2.67 0 0 1 .86 1.17 3 3 0 0 1-1.03 3.32zM131.41 125c-1.54 1-4-.49-5.08-2.22-.21-.34-1.09-1.79-.53-2.61.93-1.35 5.75-1 6.64 1.5a3 3 0 0 1-1.03 3.33zM89.7 72.51c-4.27 3-2.67 10.41-1.38 13.72.29.72 2.5 6.37 5.49 6.25 2.19-.08 3.64-3.2 5.34-6.86 1.19-2.56 1.41-4.62 1.85-7.62.16-1.19 1.61-11-.25-12.61-2.45-2.12-8.59 5.37-11.05 7.12zm36.79 56.91a2.79 2.79 0 0 1-2.8 2.79c-1.54 0-4.23-1.93-4.23-3.47s2.69-2.12 4.23-2.12a2.8 2.8 0 0 1 2.8 2.8zm-9.98 4.58a1.16 1.16 0 0 1-1.16 1.16c-.64 0-1.84-.82-1.84-1.46s1.2-.86 1.84-.86a1.16 1.16 0 0 1 1.16 1.16zm-44.73 16.42a1.16 1.16 0 0 1-1.16 1.16c-.64 0-1.84-.82-1.84-1.46s1.2-.86 1.84-.86a1.16 1.16 0 0 1 1.16 1.16zM87.86 91.5a1.16 1.16 0 0 1-2.32 0c0-.64-.05-1.63.59-1.63a2.25 2.25 0 0 1 1.73 1.63z"/><circle cx="117.51" cy="143.64" r="2.06"/><path d="M80.44 123.82a1.25 1.25 0 0 1-2.49 0 2.15 2.15 0 0 1 1.7-1.68c.69 0 .79.99.79 1.68zm-14.91 27.9c0 1.93-3.08 3.42-5 3.42a3.49 3.49 0 0 1 0-7c1.92.02 5 1.66 5 3.58zm8.55 16.21a1.92 1.92 0 0 1-1.92 1.92c-1.06 0-3-2-3-3s1.91-.81 3-.81a1.92 1.92 0 0 1 1.92 1.89zm33.82-80.18c0 1-.26 2.42-1.23 2.42a3 3 0 0 1-2.27-2.42 1.75 1.75 0 0 1 3.5 0zm20.31-8.55c0 5.65-8.36 13.47-14 13.47s-5-6.73-4.53-12.36S112.33 69 118 69a10.23 10.23 0 0 1 10.21 10.2zm-49.48 1.27c1.53 9.11-4.8 13.28-10.73 13.28s-10.72-6-10.72-13.28S62.08 67.19 68 67.19s9.51 6.05 10.73 13.28z"/><path d="M74.22 102.47c0 7.27 4.27 12.58-3 12.58s-14-5.94-14-13.21-1-12 6.22-12 10.78 5.36 10.78 12.63zm67.12 61.91s-4.68-.08-3.38 5.41-1.56 8.39-.71 9.49l.86 1.11s5.32-7.92 3.23-16.01zm-84.66 3.55s3.56-3 5.36 1.79 1.6 7.39 4.37 9.91l.43 5.87s-9.84-3.8-10.16-17.57z"/></g></g><g clip-path="url(#g)" fill="#7f7f7f" opacity=".2"><path d="M85.35 79.55c-6.21 1.8-10.17 8.83-12.35 18.27-.5 2.2-1 4.81-1.4 7.69-1.14 7.45-2.14 16.69-3.39 25.26-1.61 2.53-2.22 3-2.7 5.78-1.56 8.93-1.59 19.6-2.14 24a69.64 69.64 0 0 0-.52 7.5v.26c1.79 2 3.63 6.77 4 13.48l.1 3.73s-2.39-.06-6.18-.06c-4.73 0-8.45-8.51-6-21.21 2.17-11.4-5.18-69.8-5.18-69.8l21.51-3.38a18.39 18.39 0 0 1 13-13.6zm-5.09 89.71c-1.85 11.26 4.14 13.59 5.23 13.84 6.6 1.18 17.07.67 20.47-.53 3.19-1.12 9.91-4.46 8.24-14.45l3.27 19.58H76.79zm47.87 8.91s2.28-7 5.06-9.52c-3 5.72 1.07 7.07 2.14 6.69 4.09-1.46 5.71-5.08 6-11.44l5 8.87s-4.2 19.52-15.56 16.31l-2.95-1.38z"/></g><g clip-path="url(#g)" opacity=".2"><path d="M104.77 77.47s4.5 2.56 6.17 5 3.37 6.58 5 13.79c4.49 19.73 17.49 52.1 21 67.71s-6.19 21.8-6.19 21.8l4.66-2.7s4.8-5.7 5.52-8.21c1.59-5.48 10.6-2.51 8.94-11.26-2.41-12.69-23.3-74-23.3-74s-9.42-2.28-11.53-6c-1.58-2.81-5.58-4.93-9.46-6.1z" fill="#fff"/></g><path d="M117.57 187.58H77m54.12-57.27l10.16 33.07a19 19 0 0 1-13.36 23.56m-60.81-1.54a19 19 0 0 1-10-19.32l6.56-34.5" fill="none" stroke="#31323d" stroke-linecap="round" stroke-miterlimit="10" stroke-width=".95"/><path d="M80.63 169.21c-.54 4.64-1.42 9.2-2.26 13.78l-1.27 6.87a5.81 5.81 0 0 1-1.89 3.25 5.91 5.91 0 0 1-3.48 1.44 17.48 17.48 0 0 1-1.81-.05l-1.75-.1-3.48-.21a3.05 3.05 0 0 1-1.93-.74 2.79 2.79 0 0 1-.86-1.92 3.69 3.69 0 0 1 .08-1 2.13 2.13 0 0 1 .49-1 3.18 3.18 0 0 1 1.79-1 4.26 4.26 0 0 1 .5-.06h.37a1.71 1.71 0 0 0 .62-.24 1.88 1.88 0 0 0 .72-1.13 13.09 13.09 0 0 0 .06-3.33l-.28-7a20.54 20.54 0 0 0-.94-4.43 14.09 14.09 0 0 0-2.18-4 .16.16 0 0 1 0-.23.17.17 0 0 1 .23 0 11.92 11.92 0 0 1 2.64 3.97 17.92 17.92 0 0 1 1.16 4.58l.35 7 .08 1.75a6.33 6.33 0 0 1-.15 1.87 2.86 2.86 0 0 1-1.12 1.72 2.77 2.77 0 0 1-1 .4 4.66 4.66 0 0 1-.49.06l-.36.05c-2.23.18-1.89 3.78.29 3.58l3.48.19 1.74.11a16.63 16.63 0 0 0 1.68.07 4.83 4.83 0 0 0 4.43-3.83l1.31-6.84c.88-4.57 1.72-9.15 2.9-13.66a.17.17 0 0 1 .21-.12.16.16 0 0 1 .12.2z" fill="#31323d"/><path d="M70.48 190.41a1.4 1.4 0 0 0-.91.38 2.24 2.24 0 0 0-.59.86 5.92 5.92 0 0 0-.41 2.15.48.48 0 1 1-.95 0v-.06a7 7 0 0 1 .78-2.36 2.27 2.27 0 0 1 2.13-1.28.18.18 0 0 1 .15.19.17.17 0 0 1-.16.15zm-3.23-.36a1.85 1.85 0 0 0-.9.46 2.47 2.47 0 0 0-.58.86 5.28 5.28 0 0 0-.41 2.1.48.48 0 0 1-1 0v-.07a6.09 6.09 0 0 1 .79-2.32 2.56 2.56 0 0 1 2-1.35.17.17 0 0 1 .17.17.17.17 0 0 1-.14.17zM114.47 168c1.22 5.3 2.1 10.66 3 16l.68 4 .17 1a6.88 6.88 0 0 0 .24.89 5 5 0 0 0 1 1.57 4.35 4.35 0 0 0 3.17 1.52l4-.14 2-.06h1a2.3 2.3 0 0 0 .79-.2 1.41 1.41 0 0 0 .81-1.19 3.62 3.62 0 0 0 0-.87 2.19 2.19 0 0 0-.28-.76 1.41 1.41 0 0 0-.52-.51 1.26 1.26 0 0 0-.34-.13l-.45-.05a3.3 3.3 0 0 1-1.16-.35 2.48 2.48 0 0 1-.92-.9 4.12 4.12 0 0 1-.36-2.25v-4c0-.7.11-1.4.21-2.08a19.89 19.89 0 0 1 1.08-4 20.77 20.77 0 0 1 4.39-6.95.17.17 0 0 1 .24 0 .18.18 0 0 1 0 .23 26.26 26.26 0 0 0-3.82 7 22.46 22.46 0 0 0-1 3.86c-.09.66-.15 1.31-.18 2v4a3.3 3.3 0 0 0 .24 1.73 1.62 1.62 0 0 0 1.31.73 5.41 5.41 0 0 1 .56.06 2.61 2.61 0 0 1 .61.22 2.39 2.39 0 0 1 .92.89 3.12 3.12 0 0 1 .42 1.15 5 5 0 0 1 0 1.16 2.71 2.71 0 0 1-.42 1.18 2.31 2.31 0 0 1-1 .83 3.72 3.72 0 0 1-1.16.32h-1l-2 .07-4.1.12a4.62 4.62 0 0 1-2.2-.54 5.86 5.86 0 0 1-1.76-1.36 6.25 6.25 0 0 1-1.14-1.9 8.16 8.16 0 0 1-.28-1.08l-.16-1-.66-4c-.88-5.36-1.8-10.72-2.37-16.13a.18.18 0 0 1 .15-.19.17.17 0 0 1 .29.11z" fill="#31323d"/><path d="M122.8 189.49a2.73 2.73 0 0 1 2.34 1.31 4.48 4.48 0 0 1 .54 1.28 8.89 8.89 0 0 1 .18 1.36.48.48 0 0 1-1 .05v-.07a7.87 7.87 0 0 0 0-1.19 3.83 3.83 0 0 0-.32-1.11 2.22 2.22 0 0 0-.71-.87 2.09 2.09 0 0 0-1.07-.42.17.17 0 0 1-.15-.18.16.16 0 0 1 .19-.16zm3.85-.25a2.73 2.73 0 0 1 2.34 1.31 4.48 4.48 0 0 1 .54 1.28 7.8 7.8 0 0 1 .18 1.36.48.48 0 1 1-1 .05v-.07a6.75 6.75 0 0 0 0-1.19 3.83 3.83 0 0 0-.32-1.11 2.22 2.22 0 0 0-.71-.87 2.09 2.09 0 0 0-1.06-.42.16.16 0 0 1-.15-.18.16.16 0 0 1 .18-.16z" fill="#31323d"/><path d="M78.93 79.64c-3.16-2.59-8.05-5.9-10-3.24a1.15 1.15 0 0 0-.06 1.22l4.6 8.22M109.4 79c1.86-1.47 6.8-5.19 9.83-5a1.14 1.14 0 0 1 .92 1.74l-4.9 7.92" fill="none" stroke="#31323d" stroke-linecap="round" stroke-miterlimit="10" stroke-width=".912"/><path d="M68.38 130.74a6.16 6.16 0 0 1-1.88.9 6.69 6.69 0 0 1-2.09.2 9 9 0 0 1-2.07-.39 10.39 10.39 0 0 1-2-.85.5.5 0 0 1-.16-.69.51.51 0 0 1 .59-.21 1.69 1.69 0 0 0 1.22-.21 5.64 5.64 0 0 0 1.23-.89 14.89 14.89 0 0 0 2.06-2.41l.79.61a5.73 5.73 0 0 1-2.46 1.62 5.38 5.38 0 0 1-2.95 0 8.77 8.77 0 0 1-2.58-1.23 12.79 12.79 0 0 1-2.08-1.83.48.48 0 0 1 0-.69.49.49 0 0 1 .32-.14 8 8 0 0 0 3.29-.93 17.1 17.1 0 0 0 3-1.93 34 34 0 0 0 5.13-5 .49.49 0 0 1 .69-.07.48.48 0 0 1 .06.69 5 5 0 0 1-1.87 1.43 5.69 5.69 0 0 1-2.3.36 8.05 8.05 0 0 1-2.2-.46 11.25 11.25 0 0 1-2-.93.49.49 0 0 1-.17-.67.48.48 0 0 1 .36-.23 4.3 4.3 0 0 0 2.34-1.31 14.18 14.18 0 0 0 1.85-2.28 27.32 27.32 0 0 0 2.74-5.32A31.1 31.1 0 0 0 68.8 102l1.14-6 .57-3 .27-1.53c.13-.5.23-1 .39-1.51A18.81 18.81 0 0 1 84 77.3a.47.47 0 0 1 .59.32.48.48 0 0 1-.33.59A17.94 17.94 0 0 0 74.69 85a18.12 18.12 0 0 0-2.61 5.31c-.14.47-.24 1-.37 1.44l-.25 1.48-.57 3-1.14 6a32.12 32.12 0 0 1-1.6 6 28.21 28.21 0 0 1-2.83 5.52 14.85 14.85 0 0 1-2 2.44 5.18 5.18 0 0 1-2.91 1.58l.21-.9a9.39 9.39 0 0 0 1.82.83 7 7 0 0 0 2 .41 4.46 4.46 0 0 0 1.86-.29 4 4 0 0 0 1.48-1.13l.77.61A36.55 36.55 0 0 1 66 120a29.56 29.56 0 0 1-2.78 2.47 18 18 0 0 1-3.16 2 9.23 9.23 0 0 1-3.72 1l.36-.84a11.39 11.39 0 0 0 2 1.66 7.56 7.56 0 0 0 2.29 1.1 4.41 4.41 0 0 0 2.39 0 4.85 4.85 0 0 0 2-1.34.5.5 0 0 1 .71 0 .49.49 0 0 1 0 .63 15.73 15.73 0 0 1-2.22 2.61 7 7 0 0 1-1.45 1 2.66 2.66 0 0 1-2 .27l.43-.9a8.94 8.94 0 0 0 1.68.89 8.35 8.35 0 0 0 1.84.5 5.83 5.83 0 0 0 1.91 0 5.68 5.68 0 0 0 1.79-.69.19.19 0 0 1 .25.08.19.19 0 0 1 .06.3zm37.12-53.69a18.89 18.89 0 0 1 10.5 6.72 18.7 18.7 0 0 1 3 5.55c.63 2 1.19 4 1.79 6l1.78 5.93a31 31 0 0 0 2.13 5.71 24.94 24.94 0 0 0 3.36 5 14.4 14.4 0 0 0 2.15 2.06 4.37 4.37 0 0 0 2.52 1 .5.5 0 0 1 .52.49.5.5 0 0 1-.19.4 10.26 10.26 0 0 1-1.89 1.21 8.17 8.17 0 0 1-2.13.75 5.56 5.56 0 0 1-2.33 0 5.11 5.11 0 0 1-2-1.17.51.51 0 0 1 .67-.76c.87.81 1.81 1.58 2.76 2.31a29.47 29.47 0 0 0 3 2 17.16 17.16 0 0 0 3.22 1.52 8.3 8.3 0 0 0 3.39.49.5.5 0 0 1 .53.43.49.49 0 0 1-.09.34 13 13 0 0 1-1.9 2.09 9 9 0 0 1-2.39 1.56 5.44 5.44 0 0 1-2.91.4 5.78 5.78 0 0 1-2.64-1.28l.66-.68a16.47 16.47 0 0 0 2.36 2.14 6.06 6.06 0 0 0 1.34.73 1.72 1.72 0 0 0 1.29.01.44.44 0 0 1 .57.21.42.42 0 0 1-.12.5 9.15 9.15 0 0 1-3.76 1.82 5.91 5.91 0 0 1-4.08-.55.19.19 0 0 1 .15-.34 5.88 5.88 0 0 0 1.87.45 6.41 6.41 0 0 0 1.9-.21 9.09 9.09 0 0 0 1.78-.72 10.37 10.37 0 0 0 1.57-1.08l.46.7a2.6 2.6 0 0 1-1.94 0 6.69 6.69 0 0 1-1.57-.82 14.43 14.43 0 0 1-2.55-2.26.47.47 0 0 1 0-.67.46.46 0 0 1 .6 0 4.88 4.88 0 0 0 2.18 1.06 4.48 4.48 0 0 0 2.38-.34 7.73 7.73 0 0 0 2.12-1.4 11.67 11.67 0 0 0 1.74-1.92l.47.77a9 9 0 0 1-3.82-.53 17.37 17.37 0 0 1-3.41-1.59 30.26 30.26 0 0 1-3.09-2.07c-1-.75-1.94-1.53-2.86-2.38l.7-.73a4.12 4.12 0 0 0 1.61.92 4.57 4.57 0 0 0 1.88 0 7.1 7.1 0 0 0 1.86-.65 9.78 9.78 0 0 0 1.7-1.07l.34.89a5.26 5.26 0 0 1-3.15-1.2 14.68 14.68 0 0 1-2.31-2.21 25.87 25.87 0 0 1-3.48-5.25 31.74 31.74 0 0 1-2.19-5.87l-1.76-5.94c-.59-2-1.16-4-1.77-5.91A17.88 17.88 0 0 0 105.28 78a.48.48 0 0 1 .22-.93z" fill="#31323d"/><path d="M85.37 79.8c-.38-.55-.75-1.09-1.15-1.6-.2-.25-.42-.49-.63-.72s-.22-.22-.34-.34a1.15 1.15 0 0 1-.35-.7 1.23 1.23 0 0 1 .72-1.31A1.12 1.12 0 0 1 84 75h.77a11.26 11.26 0 0 1 2.09.06 6.79 6.79 0 0 1 2.14.54 4.75 4.75 0 0 1 1 .6l.09.07a.42.42 0 0 0-.5 0 .35.35 0 0 0-.14.24v.15-.12L89.2 76a12.91 12.91 0 0 1-.3-2 5.85 5.85 0 0 1 0-1.1 3.76 3.76 0 0 1 .15-.6 1.42 1.42 0 0 1 .28-.41.77.77 0 0 1 .74-.13 1.53 1.53 0 0 1 .59.49 5.53 5.53 0 0 1 .32.46c.19.31.35.62.51.93s.29.62.43.93l.2.47.1.24v.06a.43.43 0 0 0-.72-.13.75.75 0 0 0-.07.12v-.18l.1-.23.2-.46.41-.93c.28-.61.58-1.22.88-1.82a20.86 20.86 0 0 1 2.12-3.54 4 4 0 0 1 .83-.82 1.79 1.79 0 0 1 .34-.17l.19-.07h.26a1.13 1.13 0 0 1 .83.48 3.25 3.25 0 0 1 .45 1.14 10 10 0 0 1 .15 1.06 31.15 31.15 0 0 1 0 4.1v.5a.45.45 0 0 0-.31-.45.45.45 0 0 0-.52.2.14.14 0 0 0 0 .06v-.18L97.9 73c.26-.62.53-1.24.82-1.86a17.19 17.19 0 0 1 1-1.82 3.93 3.93 0 0 1 .74-.89 1.09 1.09 0 0 1 .87-.29 1 1 0 0 1 .73.66 5.57 5.57 0 0 1 .12 2.23c-.07.69-.17 1.36-.29 2s-.26 1.33-.41 2l-.24 1v-.16a.36.36 0 0 0-.14-.23.39.39 0 0 0-.49 0l.2-.15.42-.3a17.36 17.36 0 0 1 3.61-2l.51-.17a3.22 3.22 0 0 1 .59-.14 1.25 1.25 0 0 1 1.25.84 1.19 1.19 0 0 1 0 .79 1.13 1.13 0 0 1-.17.33l-.13.21-.54.83a25.87 25.87 0 0 0-1.9 3.46.19.19 0 0 1-.25.11.2.2 0 0 1-.11-.22 14.35 14.35 0 0 1 1.53-3.79l.51-.87c.24-.37.22-.37.18-.54a.33.33 0 0 0-.3-.2l-.38.1-.44.16A16.41 16.41 0 0 0 101.8 76l-.4.29-.2.15a.59.59 0 0 1-.72 0 .55.55 0 0 1-.21-.33.87.87 0 0 1 0-.28l.23-1q.21-1 .39-2c.11-.65.21-1.3.26-1.94a4.7 4.7 0 0 0-.06-1.75c0-.1-.06-.06.05 0s0 0 0 .07a3.17 3.17 0 0 0-.53.66 14.48 14.48 0 0 0-.92 1.7c-.28.6-.54 1.2-.79 1.82l-.36.92v.27a.61.61 0 0 1-.73.28.64.64 0 0 1-.44-.64v-.5a28.62 28.62 0 0 0 0-3.93 4.3 4.3 0 0 0-.39-1.65c0-.07 0 0 0 0l-.11.06a2.91 2.91 0 0 0-.59.58 20.13 20.13 0 0 0-2 3.34c-.3.59-.59 1.18-.87 1.79l-.42.9-.2.46-.1.23v.17a.82.82 0 0 1-.11.17.63.63 0 0 1-.76.12.67.67 0 0 1-.27-.31v-.06l-.09-.22L91 75c-.13-.3-.27-.6-.41-.89a9.52 9.52 0 0 0-.45-.84 3.75 3.75 0 0 0-.24-.36c-.08-.12-.19-.18-.16-.18a.29.29 0 0 0 .28 0 2.11 2.11 0 0 0-.1.38 4.44 4.44 0 0 0 0 .9 12.69 12.69 0 0 0 .26 1.91l.11.48v.11a.54.54 0 0 1 0 .29.52.52 0 0 1-.2.33.59.59 0 0 1-.73 0l-.09-.13a3.57 3.57 0 0 0-.74-.47 5.88 5.88 0 0 0-1.78-.5 11.14 11.14 0 0 0-1.92-.07h-.73L84 76a.32.32 0 0 0-.18.32.27.27 0 0 0 .08.18l.35.4a8.19 8.19 0 0 1 .59.86 8.56 8.56 0 0 1 .87 1.87.18.18 0 0 1-.12.24.19.19 0 0 1-.22-.07z" fill="#31323d"/><path d="M58 175a58.36 58.36 0 0 0-14 6c-2 1.3-.77 4.25 1.76 4.2l21.33-.41" fill="none" stroke="#31323d" stroke-linecap="round" stroke-miterlimit="10" stroke-width=".95"/><path d="M51.11 181.32a3.72 3.72 0 0 0-2 1.22 1.49 1.49 0 0 0-.28 1 2.88 2.88 0 0 0 .33 1.07.47.47 0 0 1-.86.4.17.17 0 0 1 0-.05 3.43 3.43 0 0 1-.26-1.47 2.22 2.22 0 0 1 .57-1.41 3.3 3.3 0 0 1 1.18-.8 5 5 0 0 1 1.32-.34.16.16 0 0 1 .19.14.17.17 0 0 1-.12.19zm-3.6.15a2.11 2.11 0 0 0-1.51 1.24 1.9 1.9 0 0 0 0 .95c0 .16.1.32.15.48l.23.48a.48.48 0 1 1-.86.41.14.14 0 0 1 0-.06l-.19-.6c0-.22-.09-.42-.11-.64a2.6 2.6 0 0 1 .22-1.31 2.05 2.05 0 0 1 .9-.94 3.09 3.09 0 0 1 1.18-.38.17.17 0 0 1 .19.15.17.17 0 0 1-.13.18z" fill="#31323d"/><path d="M140.86 175.25c3.61 1.05 10.4 3.51 13.67 5.74 2 1.35.77 4.25-1.76 4.2l-19.89-.39" fill="none" stroke="#31323d" stroke-linecap="round" stroke-miterlimit="10" stroke-width=".95"/><path d="M147.47 180.84a5.23 5.23 0 0 1 1.33.4 3.55 3.55 0 0 1 1.17.85 2.33 2.33 0 0 1 .57 1.43 3.55 3.55 0 0 1-.26 1.49.47.47 0 0 1-.6.3.47.47 0 0 1-.3-.6.43.43 0 0 1 0-.05 2.64 2.64 0 0 0 .33-1.09 1.61 1.61 0 0 0-.28-1.05 3.86 3.86 0 0 0-2.06-1.31.17.17 0 0 1-.11-.21.16.16 0 0 1 .21-.16zm3.61.16a3.38 3.38 0 0 1 1.18.44 2.33 2.33 0 0 1 .88 1 2.67 2.67 0 0 1 .22 1.33 4.87 4.87 0 0 1-.1.65l-.19.62a.48.48 0 1 1-.91-.29.08.08 0 0 1 0-.05l.23-.49c0-.16.11-.33.14-.49a1.91 1.91 0 0 0 0-1 2.27 2.27 0 0 0-1.54-1.34.18.18 0 0 1-.11-.22.16.16 0 0 1 .2-.16z" fill="#31323d"/><path d="M85.42 99.63c0 7.26-2.5 8.84-6.55 8.08a18.4 18.4 0 0 0-6.06-.14c-4.3.65-7.15-1.11-7.11-7.65A10 10 0 0 1 75.34 90a9.79 9.79 0 0 1 10.08 9.63z" fill="#fff"/><g clip-path="url(#h)"><circle cx="76.96" cy="101.47" fill="#00a09d" r="5.86"/><circle cx="76.79" cy="101.55" fill="#31323d" r="4.42"/><circle cx="79.27" cy="98.08" fill="#fff" r="2.35"/></g><path d="M85.42 99.63c0 7.26-2.5 8.84-6.55 8.08a18.4 18.4 0 0 0-6.06-.14c-4.3.65-7.15-1.11-7.11-7.65A10 10 0 0 1 75.34 90a9.79 9.79 0 0 1 10.08 9.63z" fill="none" stroke="#31323d" stroke-linecap="round" stroke-miterlimit="10" stroke-width=".76"/><path d="M106.86 98.27c0 7.26 2.5 8.84 6.56 8.08a18.34 18.34 0 0 1 6-.14c4.3.65 7.15-1.1 7.11-7.65a10 10 0 0 0-9.64-9.94 9.79 9.79 0 0 0-10.03 9.65z" fill="#fff"/><g clip-path="url(#i)"><circle cx="115.32" cy="100.11" fill="#00a09d" r="5.86"/><circle cx="115.49" cy="100.19" fill="#31323d" r="4.42"/><circle cx="119.05" cy="96.72" fill="#fff" r="2.35"/></g><path d="M106.86 98.27c0 7.26 2.5 8.84 6.56 8.08a18.34 18.34 0 0 1 6-.14c4.3.65 7.15-1.1 7.11-7.65a10 10 0 0 0-9.64-9.94 9.79 9.79 0 0 0-10.03 9.65z" fill="none" stroke="#31323d" stroke-linecap="round" stroke-miterlimit="10" stroke-width=".76"/><path d="M95.73 111l-.73 7.52a1.23 1.23 0 0 1-2.36.35l-1-2.52 2.21-1.82zm1.27-.65l1.64 7.18a1.83 1.83 0 0 0 3.52 0l1.05-3.51" fill="#fff" stroke="#31323d" stroke-linecap="round" stroke-miterlimit="10" stroke-width=".532"/><path d="M86.71 125.91s1.79 10.16 13.05 9.4c9.62-.65 9.61-11.23 9.61-11.23s-2.58 7.28-12.4 7.43c-6.22-.42-10.26-5.6-10.26-5.6z" fill="#595959" opacity=".2"/><g fill="#31323d"><path d="M91.51 107.33a1.16 1.16 0 0 1 .2-1.23 6.72 6.72 0 0 1 4.73-2c2.65-.19 4 .67 4.7 1.29a1.15 1.15 0 0 1 .27 1.21 1.58 1.58 0 0 1-1.33 1 3 3 0 0 0-2.4 1.37 1.09 1.09 0 0 1-.13.17 1.34 1.34 0 0 1-1.92 0s-.62-.91-2.67-.94a1.55 1.55 0 0 1-1.4-.94z"/><path d="M97.23 109.53a12.93 12.93 0 0 0 8.37 4.58 14.22 14.22 0 0 0 4.94-.32 20.63 20.63 0 0 0 2.4-.72c.78-.32 1.53-.69 2.3-1a.13.13 0 0 1 .15.06.12.12 0 0 1-.06.15c-.76.38-1.51.79-2.28 1.15s-1.58.66-2.42.85a15.48 15.48 0 0 1-5.12.56 13.54 13.54 0 0 1-5-1.39 13.35 13.35 0 0 1-4.2-3.19.56.56 0 0 1 .05-.8.57.57 0 0 1 .81 0z"/><path d="M76.73 115.42a20.69 20.69 0 0 0 5.78 2.16 12.54 12.54 0 0 0 6.06-.09 9.63 9.63 0 0 0 4.9-3.33 16.67 16.67 0 0 0 2.73-5.38.57.57 0 0 1 .72-.37.56.56 0 0 1 .37.71 17.77 17.77 0 0 1-3.11 5.61 10.45 10.45 0 0 1-5.42 3.4 13.32 13.32 0 0 1-6.34-.12 21 21 0 0 1-5.8-2.42.11.11 0 0 1 .11-.2zm27.76-5.56a53.09 53.09 0 0 1 12.65-.67 49.94 49.94 0 0 1 12.41 2.4 49.1 49.1 0 0 1 20.95 13.65 48.92 48.92 0 0 0-33.39-15.48 52.7 52.7 0 0 0-12.48.85.38.38 0 1 1-.15-.75z"/><path d="M89.25 112.37a26.67 26.67 0 0 0-7.93-.29 23.23 23.23 0 0 0-7.65 2.18 22.06 22.06 0 0 0-6.41 4.74 23.22 23.22 0 0 0-4.35 6.73 23.53 23.53 0 0 1 4.21-6.86 22.31 22.31 0 0 1 6.38-5 23.69 23.69 0 0 1 7.75-2.4 27.43 27.43 0 0 1 8.14.1.39.39 0 0 1 .32.44.38.38 0 0 1-.44.31z"/><path d="M41.51 122.08a59.22 59.22 0 0 1 10-6.89 54.54 54.54 0 0 1 11.27-4.56A54 54 0 0 1 87 109.49a.38.38 0 1 1-.14.75 53.84 53.84 0 0 0-35.25 5.12 58.64 58.64 0 0 0-10.1 6.72zm64.86-14.31l24.44-2.64h.14l5 4.1h-.15l6.51-3.18h.06l3.08 3.49h-.07l3.88-4.7-3.81 4.76-3.13-3.44h.1l-6.46 3.28h-.08l-.07-.06-5-4 .14.05-24.39 3a.38.38 0 0 1-.09-.76zM88.09 114a8.53 8.53 0 0 0-4.17-.14 6.91 6.91 0 0 0-3.61 2.14 8 8 0 0 0-1.88 3.81 9.29 9.29 0 0 0 .17 4.32 9.42 9.42 0 0 1-.36-4.35 8.1 8.1 0 0 1 1.79-4 7.41 7.41 0 0 1 3.75-2.41 9.18 9.18 0 0 1 4.51 0 .38.38 0 0 1-.17.74zm17.43-2.5a9.57 9.57 0 0 1 4.66.48 8.48 8.48 0 0 1 3.77 2.71 7.64 7.64 0 0 1 1.61 4.3 9.49 9.49 0 0 1-.89 4.46 9.44 9.44 0 0 0 .7-4.45 7.29 7.29 0 0 0-1.72-4.07 8 8 0 0 0-3.65-2.41 8.84 8.84 0 0 0-4.36-.27.38.38 0 0 1-.14-.75zm4.15 12.31a11.27 11.27 0 0 1-1.52 3.24 12.43 12.43 0 0 1-2.57 2.55 13.49 13.49 0 0 1-3.24 1.63 14.91 14.91 0 0 1-3.57.67 14.75 14.75 0 0 1-7-1.45 13.25 13.25 0 0 1-5.36-4.64.18.18 0 0 1 .06-.26.19.19 0 0 1 .25 0 14.81 14.81 0 0 0 12 5.19 12.68 12.68 0 0 0 6.33-2 12 12 0 0 0 2.51-2.2 12.21 12.21 0 0 0 1.76-2.9.19.19 0 0 1 .25-.1.19.19 0 0 1 .1.27z"/></g></g></svg>